<?xml version="1.0" encoding="utf-8"?>
<svg xmlns="http://www.w3.org/2000/svg" xmlns:xlink="http://www.w3.org/1999/xlink" width="600" height="400" viewBox="0 0 2400 1600">
<defs>
  <clipPath id="clip980">
    <rect x="0" y="0" width="2400" height="1600"/>
  </clipPath>
</defs>
<path clip-path="url(#clip980)" d="
M0 1600 L2400 1600 L2400 0 L0 0  Z
  " fill="#ffffff" fill-rule="evenodd" fill-opacity="1"/>
<defs>
  <clipPath id="clip981">
    <rect x="480" y="0" width="1681" height="1600"/>
  </clipPath>
</defs>
<path clip-path="url(#clip980)" d="
M156.598 1486.45 L2352.76 1486.45 L2352.76 47.2441 L156.598 47.2441  Z
  " fill="#ffffff" fill-rule="evenodd" fill-opacity="1"/>
<defs>
  <clipPath id="clip982">
    <rect x="156" y="47" width="2197" height="1440"/>
  </clipPath>
</defs>
<polyline clip-path="url(#clip982)" style="stroke:#000000; stroke-linecap:butt; stroke-linejoin:round; stroke-width:2; stroke-opacity:0.1; fill:none" points="
  198.77,1486.45 198.77,47.2441 
  "/>
<polyline clip-path="url(#clip982)" style="stroke:#000000; stroke-linecap:butt; stroke-linejoin:round; stroke-width:2; stroke-opacity:0.1; fill:none" points="
  720.953,1486.45 720.953,47.2441 
  "/>
<polyline clip-path="url(#clip982)" style="stroke:#000000; stroke-linecap:butt; stroke-linejoin:round; stroke-width:2; stroke-opacity:0.1; fill:none" points="
  1243.14,1486.45 1243.14,47.2441 
  "/>
<polyline clip-path="url(#clip982)" style="stroke:#000000; stroke-linecap:butt; stroke-linejoin:round; stroke-width:2; stroke-opacity:0.1; fill:none" points="
  1765.32,1486.45 1765.32,47.2441 
  "/>
<polyline clip-path="url(#clip982)" style="stroke:#000000; stroke-linecap:butt; stroke-linejoin:round; stroke-width:2; stroke-opacity:0.1; fill:none" points="
  2287.5,1486.45 2287.5,47.2441 
  "/>
<polyline clip-path="url(#clip980)" style="stroke:#000000; stroke-linecap:butt; stroke-linejoin:round; stroke-width:4; stroke-opacity:1; fill:none" points="
  156.598,1486.45 2352.76,1486.45 
  "/>
<polyline clip-path="url(#clip980)" style="stroke:#000000; stroke-linecap:butt; stroke-linejoin:round; stroke-width:4; stroke-opacity:1; fill:none" points="
  198.77,1486.45 198.77,1467.55 
  "/>
<polyline clip-path="url(#clip980)" style="stroke:#000000; stroke-linecap:butt; stroke-linejoin:round; stroke-width:4; stroke-opacity:1; fill:none" points="
  720.953,1486.45 720.953,1467.55 
  "/>
<polyline clip-path="url(#clip980)" style="stroke:#000000; stroke-linecap:butt; stroke-linejoin:round; stroke-width:4; stroke-opacity:1; fill:none" points="
  1243.14,1486.45 1243.14,1467.55 
  "/>
<polyline clip-path="url(#clip980)" style="stroke:#000000; stroke-linecap:butt; stroke-linejoin:round; stroke-width:4; stroke-opacity:1; fill:none" points="
  1765.32,1486.45 1765.32,1467.55 
  "/>
<polyline clip-path="url(#clip980)" style="stroke:#000000; stroke-linecap:butt; stroke-linejoin:round; stroke-width:4; stroke-opacity:1; fill:none" points="
  2287.5,1486.45 2287.5,1467.55 
  "/>
<path clip-path="url(#clip980)" d="M161.074 1517.37 Q157.462 1517.37 155.634 1520.93 Q153.828 1524.47 153.828 1531.6 Q153.828 1538.71 155.634 1542.27 Q157.462 1545.82 161.074 1545.82 Q164.708 1545.82 166.513 1542.27 Q168.342 1538.71 168.342 1531.6 Q168.342 1524.47 166.513 1520.93 Q164.708 1517.37 161.074 1517.37 M161.074 1513.66 Q166.884 1513.66 169.939 1518.27 Q173.018 1522.85 173.018 1531.6 Q173.018 1540.33 169.939 1544.94 Q166.884 1549.52 161.074 1549.52 Q155.263 1549.52 152.185 1544.94 Q149.129 1540.33 149.129 1531.6 Q149.129 1522.85 152.185 1518.27 Q155.263 1513.66 161.074 1513.66 Z" fill="#000000" fill-rule="evenodd" fill-opacity="1" /><path clip-path="url(#clip980)" d="M181.235 1542.97 L186.12 1542.97 L186.12 1548.85 L181.235 1548.85 L181.235 1542.97 Z" fill="#000000" fill-rule="evenodd" fill-opacity="1" /><path clip-path="url(#clip980)" d="M206.305 1517.37 Q202.694 1517.37 200.865 1520.93 Q199.059 1524.47 199.059 1531.6 Q199.059 1538.71 200.865 1542.27 Q202.694 1545.82 206.305 1545.82 Q209.939 1545.82 211.745 1542.27 Q213.573 1538.71 213.573 1531.6 Q213.573 1524.47 211.745 1520.93 Q209.939 1517.37 206.305 1517.37 M206.305 1513.66 Q212.115 1513.66 215.17 1518.27 Q218.249 1522.85 218.249 1531.6 Q218.249 1540.33 215.17 1544.94 Q212.115 1549.52 206.305 1549.52 Q200.495 1549.52 197.416 1544.94 Q194.36 1540.33 194.36 1531.6 Q194.36 1522.85 197.416 1518.27 Q200.495 1513.66 206.305 1513.66 Z" fill="#000000" fill-rule="evenodd" fill-opacity="1" /><path clip-path="url(#clip980)" d="M236.467 1517.37 Q232.856 1517.37 231.027 1520.93 Q229.221 1524.47 229.221 1531.6 Q229.221 1538.71 231.027 1542.27 Q232.856 1545.82 236.467 1545.82 Q240.101 1545.82 241.906 1542.27 Q243.735 1538.71 243.735 1531.6 Q243.735 1524.47 241.906 1520.93 Q240.101 1517.37 236.467 1517.37 M236.467 1513.66 Q242.277 1513.66 245.332 1518.27 Q248.411 1522.85 248.411 1531.6 Q248.411 1540.33 245.332 1544.94 Q242.277 1549.52 236.467 1549.52 Q230.656 1549.52 227.578 1544.94 Q224.522 1540.33 224.522 1531.6 Q224.522 1522.85 227.578 1518.27 Q230.656 1513.66 236.467 1513.66 Z" fill="#000000" fill-rule="evenodd" fill-opacity="1" /><path clip-path="url(#clip980)" d="M683.754 1517.37 Q680.143 1517.37 678.314 1520.93 Q676.509 1524.47 676.509 1531.6 Q676.509 1538.71 678.314 1542.27 Q680.143 1545.82 683.754 1545.82 Q687.388 1545.82 689.194 1542.27 Q691.022 1538.71 691.022 1531.6 Q691.022 1524.47 689.194 1520.93 Q687.388 1517.37 683.754 1517.37 M683.754 1513.66 Q689.564 1513.66 692.62 1518.27 Q695.698 1522.85 695.698 1531.6 Q695.698 1540.33 692.62 1544.94 Q689.564 1549.52 683.754 1549.52 Q677.944 1549.52 674.865 1544.94 Q671.81 1540.33 671.81 1531.6 Q671.81 1522.85 674.865 1518.27 Q677.944 1513.66 683.754 1513.66 Z" fill="#000000" fill-rule="evenodd" fill-opacity="1" /><path clip-path="url(#clip980)" d="M703.916 1542.97 L708.8 1542.97 L708.8 1548.85 L703.916 1548.85 L703.916 1542.97 Z" fill="#000000" fill-rule="evenodd" fill-opacity="1" /><path clip-path="url(#clip980)" d="M723.013 1544.91 L739.332 1544.91 L739.332 1548.85 L717.388 1548.85 L717.388 1544.91 Q720.05 1542.16 724.633 1537.53 Q729.24 1532.88 730.42 1531.53 Q732.666 1529.01 733.545 1527.27 Q734.448 1525.51 734.448 1523.82 Q734.448 1521.07 732.504 1519.33 Q730.582 1517.6 727.481 1517.6 Q725.281 1517.6 722.828 1518.36 Q720.397 1519.13 717.619 1520.68 L717.619 1515.95 Q720.444 1514.82 722.897 1514.24 Q725.351 1513.66 727.388 1513.66 Q732.758 1513.66 735.953 1516.35 Q739.147 1519.03 739.147 1523.52 Q739.147 1525.65 738.337 1527.57 Q737.55 1529.47 735.443 1532.07 Q734.865 1532.74 731.763 1535.95 Q728.661 1539.15 723.013 1544.91 Z" fill="#000000" fill-rule="evenodd" fill-opacity="1" /><path clip-path="url(#clip980)" d="M749.193 1514.29 L767.55 1514.29 L767.55 1518.22 L753.476 1518.22 L753.476 1526.7 Q754.494 1526.35 755.513 1526.19 Q756.531 1526 757.55 1526 Q763.337 1526 766.716 1529.17 Q770.096 1532.34 770.096 1537.76 Q770.096 1543.34 766.624 1546.44 Q763.152 1549.52 756.832 1549.52 Q754.656 1549.52 752.388 1549.15 Q750.142 1548.78 747.735 1548.04 L747.735 1543.34 Q749.818 1544.47 752.041 1545.03 Q754.263 1545.58 756.74 1545.58 Q760.744 1545.58 763.082 1543.48 Q765.42 1541.37 765.42 1537.76 Q765.42 1534.15 763.082 1532.04 Q760.744 1529.94 756.74 1529.94 Q754.865 1529.94 752.99 1530.35 Q751.138 1530.77 749.193 1531.65 L749.193 1514.29 Z" fill="#000000" fill-rule="evenodd" fill-opacity="1" /><path clip-path="url(#clip980)" d="M1205.44 1517.37 Q1201.83 1517.37 1200 1520.93 Q1198.19 1524.47 1198.19 1531.6 Q1198.19 1538.71 1200 1542.27 Q1201.83 1545.82 1205.44 1545.82 Q1209.07 1545.82 1210.88 1542.27 Q1212.71 1538.71 1212.71 1531.6 Q1212.71 1524.47 1210.88 1520.93 Q1209.07 1517.37 1205.44 1517.37 M1205.44 1513.66 Q1211.25 1513.66 1214.3 1518.27 Q1217.38 1522.85 1217.38 1531.6 Q1217.38 1540.33 1214.3 1544.94 Q1211.25 1549.52 1205.44 1549.52 Q1199.63 1549.52 1196.55 1544.94 Q1193.49 1540.33 1193.49 1531.6 Q1193.49 1522.85 1196.55 1518.27 Q1199.63 1513.66 1205.44 1513.66 Z" fill="#000000" fill-rule="evenodd" fill-opacity="1" /><path clip-path="url(#clip980)" d="M1225.6 1542.97 L1230.49 1542.97 L1230.49 1548.85 L1225.6 1548.85 L1225.6 1542.97 Z" fill="#000000" fill-rule="evenodd" fill-opacity="1" /><path clip-path="url(#clip980)" d="M1240.72 1514.29 L1259.07 1514.29 L1259.07 1518.22 L1245 1518.22 L1245 1526.7 Q1246.02 1526.35 1247.04 1526.19 Q1248.05 1526 1249.07 1526 Q1254.86 1526 1258.24 1529.17 Q1261.62 1532.34 1261.62 1537.76 Q1261.62 1543.34 1258.15 1546.44 Q1254.67 1549.52 1248.36 1549.52 Q1246.18 1549.52 1243.91 1549.15 Q1241.67 1548.78 1239.26 1548.04 L1239.26 1543.34 Q1241.34 1544.47 1243.56 1545.03 Q1245.79 1545.58 1248.26 1545.58 Q1252.27 1545.58 1254.61 1543.48 Q1256.94 1541.37 1256.94 1537.76 Q1256.94 1534.15 1254.61 1532.04 Q1252.27 1529.94 1248.26 1529.94 Q1246.39 1529.94 1244.51 1530.35 Q1242.66 1530.77 1240.72 1531.65 L1240.72 1514.29 Z" fill="#000000" fill-rule="evenodd" fill-opacity="1" /><path clip-path="url(#clip980)" d="M1280.83 1517.37 Q1277.22 1517.37 1275.39 1520.93 Q1273.59 1524.47 1273.59 1531.6 Q1273.59 1538.71 1275.39 1542.27 Q1277.22 1545.82 1280.83 1545.82 Q1284.47 1545.82 1286.27 1542.27 Q1288.1 1538.71 1288.1 1531.6 Q1288.1 1524.47 1286.27 1520.93 Q1284.47 1517.37 1280.83 1517.37 M1280.83 1513.66 Q1286.64 1513.66 1289.7 1518.27 Q1292.78 1522.85 1292.78 1531.6 Q1292.78 1540.33 1289.7 1544.94 Q1286.64 1549.52 1280.83 1549.52 Q1275.02 1549.52 1271.94 1544.94 Q1268.89 1540.33 1268.89 1531.6 Q1268.89 1522.85 1271.94 1518.27 Q1275.02 1513.66 1280.83 1513.66 Z" fill="#000000" fill-rule="evenodd" fill-opacity="1" /><path clip-path="url(#clip980)" d="M1728.12 1517.37 Q1724.51 1517.37 1722.68 1520.93 Q1720.87 1524.47 1720.87 1531.6 Q1720.87 1538.71 1722.68 1542.27 Q1724.51 1545.82 1728.12 1545.82 Q1731.75 1545.82 1733.56 1542.27 Q1735.39 1538.71 1735.39 1531.6 Q1735.39 1524.47 1733.56 1520.93 Q1731.75 1517.37 1728.12 1517.37 M1728.12 1513.66 Q1733.93 1513.66 1736.99 1518.27 Q1740.06 1522.85 1740.06 1531.6 Q1740.06 1540.33 1736.99 1544.94 Q1733.93 1549.52 1728.12 1549.52 Q1722.31 1549.52 1719.23 1544.94 Q1716.17 1540.33 1716.17 1531.6 Q1716.17 1522.85 1719.23 1518.27 Q1722.31 1513.66 1728.12 1513.66 Z" fill="#000000" fill-rule="evenodd" fill-opacity="1" /><path clip-path="url(#clip980)" d="M1748.28 1542.97 L1753.17 1542.97 L1753.17 1548.85 L1748.28 1548.85 L1748.28 1542.97 Z" fill="#000000" fill-rule="evenodd" fill-opacity="1" /><path clip-path="url(#clip980)" d="M1762.17 1514.29 L1784.39 1514.29 L1784.39 1516.28 L1771.85 1548.85 L1766.96 1548.85 L1778.77 1518.22 L1762.17 1518.22 L1762.17 1514.29 Z" fill="#000000" fill-rule="evenodd" fill-opacity="1" /><path clip-path="url(#clip980)" d="M1793.56 1514.29 L1811.92 1514.29 L1811.92 1518.22 L1797.84 1518.22 L1797.84 1526.7 Q1798.86 1526.35 1799.88 1526.19 Q1800.9 1526 1801.92 1526 Q1807.7 1526 1811.08 1529.17 Q1814.46 1532.34 1814.46 1537.76 Q1814.46 1543.34 1810.99 1546.44 Q1807.52 1549.52 1801.2 1549.52 Q1799.02 1549.52 1796.75 1549.15 Q1794.51 1548.78 1792.1 1548.04 L1792.1 1543.34 Q1794.18 1544.47 1796.41 1545.03 Q1798.63 1545.58 1801.11 1545.58 Q1805.11 1545.58 1807.45 1543.48 Q1809.79 1541.37 1809.79 1537.76 Q1809.79 1534.15 1807.45 1532.04 Q1805.11 1529.94 1801.11 1529.94 Q1799.23 1529.94 1797.36 1530.35 Q1795.5 1530.77 1793.56 1531.65 L1793.56 1514.29 Z" fill="#000000" fill-rule="evenodd" fill-opacity="1" /><path clip-path="url(#clip980)" d="M2239.57 1544.91 L2247.21 1544.91 L2247.21 1518.55 L2238.9 1520.21 L2238.9 1515.95 L2247.17 1514.29 L2251.84 1514.29 L2251.84 1544.91 L2259.48 1544.91 L2259.48 1548.85 L2239.57 1548.85 L2239.57 1544.91 Z" fill="#000000" fill-rule="evenodd" fill-opacity="1" /><path clip-path="url(#clip980)" d="M2268.92 1542.97 L2273.81 1542.97 L2273.81 1548.85 L2268.92 1548.85 L2268.92 1542.97 Z" fill="#000000" fill-rule="evenodd" fill-opacity="1" /><path clip-path="url(#clip980)" d="M2293.99 1517.37 Q2290.38 1517.37 2288.55 1520.93 Q2286.75 1524.47 2286.75 1531.6 Q2286.75 1538.71 2288.55 1542.27 Q2290.38 1545.82 2293.99 1545.82 Q2297.63 1545.82 2299.43 1542.27 Q2301.26 1538.71 2301.26 1531.6 Q2301.26 1524.47 2299.43 1520.93 Q2297.63 1517.37 2293.99 1517.37 M2293.99 1513.66 Q2299.8 1513.66 2302.86 1518.27 Q2305.94 1522.85 2305.94 1531.6 Q2305.94 1540.33 2302.86 1544.94 Q2299.8 1549.52 2293.99 1549.52 Q2288.18 1549.52 2285.11 1544.94 Q2282.05 1540.33 2282.05 1531.6 Q2282.05 1522.85 2285.11 1518.27 Q2288.18 1513.66 2293.99 1513.66 Z" fill="#000000" fill-rule="evenodd" fill-opacity="1" /><path clip-path="url(#clip980)" d="M2324.16 1517.37 Q2320.54 1517.37 2318.72 1520.93 Q2316.91 1524.47 2316.91 1531.6 Q2316.91 1538.71 2318.72 1542.27 Q2320.54 1545.82 2324.16 1545.82 Q2327.79 1545.82 2329.6 1542.27 Q2331.42 1538.71 2331.42 1531.6 Q2331.42 1524.47 2329.6 1520.93 Q2327.79 1517.37 2324.16 1517.37 M2324.16 1513.66 Q2329.97 1513.66 2333.02 1518.27 Q2336.1 1522.85 2336.1 1531.6 Q2336.1 1540.33 2333.02 1544.94 Q2329.97 1549.52 2324.16 1549.52 Q2318.35 1549.52 2315.27 1544.94 Q2312.21 1540.33 2312.21 1531.6 Q2312.21 1522.85 2315.27 1518.27 Q2318.35 1513.66 2324.16 1513.66 Z" fill="#000000" fill-rule="evenodd" fill-opacity="1" /><polyline clip-path="url(#clip982)" style="stroke:#000000; stroke-linecap:butt; stroke-linejoin:round; stroke-width:2; stroke-opacity:0.1; fill:none" points="
  156.598,1267.5 2352.76,1267.5 
  "/>
<polyline clip-path="url(#clip982)" style="stroke:#000000; stroke-linecap:butt; stroke-linejoin:round; stroke-width:2; stroke-opacity:0.1; fill:none" points="
  156.598,972.622 2352.76,972.622 
  "/>
<polyline clip-path="url(#clip982)" style="stroke:#000000; stroke-linecap:butt; stroke-linejoin:round; stroke-width:2; stroke-opacity:0.1; fill:none" points="
  156.598,677.74 2352.76,677.74 
  "/>
<polyline clip-path="url(#clip982)" style="stroke:#000000; stroke-linecap:butt; stroke-linejoin:round; stroke-width:2; stroke-opacity:0.1; fill:none" points="
  156.598,382.857 2352.76,382.857 
  "/>
<polyline clip-path="url(#clip982)" style="stroke:#000000; stroke-linecap:butt; stroke-linejoin:round; stroke-width:2; stroke-opacity:0.1; fill:none" points="
  156.598,87.9746 2352.76,87.9746 
  "/>
<polyline clip-path="url(#clip980)" style="stroke:#000000; stroke-linecap:butt; stroke-linejoin:round; stroke-width:4; stroke-opacity:1; fill:none" points="
  156.598,1486.45 156.598,47.2441 
  "/>
<polyline clip-path="url(#clip980)" style="stroke:#000000; stroke-linecap:butt; stroke-linejoin:round; stroke-width:4; stroke-opacity:1; fill:none" points="
  156.598,1267.5 175.496,1267.5 
  "/>
<polyline clip-path="url(#clip980)" style="stroke:#000000; stroke-linecap:butt; stroke-linejoin:round; stroke-width:4; stroke-opacity:1; fill:none" points="
  156.598,972.622 175.496,972.622 
  "/>
<polyline clip-path="url(#clip980)" style="stroke:#000000; stroke-linecap:butt; stroke-linejoin:round; stroke-width:4; stroke-opacity:1; fill:none" points="
  156.598,677.74 175.496,677.74 
  "/>
<polyline clip-path="url(#clip980)" style="stroke:#000000; stroke-linecap:butt; stroke-linejoin:round; stroke-width:4; stroke-opacity:1; fill:none" points="
  156.598,382.857 175.496,382.857 
  "/>
<polyline clip-path="url(#clip980)" style="stroke:#000000; stroke-linecap:butt; stroke-linejoin:round; stroke-width:4; stroke-opacity:1; fill:none" points="
  156.598,87.9746 175.496,87.9746 
  "/>
<path clip-path="url(#clip980)" d="M65.0198 1253.3 Q61.4087 1253.3 59.58 1256.87 Q57.7745 1260.41 57.7745 1267.54 Q57.7745 1274.65 59.58 1278.21 Q61.4087 1281.75 65.0198 1281.75 Q68.6541 1281.75 70.4596 1278.21 Q72.2883 1274.65 72.2883 1267.54 Q72.2883 1260.41 70.4596 1256.87 Q68.6541 1253.3 65.0198 1253.3 M65.0198 1249.6 Q70.83 1249.6 73.8855 1254.21 Q76.9642 1258.79 76.9642 1267.54 Q76.9642 1276.27 73.8855 1280.87 Q70.83 1285.46 65.0198 1285.46 Q59.2097 1285.46 56.131 1280.87 Q53.0754 1276.27 53.0754 1267.54 Q53.0754 1258.79 56.131 1254.21 Q59.2097 1249.6 65.0198 1249.6 Z" fill="#000000" fill-rule="evenodd" fill-opacity="1" /><path clip-path="url(#clip980)" d="M85.1818 1278.91 L90.066 1278.91 L90.066 1284.78 L85.1818 1284.78 L85.1818 1278.91 Z" fill="#000000" fill-rule="evenodd" fill-opacity="1" /><path clip-path="url(#clip980)" d="M104.279 1280.85 L120.598 1280.85 L120.598 1284.78 L98.6539 1284.78 L98.6539 1280.85 Q101.316 1278.09 105.899 1273.47 Q110.506 1268.81 111.686 1267.47 Q113.932 1264.95 114.811 1263.21 Q115.714 1261.45 115.714 1259.76 Q115.714 1257.01 113.77 1255.27 Q111.848 1253.53 108.746 1253.53 Q106.547 1253.53 104.094 1254.3 Q101.663 1255.06 98.8854 1256.61 L98.8854 1251.89 Q101.709 1250.76 104.163 1250.18 Q106.617 1249.6 108.654 1249.6 Q114.024 1249.6 117.219 1252.28 Q120.413 1254.97 120.413 1259.46 Q120.413 1261.59 119.603 1263.51 Q118.816 1265.41 116.709 1268 Q116.131 1268.67 113.029 1271.89 Q109.927 1275.09 104.279 1280.85 Z" fill="#000000" fill-rule="evenodd" fill-opacity="1" /><path clip-path="url(#clip980)" d="M62.9365 958.421 Q59.3254 958.421 57.4967 961.986 Q55.6912 965.527 55.6912 972.657 Q55.6912 979.763 57.4967 983.328 Q59.3254 986.87 62.9365 986.87 Q66.5707 986.87 68.3763 983.328 Q70.205 979.763 70.205 972.657 Q70.205 965.527 68.3763 961.986 Q66.5707 958.421 62.9365 958.421 M62.9365 954.717 Q68.7467 954.717 71.8022 959.324 Q74.8809 963.907 74.8809 972.657 Q74.8809 981.384 71.8022 985.99 Q68.7467 990.573 62.9365 990.573 Q57.1264 990.573 54.0477 985.99 Q50.9921 981.384 50.9921 972.657 Q50.9921 963.907 54.0477 959.324 Q57.1264 954.717 62.9365 954.717 Z" fill="#000000" fill-rule="evenodd" fill-opacity="1" /><path clip-path="url(#clip980)" d="M83.0984 984.023 L87.9827 984.023 L87.9827 989.902 L83.0984 989.902 L83.0984 984.023 Z" fill="#000000" fill-rule="evenodd" fill-opacity="1" /><path clip-path="url(#clip980)" d="M111.015 959.416 L99.2095 977.865 L111.015 977.865 L111.015 959.416 M109.788 955.342 L115.668 955.342 L115.668 977.865 L120.598 977.865 L120.598 981.754 L115.668 981.754 L115.668 989.902 L111.015 989.902 L111.015 981.754 L95.4132 981.754 L95.4132 977.24 L109.788 955.342 Z" fill="#000000" fill-rule="evenodd" fill-opacity="1" /><path clip-path="url(#clip980)" d="M63.2606 663.538 Q59.6495 663.538 57.8208 667.103 Q56.0152 670.645 56.0152 677.774 Q56.0152 684.881 57.8208 688.446 Q59.6495 691.987 63.2606 691.987 Q66.8948 691.987 68.7004 688.446 Q70.5291 684.881 70.5291 677.774 Q70.5291 670.645 68.7004 667.103 Q66.8948 663.538 63.2606 663.538 M63.2606 659.835 Q69.0707 659.835 72.1263 664.441 Q75.205 669.024 75.205 677.774 Q75.205 686.501 72.1263 691.108 Q69.0707 695.691 63.2606 695.691 Q57.4504 695.691 54.3717 691.108 Q51.3162 686.501 51.3162 677.774 Q51.3162 669.024 54.3717 664.441 Q57.4504 659.835 63.2606 659.835 Z" fill="#000000" fill-rule="evenodd" fill-opacity="1" /><path clip-path="url(#clip980)" d="M83.4225 689.14 L88.3067 689.14 L88.3067 695.02 L83.4225 695.02 L83.4225 689.14 Z" fill="#000000" fill-rule="evenodd" fill-opacity="1" /><path clip-path="url(#clip980)" d="M109.071 675.876 Q105.922 675.876 104.071 678.029 Q102.242 680.182 102.242 683.932 Q102.242 687.659 104.071 689.834 Q105.922 691.987 109.071 691.987 Q112.219 691.987 114.047 689.834 Q115.899 687.659 115.899 683.932 Q115.899 680.182 114.047 678.029 Q112.219 675.876 109.071 675.876 M118.353 661.224 L118.353 665.483 Q116.594 664.649 114.788 664.21 Q113.006 663.77 111.246 663.77 Q106.617 663.77 104.163 666.895 Q101.733 670.02 101.385 676.339 Q102.751 674.325 104.811 673.26 Q106.871 672.173 109.348 672.173 Q114.557 672.173 117.566 675.344 Q120.598 678.492 120.598 683.932 Q120.598 689.256 117.45 692.473 Q114.302 695.691 109.071 695.691 Q103.075 695.691 99.9039 691.108 Q96.7326 686.501 96.7326 677.774 Q96.7326 669.58 100.621 664.719 Q104.51 659.835 111.061 659.835 Q112.82 659.835 114.603 660.182 Q116.408 660.529 118.353 661.224 Z" fill="#000000" fill-rule="evenodd" fill-opacity="1" /><path clip-path="url(#clip980)" d="M63.5152 368.656 Q59.9041 368.656 58.0754 372.221 Q56.2699 375.762 56.2699 382.892 Q56.2699 389.998 58.0754 393.563 Q59.9041 397.105 63.5152 397.105 Q67.1494 397.105 68.955 393.563 Q70.7837 389.998 70.7837 382.892 Q70.7837 375.762 68.955 372.221 Q67.1494 368.656 63.5152 368.656 M63.5152 364.952 Q69.3254 364.952 72.3809 369.559 Q75.4596 374.142 75.4596 382.892 Q75.4596 391.619 72.3809 396.225 Q69.3254 400.808 63.5152 400.808 Q57.7051 400.808 54.6264 396.225 Q51.5708 391.619 51.5708 382.892 Q51.5708 374.142 54.6264 369.559 Q57.7051 364.952 63.5152 364.952 Z" fill="#000000" fill-rule="evenodd" fill-opacity="1" /><path clip-path="url(#clip980)" d="M83.6771 394.258 L88.5614 394.258 L88.5614 400.137 L83.6771 400.137 L83.6771 394.258 Z" fill="#000000" fill-rule="evenodd" fill-opacity="1" /><path clip-path="url(#clip980)" d="M108.746 383.725 Q105.413 383.725 103.492 385.508 Q101.594 387.29 101.594 390.415 Q101.594 393.54 103.492 395.322 Q105.413 397.105 108.746 397.105 Q112.08 397.105 114.001 395.322 Q115.922 393.517 115.922 390.415 Q115.922 387.29 114.001 385.508 Q112.103 383.725 108.746 383.725 M104.071 381.734 Q101.061 380.994 99.3715 378.934 Q97.7048 376.873 97.7048 373.91 Q97.7048 369.767 100.645 367.36 Q103.608 364.952 108.746 364.952 Q113.908 364.952 116.848 367.36 Q119.788 369.767 119.788 373.91 Q119.788 376.873 118.098 378.934 Q116.432 380.994 113.445 381.734 Q116.825 382.521 118.7 384.813 Q120.598 387.105 120.598 390.415 Q120.598 395.438 117.52 398.123 Q114.464 400.808 108.746 400.808 Q103.029 400.808 99.9502 398.123 Q96.8947 395.438 96.8947 390.415 Q96.8947 387.105 98.7928 384.813 Q100.691 382.521 104.071 381.734 M102.358 374.35 Q102.358 377.035 104.024 378.54 Q105.714 380.045 108.746 380.045 Q111.756 380.045 113.445 378.54 Q115.158 377.035 115.158 374.35 Q115.158 371.665 113.445 370.16 Q111.756 368.656 108.746 368.656 Q105.714 368.656 104.024 370.16 Q102.358 371.665 102.358 374.35 Z" fill="#000000" fill-rule="evenodd" fill-opacity="1" /><path clip-path="url(#clip980)" d="M54.2328 101.319 L61.8717 101.319 L61.8717 74.9538 L53.5616 76.6205 L53.5616 72.3612 L61.8254 70.6946 L66.5013 70.6946 L66.5013 101.319 L74.1402 101.319 L74.1402 105.255 L54.2328 105.255 L54.2328 101.319 Z" fill="#000000" fill-rule="evenodd" fill-opacity="1" /><path clip-path="url(#clip980)" d="M83.5845 99.375 L88.4688 99.375 L88.4688 105.255 L83.5845 105.255 L83.5845 99.375 Z" fill="#000000" fill-rule="evenodd" fill-opacity="1" /><path clip-path="url(#clip980)" d="M108.654 73.7733 Q105.043 73.7733 103.214 77.3381 Q101.409 80.8797 101.409 88.0093 Q101.409 95.1158 103.214 98.6805 Q105.043 102.222 108.654 102.222 Q112.288 102.222 114.094 98.6805 Q115.922 95.1158 115.922 88.0093 Q115.922 80.8797 114.094 77.3381 Q112.288 73.7733 108.654 73.7733 M108.654 70.0696 Q114.464 70.0696 117.52 74.676 Q120.598 79.2594 120.598 88.0093 Q120.598 96.7361 117.52 101.343 Q114.464 105.926 108.654 105.926 Q102.844 105.926 99.765 101.343 Q96.7095 96.7361 96.7095 88.0093 Q96.7095 79.2594 99.765 74.676 Q102.844 70.0696 108.654 70.0696 Z" fill="#000000" fill-rule="evenodd" fill-opacity="1" /><circle clip-path="url(#clip982)" cx="1121.71" cy="364.647" r="14" fill="#009af9" fill-rule="evenodd" fill-opacity="1" stroke="#000000" stroke-opacity="1" stroke-width="3.2"/>
<circle clip-path="url(#clip982)" cx="1839.27" cy="180.497" r="14" fill="#009af9" fill-rule="evenodd" fill-opacity="1" stroke="#000000" stroke-opacity="1" stroke-width="3.2"/>
<circle clip-path="url(#clip982)" cx="2282.36" cy="1091.14" r="14" fill="#009af9" fill-rule="evenodd" fill-opacity="1" stroke="#000000" stroke-opacity="1" stroke-width="3.2"/>
<circle clip-path="url(#clip982)" cx="592.97" cy="689.453" r="14" fill="#009af9" fill-rule="evenodd" fill-opacity="1" stroke="#000000" stroke-opacity="1" stroke-width="3.2"/>
<circle clip-path="url(#clip982)" cx="420.489" cy="1207.97" r="14" fill="#009af9" fill-rule="evenodd" fill-opacity="1" stroke="#000000" stroke-opacity="1" stroke-width="3.2"/>
<circle clip-path="url(#clip982)" cx="1037.43" cy="978.909" r="14" fill="#009af9" fill-rule="evenodd" fill-opacity="1" stroke="#000000" stroke-opacity="1" stroke-width="3.2"/>
<circle clip-path="url(#clip982)" cx="1513.33" cy="528.321" r="14" fill="#009af9" fill-rule="evenodd" fill-opacity="1" stroke="#000000" stroke-opacity="1" stroke-width="3.2"/>
<circle clip-path="url(#clip982)" cx="1240.63" cy="87.9763" r="14" fill="#009af9" fill-rule="evenodd" fill-opacity="1" stroke="#000000" stroke-opacity="1" stroke-width="3.2"/>
<circle clip-path="url(#clip982)" cx="1039.41" cy="1336.46" r="14" fill="#009af9" fill-rule="evenodd" fill-opacity="1" stroke="#000000" stroke-opacity="1" stroke-width="3.2"/>
<circle clip-path="url(#clip982)" cx="1451.84" cy="1019.48" r="14" fill="#009af9" fill-rule="evenodd" fill-opacity="1" stroke="#000000" stroke-opacity="1" stroke-width="3.2"/>
<circle clip-path="url(#clip982)" cx="1694.69" cy="1220.14" r="14" fill="#009af9" fill-rule="evenodd" fill-opacity="1" stroke="#000000" stroke-opacity="1" stroke-width="3.2"/>
<circle clip-path="url(#clip982)" cx="1945.87" cy="1371.7" r="14" fill="#009af9" fill-rule="evenodd" fill-opacity="1" stroke="#000000" stroke-opacity="1" stroke-width="3.2"/>
<circle clip-path="url(#clip982)" cx="479.869" cy="123.35" r="14" fill="#009af9" fill-rule="evenodd" fill-opacity="1" stroke="#000000" stroke-opacity="1" stroke-width="3.2"/>
<circle clip-path="url(#clip982)" cx="454.732" cy="745.881" r="14" fill="#009af9" fill-rule="evenodd" fill-opacity="1" stroke="#000000" stroke-opacity="1" stroke-width="3.2"/>
<circle clip-path="url(#clip982)" cx="1471.57" cy="1022.94" r="14" fill="#009af9" fill-rule="evenodd" fill-opacity="1" stroke="#000000" stroke-opacity="1" stroke-width="3.2"/>
<circle clip-path="url(#clip982)" cx="1276.18" cy="707.619" r="14" fill="#009af9" fill-rule="evenodd" fill-opacity="1" stroke="#000000" stroke-opacity="1" stroke-width="3.2"/>
<circle clip-path="url(#clip982)" cx="1498.15" cy="1124.34" r="14" fill="#009af9" fill-rule="evenodd" fill-opacity="1" stroke="#000000" stroke-opacity="1" stroke-width="3.2"/>
<circle clip-path="url(#clip982)" cx="384.717" cy="1065.73" r="14" fill="#009af9" fill-rule="evenodd" fill-opacity="1" stroke="#000000" stroke-opacity="1" stroke-width="3.2"/>
<circle clip-path="url(#clip982)" cx="614.599" cy="1101.97" r="14" fill="#009af9" fill-rule="evenodd" fill-opacity="1" stroke="#000000" stroke-opacity="1" stroke-width="3.2"/>
<circle clip-path="url(#clip982)" cx="2097.99" cy="599.466" r="14" fill="#009af9" fill-rule="evenodd" fill-opacity="1" stroke="#000000" stroke-opacity="1" stroke-width="3.2"/>
<circle clip-path="url(#clip982)" cx="1191.39" cy="953.893" r="14" fill="#009af9" fill-rule="evenodd" fill-opacity="1" stroke="#000000" stroke-opacity="1" stroke-width="3.2"/>
<circle clip-path="url(#clip982)" cx="1604.63" cy="737.625" r="14" fill="#009af9" fill-rule="evenodd" fill-opacity="1" stroke="#000000" stroke-opacity="1" stroke-width="3.2"/>
<circle clip-path="url(#clip982)" cx="2290.6" cy="91.0692" r="14" fill="#009af9" fill-rule="evenodd" fill-opacity="1" stroke="#000000" stroke-opacity="1" stroke-width="3.2"/>
<circle clip-path="url(#clip982)" cx="1298.41" cy="137.558" r="14" fill="#009af9" fill-rule="evenodd" fill-opacity="1" stroke="#000000" stroke-opacity="1" stroke-width="3.2"/>
<circle clip-path="url(#clip982)" cx="241.826" cy="392.611" r="14" fill="#009af9" fill-rule="evenodd" fill-opacity="1" stroke="#000000" stroke-opacity="1" stroke-width="3.2"/>
<circle clip-path="url(#clip982)" cx="1904.75" cy="479.112" r="14" fill="#009af9" fill-rule="evenodd" fill-opacity="1" stroke="#000000" stroke-opacity="1" stroke-width="3.2"/>
<circle clip-path="url(#clip982)" cx="447.878" cy="1369.83" r="14" fill="#009af9" fill-rule="evenodd" fill-opacity="1" stroke="#000000" stroke-opacity="1" stroke-width="3.2"/>
<circle clip-path="url(#clip982)" cx="518.757" cy="227.676" r="14" fill="#009af9" fill-rule="evenodd" fill-opacity="1" stroke="#000000" stroke-opacity="1" stroke-width="3.2"/>
<circle clip-path="url(#clip982)" cx="727.813" cy="195.122" r="14" fill="#009af9" fill-rule="evenodd" fill-opacity="1" stroke="#000000" stroke-opacity="1" stroke-width="3.2"/>
<circle clip-path="url(#clip982)" cx="2189.02" cy="134.793" r="14" fill="#009af9" fill-rule="evenodd" fill-opacity="1" stroke="#000000" stroke-opacity="1" stroke-width="3.2"/>
<circle clip-path="url(#clip982)" cx="927.237" cy="393.73" r="14" fill="#009af9" fill-rule="evenodd" fill-opacity="1" stroke="#000000" stroke-opacity="1" stroke-width="3.2"/>
<circle clip-path="url(#clip982)" cx="218.754" cy="1239.66" r="14" fill="#009af9" fill-rule="evenodd" fill-opacity="1" stroke="#000000" stroke-opacity="1" stroke-width="3.2"/>
<circle clip-path="url(#clip982)" cx="1252.11" cy="609.535" r="14" fill="#009af9" fill-rule="evenodd" fill-opacity="1" stroke="#000000" stroke-opacity="1" stroke-width="3.2"/>
<circle clip-path="url(#clip982)" cx="1431.94" cy="165.208" r="14" fill="#009af9" fill-rule="evenodd" fill-opacity="1" stroke="#000000" stroke-opacity="1" stroke-width="3.2"/>
<circle clip-path="url(#clip982)" cx="1620.29" cy="802.228" r="14" fill="#009af9" fill-rule="evenodd" fill-opacity="1" stroke="#000000" stroke-opacity="1" stroke-width="3.2"/>
<circle clip-path="url(#clip982)" cx="1873.98" cy="1182.72" r="14" fill="#009af9" fill-rule="evenodd" fill-opacity="1" stroke="#000000" stroke-opacity="1" stroke-width="3.2"/>
<circle clip-path="url(#clip982)" cx="2094.59" cy="1059.76" r="14" fill="#009af9" fill-rule="evenodd" fill-opacity="1" stroke="#000000" stroke-opacity="1" stroke-width="3.2"/>
<circle clip-path="url(#clip982)" cx="2273.89" cy="161.811" r="14" fill="#009af9" fill-rule="evenodd" fill-opacity="1" stroke="#000000" stroke-opacity="1" stroke-width="3.2"/>
<circle clip-path="url(#clip982)" cx="754.047" cy="1354.8" r="14" fill="#009af9" fill-rule="evenodd" fill-opacity="1" stroke="#000000" stroke-opacity="1" stroke-width="3.2"/>
<circle clip-path="url(#clip982)" cx="2279.96" cy="542.333" r="14" fill="#009af9" fill-rule="evenodd" fill-opacity="1" stroke="#000000" stroke-opacity="1" stroke-width="3.2"/>
<circle clip-path="url(#clip982)" cx="1083.88" cy="1084.14" r="14" fill="#009af9" fill-rule="evenodd" fill-opacity="1" stroke="#000000" stroke-opacity="1" stroke-width="3.2"/>
<circle clip-path="url(#clip982)" cx="1843.87" cy="1284.25" r="14" fill="#009af9" fill-rule="evenodd" fill-opacity="1" stroke="#000000" stroke-opacity="1" stroke-width="3.2"/>
<circle clip-path="url(#clip982)" cx="806.363" cy="931.534" r="14" fill="#009af9" fill-rule="evenodd" fill-opacity="1" stroke="#000000" stroke-opacity="1" stroke-width="3.2"/>
<circle clip-path="url(#clip982)" cx="914.013" cy="1188.45" r="14" fill="#009af9" fill-rule="evenodd" fill-opacity="1" stroke="#000000" stroke-opacity="1" stroke-width="3.2"/>
<circle clip-path="url(#clip982)" cx="1224.66" cy="1335.61" r="14" fill="#009af9" fill-rule="evenodd" fill-opacity="1" stroke="#000000" stroke-opacity="1" stroke-width="3.2"/>
<circle clip-path="url(#clip982)" cx="1131.91" cy="364.745" r="14" fill="#009af9" fill-rule="evenodd" fill-opacity="1" stroke="#000000" stroke-opacity="1" stroke-width="3.2"/>
<circle clip-path="url(#clip982)" cx="1505.44" cy="452.213" r="14" fill="#009af9" fill-rule="evenodd" fill-opacity="1" stroke="#000000" stroke-opacity="1" stroke-width="3.2"/>
<circle clip-path="url(#clip982)" cx="1834.94" cy="751.967" r="14" fill="#009af9" fill-rule="evenodd" fill-opacity="1" stroke="#000000" stroke-opacity="1" stroke-width="3.2"/>
<circle clip-path="url(#clip982)" cx="1736.97" cy="1288.72" r="14" fill="#009af9" fill-rule="evenodd" fill-opacity="1" stroke="#000000" stroke-opacity="1" stroke-width="3.2"/>
<circle clip-path="url(#clip982)" cx="979.009" cy="697.07" r="14" fill="#009af9" fill-rule="evenodd" fill-opacity="1" stroke="#000000" stroke-opacity="1" stroke-width="3.2"/>
<circle clip-path="url(#clip982)" cx="1052.94" cy="1057.26" r="14" fill="#009af9" fill-rule="evenodd" fill-opacity="1" stroke="#000000" stroke-opacity="1" stroke-width="3.2"/>
<circle clip-path="url(#clip982)" cx="388.442" cy="1027.73" r="14" fill="#009af9" fill-rule="evenodd" fill-opacity="1" stroke="#000000" stroke-opacity="1" stroke-width="3.2"/>
<circle clip-path="url(#clip982)" cx="246.273" cy="122.837" r="14" fill="#009af9" fill-rule="evenodd" fill-opacity="1" stroke="#000000" stroke-opacity="1" stroke-width="3.2"/>
<circle clip-path="url(#clip982)" cx="1644.08" cy="645.5" r="14" fill="#009af9" fill-rule="evenodd" fill-opacity="1" stroke="#000000" stroke-opacity="1" stroke-width="3.2"/>
<circle clip-path="url(#clip982)" cx="306.676" cy="889.401" r="14" fill="#009af9" fill-rule="evenodd" fill-opacity="1" stroke="#000000" stroke-opacity="1" stroke-width="3.2"/>
<circle clip-path="url(#clip982)" cx="728.826" cy="1348.64" r="14" fill="#009af9" fill-rule="evenodd" fill-opacity="1" stroke="#000000" stroke-opacity="1" stroke-width="3.2"/>
<circle clip-path="url(#clip982)" cx="435.834" cy="1113.36" r="14" fill="#009af9" fill-rule="evenodd" fill-opacity="1" stroke="#000000" stroke-opacity="1" stroke-width="3.2"/>
<circle clip-path="url(#clip982)" cx="659.157" cy="945.463" r="14" fill="#009af9" fill-rule="evenodd" fill-opacity="1" stroke="#000000" stroke-opacity="1" stroke-width="3.2"/>
<circle clip-path="url(#clip982)" cx="834.626" cy="612.32" r="14" fill="#009af9" fill-rule="evenodd" fill-opacity="1" stroke="#000000" stroke-opacity="1" stroke-width="3.2"/>
<circle clip-path="url(#clip982)" cx="986.908" cy="1002.04" r="14" fill="#009af9" fill-rule="evenodd" fill-opacity="1" stroke="#000000" stroke-opacity="1" stroke-width="3.2"/>
<circle clip-path="url(#clip982)" cx="758.74" cy="1116.11" r="14" fill="#009af9" fill-rule="evenodd" fill-opacity="1" stroke="#000000" stroke-opacity="1" stroke-width="3.2"/>
<circle clip-path="url(#clip982)" cx="380.863" cy="425.715" r="14" fill="#009af9" fill-rule="evenodd" fill-opacity="1" stroke="#000000" stroke-opacity="1" stroke-width="3.2"/>
<circle clip-path="url(#clip982)" cx="1287.07" cy="1413.29" r="14" fill="#009af9" fill-rule="evenodd" fill-opacity="1" stroke="#000000" stroke-opacity="1" stroke-width="3.2"/>
<circle clip-path="url(#clip982)" cx="930.623" cy="1421.3" r="14" fill="#009af9" fill-rule="evenodd" fill-opacity="1" stroke="#000000" stroke-opacity="1" stroke-width="3.2"/>
<circle clip-path="url(#clip982)" cx="1778.16" cy="1367.1" r="14" fill="#009af9" fill-rule="evenodd" fill-opacity="1" stroke="#000000" stroke-opacity="1" stroke-width="3.2"/>
<circle clip-path="url(#clip982)" cx="960.174" cy="683.078" r="14" fill="#009af9" fill-rule="evenodd" fill-opacity="1" stroke="#000000" stroke-opacity="1" stroke-width="3.2"/>
<circle clip-path="url(#clip982)" cx="1118.86" cy="171.865" r="14" fill="#009af9" fill-rule="evenodd" fill-opacity="1" stroke="#000000" stroke-opacity="1" stroke-width="3.2"/>
<circle clip-path="url(#clip982)" cx="655.77" cy="1017.49" r="14" fill="#009af9" fill-rule="evenodd" fill-opacity="1" stroke="#000000" stroke-opacity="1" stroke-width="3.2"/>
<circle clip-path="url(#clip982)" cx="724.043" cy="528.553" r="14" fill="#009af9" fill-rule="evenodd" fill-opacity="1" stroke="#000000" stroke-opacity="1" stroke-width="3.2"/>
<circle clip-path="url(#clip982)" cx="396.36" cy="370.486" r="14" fill="#009af9" fill-rule="evenodd" fill-opacity="1" stroke="#000000" stroke-opacity="1" stroke-width="3.2"/>
<circle clip-path="url(#clip982)" cx="676.498" cy="318.748" r="14" fill="#009af9" fill-rule="evenodd" fill-opacity="1" stroke="#000000" stroke-opacity="1" stroke-width="3.2"/>
<circle clip-path="url(#clip982)" cx="1878.16" cy="1076.62" r="14" fill="#009af9" fill-rule="evenodd" fill-opacity="1" stroke="#000000" stroke-opacity="1" stroke-width="3.2"/>
<circle clip-path="url(#clip982)" cx="1775.23" cy="1179.39" r="14" fill="#009af9" fill-rule="evenodd" fill-opacity="1" stroke="#000000" stroke-opacity="1" stroke-width="3.2"/>
<circle clip-path="url(#clip982)" cx="1224.99" cy="338.284" r="14" fill="#009af9" fill-rule="evenodd" fill-opacity="1" stroke="#000000" stroke-opacity="1" stroke-width="3.2"/>
<circle clip-path="url(#clip982)" cx="347.309" cy="334.088" r="14" fill="#009af9" fill-rule="evenodd" fill-opacity="1" stroke="#000000" stroke-opacity="1" stroke-width="3.2"/>
<circle clip-path="url(#clip982)" cx="1717.02" cy="1328.9" r="14" fill="#009af9" fill-rule="evenodd" fill-opacity="1" stroke="#000000" stroke-opacity="1" stroke-width="3.2"/>
<circle clip-path="url(#clip982)" cx="583.15" cy="567.771" r="14" fill="#009af9" fill-rule="evenodd" fill-opacity="1" stroke="#000000" stroke-opacity="1" stroke-width="3.2"/>
<circle clip-path="url(#clip982)" cx="1579.18" cy="896.543" r="14" fill="#009af9" fill-rule="evenodd" fill-opacity="1" stroke="#000000" stroke-opacity="1" stroke-width="3.2"/>
<circle clip-path="url(#clip982)" cx="2176.81" cy="147.535" r="14" fill="#009af9" fill-rule="evenodd" fill-opacity="1" stroke="#000000" stroke-opacity="1" stroke-width="3.2"/>
<circle clip-path="url(#clip982)" cx="797.513" cy="895.951" r="14" fill="#009af9" fill-rule="evenodd" fill-opacity="1" stroke="#000000" stroke-opacity="1" stroke-width="3.2"/>
<circle clip-path="url(#clip982)" cx="785.711" cy="1160.99" r="14" fill="#009af9" fill-rule="evenodd" fill-opacity="1" stroke="#000000" stroke-opacity="1" stroke-width="3.2"/>
<circle clip-path="url(#clip982)" cx="2008.6" cy="1418.75" r="14" fill="#009af9" fill-rule="evenodd" fill-opacity="1" stroke="#000000" stroke-opacity="1" stroke-width="3.2"/>
<circle clip-path="url(#clip982)" cx="1412.37" cy="839.102" r="14" fill="#009af9" fill-rule="evenodd" fill-opacity="1" stroke="#000000" stroke-opacity="1" stroke-width="3.2"/>
<circle clip-path="url(#clip982)" cx="1080.22" cy="1148.76" r="14" fill="#009af9" fill-rule="evenodd" fill-opacity="1" stroke="#000000" stroke-opacity="1" stroke-width="3.2"/>
<circle clip-path="url(#clip982)" cx="1899.82" cy="563.457" r="14" fill="#009af9" fill-rule="evenodd" fill-opacity="1" stroke="#000000" stroke-opacity="1" stroke-width="3.2"/>
<circle clip-path="url(#clip982)" cx="1796.33" cy="1445.72" r="14" fill="#009af9" fill-rule="evenodd" fill-opacity="1" stroke="#000000" stroke-opacity="1" stroke-width="3.2"/>
<circle clip-path="url(#clip982)" cx="395.589" cy="528.767" r="14" fill="#009af9" fill-rule="evenodd" fill-opacity="1" stroke="#000000" stroke-opacity="1" stroke-width="3.2"/>
<circle clip-path="url(#clip982)" cx="1705.56" cy="583.265" r="14" fill="#009af9" fill-rule="evenodd" fill-opacity="1" stroke="#000000" stroke-opacity="1" stroke-width="3.2"/>
<circle clip-path="url(#clip982)" cx="1873.1" cy="901.506" r="14" fill="#009af9" fill-rule="evenodd" fill-opacity="1" stroke="#000000" stroke-opacity="1" stroke-width="3.2"/>
<circle clip-path="url(#clip982)" cx="1033.71" cy="1419.56" r="14" fill="#009af9" fill-rule="evenodd" fill-opacity="1" stroke="#000000" stroke-opacity="1" stroke-width="3.2"/>
<circle clip-path="url(#clip982)" cx="1727.2" cy="242.951" r="14" fill="#009af9" fill-rule="evenodd" fill-opacity="1" stroke="#000000" stroke-opacity="1" stroke-width="3.2"/>
<circle clip-path="url(#clip982)" cx="455.57" cy="515.621" r="14" fill="#009af9" fill-rule="evenodd" fill-opacity="1" stroke="#000000" stroke-opacity="1" stroke-width="3.2"/>
<circle clip-path="url(#clip982)" cx="254.975" cy="600.675" r="14" fill="#009af9" fill-rule="evenodd" fill-opacity="1" stroke="#000000" stroke-opacity="1" stroke-width="3.2"/>
<circle clip-path="url(#clip982)" cx="1929.49" cy="972.544" r="14" fill="#009af9" fill-rule="evenodd" fill-opacity="1" stroke="#000000" stroke-opacity="1" stroke-width="3.2"/>
<circle clip-path="url(#clip982)" cx="2130.35" cy="750.999" r="14" fill="#009af9" fill-rule="evenodd" fill-opacity="1" stroke="#000000" stroke-opacity="1" stroke-width="3.2"/>
<circle clip-path="url(#clip982)" cx="1968.28" cy="1302.05" r="14" fill="#009af9" fill-rule="evenodd" fill-opacity="1" stroke="#000000" stroke-opacity="1" stroke-width="3.2"/>
<circle clip-path="url(#clip982)" cx="700.12" cy="490.003" r="14" fill="#009af9" fill-rule="evenodd" fill-opacity="1" stroke="#000000" stroke-opacity="1" stroke-width="3.2"/>
<circle clip-path="url(#clip982)" cx="1898.32" cy="1319.08" r="14" fill="#009af9" fill-rule="evenodd" fill-opacity="1" stroke="#000000" stroke-opacity="1" stroke-width="3.2"/>
<circle clip-path="url(#clip982)" cx="1979.85" cy="824.956" r="14" fill="#009af9" fill-rule="evenodd" fill-opacity="1" stroke="#000000" stroke-opacity="1" stroke-width="3.2"/>
<circle clip-path="url(#clip982)" cx="1728.82" cy="1354.48" r="14" fill="#009af9" fill-rule="evenodd" fill-opacity="1" stroke="#000000" stroke-opacity="1" stroke-width="3.2"/>
<path clip-path="url(#clip980)" d="
M1983.1 198.898 L2279.55 198.898 L2279.55 95.2176 L1983.1 95.2176  Z
  " fill="#ffffff" fill-rule="evenodd" fill-opacity="1"/>
<polyline clip-path="url(#clip980)" style="stroke:#000000; stroke-linecap:butt; stroke-linejoin:round; stroke-width:4; stroke-opacity:1; fill:none" points="
  1983.1,198.898 2279.55,198.898 2279.55,95.2176 1983.1,95.2176 1983.1,198.898 
  "/>
<circle clip-path="url(#clip980)" cx="2080.71" cy="147.058" r="23" fill="#009af9" fill-rule="evenodd" fill-opacity="1" stroke="#000000" stroke-opacity="1" stroke-width="5.12"/>
<path clip-path="url(#clip980)" d="M2192.16 166.745 Q2190.35 171.375 2188.64 172.787 Q2186.93 174.199 2184.06 174.199 L2180.65 174.199 L2180.65 170.634 L2183.15 170.634 Q2184.91 170.634 2185.89 169.8 Q2186.86 168.967 2188.04 165.865 L2188.8 163.921 L2178.32 138.412 L2182.83 138.412 L2190.93 158.689 L2199.03 138.412 L2203.55 138.412 L2192.16 166.745 Z" fill="#000000" fill-rule="evenodd" fill-opacity="1" /><path clip-path="url(#clip980)" d="M2210.84 160.402 L2218.48 160.402 L2218.48 134.037 L2210.17 135.703 L2210.17 131.444 L2218.43 129.778 L2223.11 129.778 L2223.11 160.402 L2230.75 160.402 L2230.75 164.338 L2210.84 164.338 L2210.84 160.402 Z" fill="#000000" fill-rule="evenodd" fill-opacity="1" /></svg>
