<?xml version="1.0" encoding="utf-8"?>
<svg xmlns="http://www.w3.org/2000/svg" xmlns:xlink="http://www.w3.org/1999/xlink" width="600" height="400" viewBox="0 0 2400 1600">
<defs>
  <clipPath id="clip300">
    <rect x="0" y="0" width="2400" height="1600"/>
  </clipPath>
</defs>
<path clip-path="url(#clip300)" d="
M0 1600 L2400 1600 L2400 0 L0 0  Z
  " fill="#ffffff" fill-rule="evenodd" fill-opacity="1"/>
<defs>
  <clipPath id="clip301">
    <rect x="480" y="0" width="1681" height="1600"/>
  </clipPath>
</defs>
<path clip-path="url(#clip300)" d="
M169.121 1486.45 L2352.76 1486.45 L2352.76 47.2441 L169.121 47.2441  Z
  " fill="#ffffff" fill-rule="evenodd" fill-opacity="1"/>
<defs>
  <clipPath id="clip302">
    <rect x="169" y="47" width="2185" height="1440"/>
  </clipPath>
</defs>
<polyline clip-path="url(#clip302)" style="stroke:#000000; stroke-linecap:butt; stroke-linejoin:round; stroke-width:2; stroke-opacity:0.1; fill:none" points="
  210.322,1486.45 210.322,47.2441 
  "/>
<polyline clip-path="url(#clip302)" style="stroke:#000000; stroke-linecap:butt; stroke-linejoin:round; stroke-width:2; stroke-opacity:0.1; fill:none" points="
  725.33,1486.45 725.33,47.2441 
  "/>
<polyline clip-path="url(#clip302)" style="stroke:#000000; stroke-linecap:butt; stroke-linejoin:round; stroke-width:2; stroke-opacity:0.1; fill:none" points="
  1240.34,1486.45 1240.34,47.2441 
  "/>
<polyline clip-path="url(#clip302)" style="stroke:#000000; stroke-linecap:butt; stroke-linejoin:round; stroke-width:2; stroke-opacity:0.1; fill:none" points="
  1755.35,1486.45 1755.35,47.2441 
  "/>
<polyline clip-path="url(#clip302)" style="stroke:#000000; stroke-linecap:butt; stroke-linejoin:round; stroke-width:2; stroke-opacity:0.1; fill:none" points="
  2270.35,1486.45 2270.35,47.2441 
  "/>
<polyline clip-path="url(#clip300)" style="stroke:#000000; stroke-linecap:butt; stroke-linejoin:round; stroke-width:4; stroke-opacity:1; fill:none" points="
  169.121,1486.45 2352.76,1486.45 
  "/>
<polyline clip-path="url(#clip300)" style="stroke:#000000; stroke-linecap:butt; stroke-linejoin:round; stroke-width:4; stroke-opacity:1; fill:none" points="
  210.322,1486.45 210.322,1467.55 
  "/>
<polyline clip-path="url(#clip300)" style="stroke:#000000; stroke-linecap:butt; stroke-linejoin:round; stroke-width:4; stroke-opacity:1; fill:none" points="
  725.33,1486.45 725.33,1467.55 
  "/>
<polyline clip-path="url(#clip300)" style="stroke:#000000; stroke-linecap:butt; stroke-linejoin:round; stroke-width:4; stroke-opacity:1; fill:none" points="
  1240.34,1486.45 1240.34,1467.55 
  "/>
<polyline clip-path="url(#clip300)" style="stroke:#000000; stroke-linecap:butt; stroke-linejoin:round; stroke-width:4; stroke-opacity:1; fill:none" points="
  1755.35,1486.45 1755.35,1467.55 
  "/>
<polyline clip-path="url(#clip300)" style="stroke:#000000; stroke-linecap:butt; stroke-linejoin:round; stroke-width:4; stroke-opacity:1; fill:none" points="
  2270.35,1486.45 2270.35,1467.55 
  "/>
<path clip-path="url(#clip300)" d="M210.322 1517.37 Q206.711 1517.37 204.882 1520.93 Q203.077 1524.47 203.077 1531.6 Q203.077 1538.71 204.882 1542.27 Q206.711 1545.82 210.322 1545.82 Q213.956 1545.82 215.762 1542.27 Q217.59 1538.71 217.59 1531.6 Q217.59 1524.47 215.762 1520.93 Q213.956 1517.37 210.322 1517.37 M210.322 1513.66 Q216.132 1513.66 219.188 1518.27 Q222.266 1522.85 222.266 1531.6 Q222.266 1540.33 219.188 1544.94 Q216.132 1549.52 210.322 1549.52 Q204.512 1549.52 201.433 1544.94 Q198.378 1540.33 198.378 1531.6 Q198.378 1522.85 201.433 1518.27 Q204.512 1513.66 210.322 1513.66 Z" fill="#000000" fill-rule="evenodd" fill-opacity="1" /><path clip-path="url(#clip300)" d="M704.601 1544.91 L720.92 1544.91 L720.92 1548.85 L698.976 1548.85 L698.976 1544.91 Q701.638 1542.16 706.221 1537.53 Q710.828 1532.88 712.008 1531.53 Q714.254 1529.01 715.133 1527.27 Q716.036 1525.51 716.036 1523.82 Q716.036 1521.07 714.092 1519.33 Q712.17 1517.6 709.069 1517.6 Q706.87 1517.6 704.416 1518.36 Q701.985 1519.13 699.208 1520.68 L699.208 1515.95 Q702.032 1514.82 704.485 1514.24 Q706.939 1513.66 708.976 1513.66 Q714.346 1513.66 717.541 1516.35 Q720.735 1519.03 720.735 1523.52 Q720.735 1525.65 719.925 1527.57 Q719.138 1529.47 717.032 1532.07 Q716.453 1532.74 713.351 1535.95 Q710.249 1539.15 704.601 1544.91 Z" fill="#000000" fill-rule="evenodd" fill-opacity="1" /><path clip-path="url(#clip300)" d="M730.781 1514.29 L749.138 1514.29 L749.138 1518.22 L735.064 1518.22 L735.064 1526.7 Q736.082 1526.35 737.101 1526.19 Q738.119 1526 739.138 1526 Q744.925 1526 748.305 1529.17 Q751.684 1532.34 751.684 1537.76 Q751.684 1543.34 748.212 1546.44 Q744.74 1549.52 738.42 1549.52 Q736.244 1549.52 733.976 1549.15 Q731.731 1548.78 729.323 1548.04 L729.323 1543.34 Q731.406 1544.47 733.629 1545.03 Q735.851 1545.58 738.328 1545.58 Q742.332 1545.58 744.67 1543.48 Q747.008 1541.37 747.008 1537.76 Q747.008 1534.15 744.67 1532.04 Q742.332 1529.94 738.328 1529.94 Q736.453 1529.94 734.578 1530.35 Q732.726 1530.77 730.781 1531.65 L730.781 1514.29 Z" fill="#000000" fill-rule="evenodd" fill-opacity="1" /><path clip-path="url(#clip300)" d="M1215.04 1514.29 L1233.39 1514.29 L1233.39 1518.22 L1219.32 1518.22 L1219.32 1526.7 Q1220.34 1526.35 1221.36 1526.19 Q1222.38 1526 1223.39 1526 Q1229.18 1526 1232.56 1529.17 Q1235.94 1532.34 1235.94 1537.76 Q1235.94 1543.34 1232.47 1546.44 Q1229 1549.52 1222.68 1549.52 Q1220.5 1549.52 1218.23 1549.15 Q1215.99 1548.78 1213.58 1548.04 L1213.58 1543.34 Q1215.66 1544.47 1217.88 1545.03 Q1220.11 1545.58 1222.58 1545.58 Q1226.59 1545.58 1228.93 1543.48 Q1231.26 1541.37 1231.26 1537.76 Q1231.26 1534.15 1228.93 1532.04 Q1226.59 1529.94 1222.58 1529.94 Q1220.71 1529.94 1218.83 1530.35 Q1216.98 1530.77 1215.04 1531.65 L1215.04 1514.29 Z" fill="#000000" fill-rule="evenodd" fill-opacity="1" /><path clip-path="url(#clip300)" d="M1255.15 1517.37 Q1251.54 1517.37 1249.71 1520.93 Q1247.91 1524.47 1247.91 1531.6 Q1247.91 1538.71 1249.71 1542.27 Q1251.54 1545.82 1255.15 1545.82 Q1258.79 1545.82 1260.59 1542.27 Q1262.42 1538.71 1262.42 1531.6 Q1262.42 1524.47 1260.59 1520.93 Q1258.79 1517.37 1255.15 1517.37 M1255.15 1513.66 Q1260.96 1513.66 1264.02 1518.27 Q1267.1 1522.85 1267.1 1531.6 Q1267.1 1540.33 1264.02 1544.94 Q1260.96 1549.52 1255.15 1549.52 Q1249.34 1549.52 1246.26 1544.94 Q1243.21 1540.33 1243.21 1531.6 Q1243.21 1522.85 1246.26 1518.27 Q1249.34 1513.66 1255.15 1513.66 Z" fill="#000000" fill-rule="evenodd" fill-opacity="1" /><path clip-path="url(#clip300)" d="M1729.2 1514.29 L1751.42 1514.29 L1751.42 1516.28 L1738.88 1548.85 L1733.99 1548.85 L1745.8 1518.22 L1729.2 1518.22 L1729.2 1514.29 Z" fill="#000000" fill-rule="evenodd" fill-opacity="1" /><path clip-path="url(#clip300)" d="M1760.59 1514.29 L1778.95 1514.29 L1778.95 1518.22 L1764.87 1518.22 L1764.87 1526.7 Q1765.89 1526.35 1766.91 1526.19 Q1767.93 1526 1768.95 1526 Q1774.73 1526 1778.11 1529.17 Q1781.49 1532.34 1781.49 1537.76 Q1781.49 1543.34 1778.02 1546.44 Q1774.55 1549.52 1768.23 1549.52 Q1766.05 1549.52 1763.78 1549.15 Q1761.54 1548.78 1759.13 1548.04 L1759.13 1543.34 Q1761.21 1544.47 1763.44 1545.03 Q1765.66 1545.58 1768.14 1545.58 Q1772.14 1545.58 1774.48 1543.48 Q1776.82 1541.37 1776.82 1537.76 Q1776.82 1534.15 1774.48 1532.04 Q1772.14 1529.94 1768.14 1529.94 Q1766.26 1529.94 1764.39 1530.35 Q1762.53 1530.77 1760.59 1531.65 L1760.59 1514.29 Z" fill="#000000" fill-rule="evenodd" fill-opacity="1" /><path clip-path="url(#clip300)" d="M2229.96 1544.91 L2237.6 1544.91 L2237.6 1518.55 L2229.29 1520.21 L2229.29 1515.95 L2237.55 1514.29 L2242.23 1514.29 L2242.23 1544.91 L2249.87 1544.91 L2249.87 1548.85 L2229.96 1548.85 L2229.96 1544.91 Z" fill="#000000" fill-rule="evenodd" fill-opacity="1" /><path clip-path="url(#clip300)" d="M2269.31 1517.37 Q2265.7 1517.37 2263.87 1520.93 Q2262.07 1524.47 2262.07 1531.6 Q2262.07 1538.71 2263.87 1542.27 Q2265.7 1545.82 2269.31 1545.82 Q2272.95 1545.82 2274.75 1542.27 Q2276.58 1538.71 2276.58 1531.6 Q2276.58 1524.47 2274.75 1520.93 Q2272.95 1517.37 2269.31 1517.37 M2269.31 1513.66 Q2275.12 1513.66 2278.18 1518.27 Q2281.26 1522.85 2281.26 1531.6 Q2281.26 1540.33 2278.18 1544.94 Q2275.12 1549.52 2269.31 1549.52 Q2263.5 1549.52 2260.42 1544.94 Q2257.37 1540.33 2257.37 1531.6 Q2257.37 1522.85 2260.42 1518.27 Q2263.5 1513.66 2269.31 1513.66 Z" fill="#000000" fill-rule="evenodd" fill-opacity="1" /><path clip-path="url(#clip300)" d="M2299.47 1517.37 Q2295.86 1517.37 2294.04 1520.93 Q2292.23 1524.47 2292.23 1531.6 Q2292.23 1538.71 2294.04 1542.27 Q2295.86 1545.82 2299.47 1545.82 Q2303.11 1545.82 2304.91 1542.27 Q2306.74 1538.71 2306.74 1531.6 Q2306.74 1524.47 2304.91 1520.93 Q2303.11 1517.37 2299.47 1517.37 M2299.47 1513.66 Q2305.28 1513.66 2308.34 1518.27 Q2311.42 1522.85 2311.42 1531.6 Q2311.42 1540.33 2308.34 1544.94 Q2305.28 1549.52 2299.47 1549.52 Q2293.66 1549.52 2290.59 1544.94 Q2287.53 1540.33 2287.53 1531.6 Q2287.53 1522.85 2290.59 1518.27 Q2293.66 1513.66 2299.47 1513.66 Z" fill="#000000" fill-rule="evenodd" fill-opacity="1" /><polyline clip-path="url(#clip302)" style="stroke:#000000; stroke-linecap:butt; stroke-linejoin:round; stroke-width:2; stroke-opacity:0.1; fill:none" points="
  169.121,1445.72 2352.76,1445.72 
  "/>
<polyline clip-path="url(#clip302)" style="stroke:#000000; stroke-linecap:butt; stroke-linejoin:round; stroke-width:2; stroke-opacity:0.1; fill:none" points="
  169.121,1102.85 2352.76,1102.85 
  "/>
<polyline clip-path="url(#clip302)" style="stroke:#000000; stroke-linecap:butt; stroke-linejoin:round; stroke-width:2; stroke-opacity:0.1; fill:none" points="
  169.121,759.989 2352.76,759.989 
  "/>
<polyline clip-path="url(#clip302)" style="stroke:#000000; stroke-linecap:butt; stroke-linejoin:round; stroke-width:2; stroke-opacity:0.1; fill:none" points="
  169.121,417.125 2352.76,417.125 
  "/>
<polyline clip-path="url(#clip302)" style="stroke:#000000; stroke-linecap:butt; stroke-linejoin:round; stroke-width:2; stroke-opacity:0.1; fill:none" points="
  169.121,74.2617 2352.76,74.2617 
  "/>
<polyline clip-path="url(#clip300)" style="stroke:#000000; stroke-linecap:butt; stroke-linejoin:round; stroke-width:4; stroke-opacity:1; fill:none" points="
  169.121,1486.45 169.121,47.2441 
  "/>
<polyline clip-path="url(#clip300)" style="stroke:#000000; stroke-linecap:butt; stroke-linejoin:round; stroke-width:4; stroke-opacity:1; fill:none" points="
  169.121,1445.72 188.019,1445.72 
  "/>
<polyline clip-path="url(#clip300)" style="stroke:#000000; stroke-linecap:butt; stroke-linejoin:round; stroke-width:4; stroke-opacity:1; fill:none" points="
  169.121,1102.85 188.019,1102.85 
  "/>
<polyline clip-path="url(#clip300)" style="stroke:#000000; stroke-linecap:butt; stroke-linejoin:round; stroke-width:4; stroke-opacity:1; fill:none" points="
  169.121,759.989 188.019,759.989 
  "/>
<polyline clip-path="url(#clip300)" style="stroke:#000000; stroke-linecap:butt; stroke-linejoin:round; stroke-width:4; stroke-opacity:1; fill:none" points="
  169.121,417.125 188.019,417.125 
  "/>
<polyline clip-path="url(#clip300)" style="stroke:#000000; stroke-linecap:butt; stroke-linejoin:round; stroke-width:4; stroke-opacity:1; fill:none" points="
  169.121,74.2617 188.019,74.2617 
  "/>
<path clip-path="url(#clip300)" d="M121.177 1431.51 Q117.566 1431.51 115.737 1435.08 Q113.932 1438.62 113.932 1445.75 Q113.932 1452.86 115.737 1456.42 Q117.566 1459.96 121.177 1459.96 Q124.811 1459.96 126.617 1456.42 Q128.445 1452.86 128.445 1445.75 Q128.445 1438.62 126.617 1435.08 Q124.811 1431.51 121.177 1431.51 M121.177 1427.81 Q126.987 1427.81 130.043 1432.42 Q133.121 1437 133.121 1445.75 Q133.121 1454.48 130.043 1459.08 Q126.987 1463.67 121.177 1463.67 Q115.367 1463.67 112.288 1459.08 Q109.233 1454.48 109.233 1445.75 Q109.233 1437 112.288 1432.42 Q115.367 1427.81 121.177 1427.81 Z" fill="#000000" fill-rule="evenodd" fill-opacity="1" /><path clip-path="url(#clip300)" d="M86.0382 1116.2 L102.358 1116.2 L102.358 1120.13 L80.4133 1120.13 L80.4133 1116.2 Q83.0753 1113.44 87.6586 1108.81 Q92.2651 1104.16 93.4456 1102.82 Q95.691 1100.29 96.5706 1098.56 Q97.4734 1096.8 97.4734 1095.11 Q97.4734 1092.35 95.5289 1090.62 Q93.6076 1088.88 90.5058 1088.88 Q88.3067 1088.88 85.8531 1089.65 Q83.4225 1090.41 80.6447 1091.96 L80.6447 1087.24 Q83.4688 1086.1 85.9225 1085.53 Q88.3762 1084.95 90.4132 1084.95 Q95.7836 1084.95 98.978 1087.63 Q102.172 1090.32 102.172 1094.81 Q102.172 1096.94 101.362 1098.86 Q100.575 1100.76 98.4687 1103.35 Q97.89 1104.02 94.7882 1107.24 Q91.6864 1110.43 86.0382 1116.2 Z" fill="#000000" fill-rule="evenodd" fill-opacity="1" /><path clip-path="url(#clip300)" d="M112.219 1085.57 L130.575 1085.57 L130.575 1089.51 L116.501 1089.51 L116.501 1097.98 Q117.52 1097.63 118.538 1097.47 Q119.557 1097.29 120.575 1097.29 Q126.362 1097.29 129.742 1100.46 Q133.121 1103.63 133.121 1109.04 Q133.121 1114.62 129.649 1117.72 Q126.177 1120.8 119.857 1120.8 Q117.682 1120.8 115.413 1120.43 Q113.168 1120.06 110.76 1119.32 L110.76 1114.62 Q112.844 1115.76 115.066 1116.31 Q117.288 1116.87 119.765 1116.87 Q123.77 1116.87 126.107 1114.76 Q128.445 1112.66 128.445 1109.04 Q128.445 1105.43 126.107 1103.33 Q123.77 1101.22 119.765 1101.22 Q117.89 1101.22 116.015 1101.64 Q114.163 1102.05 112.219 1102.93 L112.219 1085.57 Z" fill="#000000" fill-rule="evenodd" fill-opacity="1" /><path clip-path="url(#clip300)" d="M81.0614 742.709 L99.4178 742.709 L99.4178 746.644 L85.3438 746.644 L85.3438 755.116 Q86.3623 754.769 87.3808 754.607 Q88.3993 754.422 89.4178 754.422 Q95.2049 754.422 98.5845 757.593 Q101.964 760.764 101.964 766.181 Q101.964 771.759 98.4919 774.861 Q95.0197 777.94 88.7003 777.94 Q86.5243 777.94 84.2558 777.57 Q82.0105 777.199 79.6031 776.459 L79.6031 771.759 Q81.6864 772.894 83.9086 773.449 Q86.1308 774.005 88.6077 774.005 Q92.6123 774.005 94.9502 771.898 Q97.2882 769.792 97.2882 766.181 Q97.2882 762.57 94.9502 760.463 Q92.6123 758.357 88.6077 758.357 Q86.7327 758.357 84.8577 758.773 Q83.0058 759.19 81.0614 760.07 L81.0614 742.709 Z" fill="#000000" fill-rule="evenodd" fill-opacity="1" /><path clip-path="url(#clip300)" d="M121.177 745.787 Q117.566 745.787 115.737 749.352 Q113.932 752.894 113.932 760.023 Q113.932 767.13 115.737 770.695 Q117.566 774.236 121.177 774.236 Q124.811 774.236 126.617 770.695 Q128.445 767.13 128.445 760.023 Q128.445 752.894 126.617 749.352 Q124.811 745.787 121.177 745.787 M121.177 742.084 Q126.987 742.084 130.043 746.69 Q133.121 751.273 133.121 760.023 Q133.121 768.75 130.043 773.357 Q126.987 777.94 121.177 777.94 Q115.367 777.94 112.288 773.357 Q109.233 768.75 109.233 760.023 Q109.233 751.273 112.288 746.69 Q115.367 742.084 121.177 742.084 Z" fill="#000000" fill-rule="evenodd" fill-opacity="1" /><path clip-path="url(#clip300)" d="M80.8299 399.845 L103.052 399.845 L103.052 401.836 L90.5058 434.405 L85.6216 434.405 L97.4271 403.78 L80.8299 403.78 L80.8299 399.845 Z" fill="#000000" fill-rule="evenodd" fill-opacity="1" /><path clip-path="url(#clip300)" d="M112.219 399.845 L130.575 399.845 L130.575 403.78 L116.501 403.78 L116.501 412.253 Q117.52 411.905 118.538 411.743 Q119.557 411.558 120.575 411.558 Q126.362 411.558 129.742 414.729 Q133.121 417.901 133.121 423.317 Q133.121 428.896 129.649 431.998 Q126.177 435.077 119.857 435.077 Q117.682 435.077 115.413 434.706 Q113.168 434.336 110.76 433.595 L110.76 428.896 Q112.844 430.03 115.066 430.586 Q117.288 431.141 119.765 431.141 Q123.77 431.141 126.107 429.035 Q128.445 426.928 128.445 423.317 Q128.445 419.706 126.107 417.6 Q123.77 415.493 119.765 415.493 Q117.89 415.493 116.015 415.91 Q114.163 416.327 112.219 417.206 L112.219 399.845 Z" fill="#000000" fill-rule="evenodd" fill-opacity="1" /><path clip-path="url(#clip300)" d="M51.6634 87.6066 L59.3023 87.6066 L59.3023 61.241 L50.9921 62.9076 L50.9921 58.6484 L59.256 56.9817 L63.9319 56.9817 L63.9319 87.6066 L71.5707 87.6066 L71.5707 91.5417 L51.6634 91.5417 L51.6634 87.6066 Z" fill="#000000" fill-rule="evenodd" fill-opacity="1" /><path clip-path="url(#clip300)" d="M91.0151 60.0604 Q87.404 60.0604 85.5753 63.6252 Q83.7697 67.1669 83.7697 74.2965 Q83.7697 81.4029 85.5753 84.9677 Q87.404 88.5093 91.0151 88.5093 Q94.6493 88.5093 96.4548 84.9677 Q98.2835 81.4029 98.2835 74.2965 Q98.2835 67.1669 96.4548 63.6252 Q94.6493 60.0604 91.0151 60.0604 M91.0151 56.3567 Q96.8252 56.3567 99.8808 60.9632 Q102.959 65.5465 102.959 74.2965 Q102.959 83.0233 99.8808 87.6297 Q96.8252 92.213 91.0151 92.213 Q85.2049 92.213 82.1262 87.6297 Q79.0707 83.0233 79.0707 74.2965 Q79.0707 65.5465 82.1262 60.9632 Q85.2049 56.3567 91.0151 56.3567 Z" fill="#000000" fill-rule="evenodd" fill-opacity="1" /><path clip-path="url(#clip300)" d="M121.177 60.0604 Q117.566 60.0604 115.737 63.6252 Q113.932 67.1669 113.932 74.2965 Q113.932 81.4029 115.737 84.9677 Q117.566 88.5093 121.177 88.5093 Q124.811 88.5093 126.617 84.9677 Q128.445 81.4029 128.445 74.2965 Q128.445 67.1669 126.617 63.6252 Q124.811 60.0604 121.177 60.0604 M121.177 56.3567 Q126.987 56.3567 130.043 60.9632 Q133.121 65.5465 133.121 74.2965 Q133.121 83.0233 130.043 87.6297 Q126.987 92.213 121.177 92.213 Q115.367 92.213 112.288 87.6297 Q109.233 83.0233 109.233 74.2965 Q109.233 65.5465 112.288 60.9632 Q115.367 56.3567 121.177 56.3567 Z" fill="#000000" fill-rule="evenodd" fill-opacity="1" /><polyline clip-path="url(#clip302)" style="stroke:#009af9; stroke-linecap:butt; stroke-linejoin:round; stroke-width:4; stroke-opacity:1; fill:none" points="
  230.922,87.9763 251.523,156.549 272.123,252.551 292.723,252.551 313.324,266.265 333.924,293.694 354.524,293.694 375.125,307.409 395.725,321.123 416.325,348.553 
  436.926,348.553 457.526,348.553 478.126,348.553 498.727,362.267 519.327,362.267 539.927,389.696 560.528,389.696 581.128,389.696 601.728,389.696 622.328,389.696 
  642.929,389.696 663.529,389.696 684.129,403.411 704.73,403.411 725.33,417.125 745.93,417.125 766.531,444.554 787.131,444.554 807.731,444.554 828.332,444.554 
  848.932,444.554 869.532,444.554 890.133,444.554 910.733,444.554 931.333,444.554 951.934,444.554 972.534,444.554 993.134,444.554 1013.73,444.554 1034.34,444.554 
  1054.94,444.554 1075.54,444.554 1096.14,444.554 1116.74,444.554 1137.34,444.554 1157.94,444.554 1178.54,444.554 1199.14,444.554 1219.74,444.554 1240.34,444.554 
  1260.94,444.554 1281.54,444.554 1302.14,444.554 1322.74,444.554 1343.34,444.554 1363.94,444.554 1384.54,444.554 1405.14,444.554 1425.74,444.554 1446.34,444.554 
  1466.94,444.554 1487.54,444.554 1508.14,444.554 1528.74,444.554 1549.34,444.554 1569.94,444.554 1590.54,444.554 1611.14,444.554 1631.74,444.554 1652.34,444.554 
  1672.95,444.554 1693.55,444.554 1714.15,444.554 1734.75,444.554 1755.35,444.554 1775.95,444.554 1796.55,444.554 1817.15,444.554 1837.75,444.554 1858.35,444.554 
  1878.95,444.554 1899.55,444.554 1920.15,444.554 1940.75,444.554 1961.35,444.554 1981.95,444.554 2002.55,444.554 2023.15,444.554 2043.75,444.554 2064.35,444.554 
  2084.95,444.554 2105.55,444.554 2126.15,444.554 2146.75,444.554 2167.35,444.554 2187.95,444.554 2208.55,444.554 2229.15,444.554 2249.75,444.554 2270.35,444.554 
  2290.95,444.554 
  "/>
<polyline clip-path="url(#clip302)" style="stroke:#e26f46; stroke-linecap:butt; stroke-linejoin:round; stroke-width:4; stroke-opacity:1; fill:none" points="
  230.922,1432 251.523,1363.43 272.123,1294.86 292.723,1308.57 313.324,1322.28 333.924,1294.86 354.524,1294.86 375.125,1294.86 395.725,1281.14 416.325,1253.71 
  436.926,1253.71 457.526,1253.71 478.126,1267.43 498.727,1253.71 519.327,1281.14 539.927,1253.71 560.528,1253.71 581.128,1253.71 601.728,1267.43 622.328,1267.43 
  642.929,1267.43 663.529,1281.14 684.129,1267.43 704.73,1267.43 725.33,1253.71 745.93,1253.71 766.531,1226.28 787.131,1240 807.731,1240 828.332,1240 
  848.932,1240 869.532,1253.71 890.133,1267.43 910.733,1294.86 931.333,1308.57 951.934,1322.28 972.534,1322.28 993.134,1322.28 1013.73,1322.28 1034.34,1322.28 
  1054.94,1349.71 1075.54,1363.43 1096.14,1363.43 1116.74,1363.43 1137.34,1363.43 1157.94,1377.14 1178.54,1377.14 1199.14,1377.14 1219.74,1377.14 1240.34,1377.14 
  1260.94,1377.14 1281.54,1377.14 1302.14,1390.86 1322.74,1390.86 1343.34,1390.86 1363.94,1390.86 1384.54,1390.86 1405.14,1390.86 1425.74,1404.57 1446.34,1404.57 
  1466.94,1404.57 1487.54,1404.57 1508.14,1418.29 1528.74,1418.29 1549.34,1418.29 1569.94,1418.29 1590.54,1418.29 1611.14,1418.29 1631.74,1432 1652.34,1432 
  1672.95,1432 1693.55,1432 1714.15,1432 1734.75,1445.72 1755.35,1445.72 1775.95,1445.72 1796.55,1445.72 1817.15,1445.72 1837.75,1445.72 1858.35,1445.72 
  1878.95,1445.72 1899.55,1445.72 1920.15,1445.72 1940.75,1445.72 1961.35,1445.72 1981.95,1445.72 2002.55,1445.72 2023.15,1445.72 2043.75,1445.72 2064.35,1445.72 
  2084.95,1445.72 2105.55,1445.72 2126.15,1445.72 2146.75,1445.72 2167.35,1445.72 2187.95,1445.72 2208.55,1445.72 2229.15,1445.72 2249.75,1445.72 2270.35,1445.72 
  2290.95,1445.72 
  "/>
<polyline clip-path="url(#clip302)" style="stroke:#3da44d; stroke-linecap:butt; stroke-linejoin:round; stroke-width:4; stroke-opacity:1; fill:none" points="
  230.922,1445.72 251.523,1445.72 272.123,1418.29 292.723,1404.57 313.324,1377.14 333.924,1377.14 354.524,1377.14 375.125,1363.43 395.725,1363.43 416.325,1363.43 
  436.926,1363.43 457.526,1363.43 478.126,1349.71 498.727,1349.71 519.327,1322.28 539.927,1322.28 560.528,1322.28 581.128,1322.28 601.728,1308.57 622.328,1308.57 
  642.929,1308.57 663.529,1294.86 684.129,1294.86 704.73,1294.86 725.33,1294.86 745.93,1294.86 766.531,1294.86 787.131,1281.14 807.731,1281.14 828.332,1281.14 
  848.932,1281.14 869.532,1267.43 890.133,1253.71 910.733,1226.28 931.333,1212.57 951.934,1198.85 972.534,1198.85 993.134,1198.85 1013.73,1198.85 1034.34,1198.85 
  1054.94,1171.42 1075.54,1157.71 1096.14,1157.71 1116.74,1157.71 1137.34,1157.71 1157.94,1144 1178.54,1144 1199.14,1144 1219.74,1144 1240.34,1144 
  1260.94,1144 1281.54,1144 1302.14,1130.28 1322.74,1130.28 1343.34,1130.28 1363.94,1130.28 1384.54,1130.28 1405.14,1130.28 1425.74,1116.57 1446.34,1116.57 
  1466.94,1116.57 1487.54,1116.57 1508.14,1102.85 1528.74,1102.85 1549.34,1102.85 1569.94,1102.85 1590.54,1102.85 1611.14,1102.85 1631.74,1089.14 1652.34,1089.14 
  1672.95,1089.14 1693.55,1089.14 1714.15,1089.14 1734.75,1075.42 1755.35,1075.42 1775.95,1075.42 1796.55,1075.42 1817.15,1075.42 1837.75,1075.42 1858.35,1075.42 
  1878.95,1075.42 1899.55,1075.42 1920.15,1075.42 1940.75,1075.42 1961.35,1075.42 1981.95,1075.42 2002.55,1075.42 2023.15,1075.42 2043.75,1075.42 2064.35,1075.42 
  2084.95,1075.42 2105.55,1075.42 2126.15,1075.42 2146.75,1075.42 2167.35,1075.42 2187.95,1075.42 2208.55,1075.42 2229.15,1075.42 2249.75,1075.42 2270.35,1075.42 
  2290.95,1075.42 
  "/>
<path clip-path="url(#clip300)" d="
M1768.64 302.578 L2279.97 302.578 L2279.97 95.2176 L1768.64 95.2176  Z
  " fill="#ffffff" fill-rule="evenodd" fill-opacity="1"/>
<polyline clip-path="url(#clip300)" style="stroke:#000000; stroke-linecap:butt; stroke-linejoin:round; stroke-width:4; stroke-opacity:1; fill:none" points="
  1768.64,302.578 2279.97,302.578 2279.97,95.2176 1768.64,95.2176 1768.64,302.578 
  "/>
<polyline clip-path="url(#clip300)" style="stroke:#009af9; stroke-linecap:butt; stroke-linejoin:round; stroke-width:4; stroke-opacity:1; fill:none" points="
  1792.9,147.058 1938.48,147.058 
  "/>
<path clip-path="url(#clip300)" d="M1984.99 130.912 L1984.99 135.472 Q1982.32 134.199 1979.96 133.574 Q1977.6 132.949 1975.4 132.949 Q1971.58 132.949 1969.5 134.43 Q1967.44 135.912 1967.44 138.643 Q1967.44 140.935 1968.81 142.115 Q1970.19 143.273 1974.04 143.99 L1976.86 144.569 Q1982.09 145.565 1984.57 148.088 Q1987.07 150.588 1987.07 154.801 Q1987.07 159.824 1983.69 162.416 Q1980.33 165.009 1973.83 165.009 Q1971.37 165.009 1968.6 164.453 Q1965.84 163.898 1962.88 162.81 L1962.88 157.995 Q1965.73 159.592 1968.46 160.402 Q1971.19 161.213 1973.83 161.213 Q1977.83 161.213 1980.01 159.639 Q1982.18 158.064 1982.18 155.148 Q1982.18 152.602 1980.61 151.166 Q1979.06 149.731 1975.5 149.014 L1972.65 148.458 Q1967.42 147.416 1965.08 145.194 Q1962.74 142.972 1962.74 139.014 Q1962.74 134.43 1965.96 131.791 Q1969.2 129.153 1974.87 129.153 Q1977.3 129.153 1979.82 129.592 Q1982.35 130.032 1984.99 130.912 Z" fill="#000000" fill-rule="evenodd" fill-opacity="1" /><path clip-path="url(#clip300)" d="M1993.74 154.106 L1993.74 138.412 L1998 138.412 L1998 153.944 Q1998 157.625 1999.43 159.476 Q2000.87 161.305 2003.74 161.305 Q2007.18 161.305 2009.18 159.106 Q2011.19 156.907 2011.19 153.111 L2011.19 138.412 L2015.45 138.412 L2015.45 164.338 L2011.19 164.338 L2011.19 160.356 Q2009.64 162.717 2007.58 163.875 Q2005.54 165.009 2002.83 165.009 Q1998.37 165.009 1996.05 162.231 Q1993.74 159.453 1993.74 154.106 M2004.45 137.787 L2004.45 137.787 Z" fill="#000000" fill-rule="evenodd" fill-opacity="1" /><path clip-path="url(#clip300)" d="M2040.75 139.176 L2040.75 143.203 Q2038.94 142.277 2037 141.815 Q2035.06 141.352 2032.97 141.352 Q2029.8 141.352 2028.2 142.324 Q2026.63 143.296 2026.63 145.24 Q2026.63 146.722 2027.76 147.578 Q2028.9 148.412 2032.32 149.176 L2033.78 149.5 Q2038.32 150.472 2040.22 152.254 Q2042.14 154.014 2042.14 157.185 Q2042.14 160.796 2039.27 162.902 Q2036.42 165.009 2031.42 165.009 Q2029.34 165.009 2027.07 164.592 Q2024.82 164.199 2022.32 163.388 L2022.32 158.99 Q2024.68 160.217 2026.98 160.842 Q2029.27 161.444 2031.51 161.444 Q2034.52 161.444 2036.14 160.426 Q2037.76 159.384 2037.76 157.509 Q2037.76 155.773 2036.58 154.847 Q2035.43 153.921 2031.47 153.064 L2029.99 152.717 Q2026.03 151.884 2024.27 150.171 Q2022.51 148.435 2022.51 145.426 Q2022.51 141.768 2025.1 139.778 Q2027.69 137.787 2032.46 137.787 Q2034.82 137.787 2036.91 138.134 Q2038.99 138.481 2040.75 139.176 Z" fill="#000000" fill-rule="evenodd" fill-opacity="1" /><path clip-path="url(#clip300)" d="M2067.58 139.407 L2067.58 143.389 Q2065.77 142.393 2063.94 141.907 Q2062.14 141.398 2060.29 141.398 Q2056.14 141.398 2053.85 144.037 Q2051.56 146.652 2051.56 151.398 Q2051.56 156.143 2053.85 158.782 Q2056.14 161.398 2060.29 161.398 Q2062.14 161.398 2063.94 160.912 Q2065.77 160.402 2067.58 159.407 L2067.58 163.342 Q2065.8 164.176 2063.87 164.592 Q2061.98 165.009 2059.82 165.009 Q2053.97 165.009 2050.52 161.328 Q2047.07 157.648 2047.07 151.398 Q2047.07 145.055 2050.54 141.421 Q2054.04 137.787 2060.1 137.787 Q2062.07 137.787 2063.94 138.203 Q2065.82 138.597 2067.58 139.407 Z" fill="#000000" fill-rule="evenodd" fill-opacity="1" /><path clip-path="url(#clip300)" d="M2097.16 150.31 L2097.16 152.393 L2077.58 152.393 Q2077.86 156.791 2080.22 159.106 Q2082.6 161.398 2086.84 161.398 Q2089.29 161.398 2091.58 160.796 Q2093.9 160.194 2096.17 158.99 L2096.17 163.018 Q2093.87 163.99 2091.47 164.5 Q2089.06 165.009 2086.58 165.009 Q2080.38 165.009 2076.74 161.398 Q2073.13 157.787 2073.13 151.629 Q2073.13 145.264 2076.56 141.537 Q2080.01 137.787 2085.84 137.787 Q2091.07 137.787 2094.11 141.166 Q2097.16 144.523 2097.16 150.31 M2092.9 149.06 Q2092.86 145.565 2090.93 143.481 Q2089.04 141.398 2085.89 141.398 Q2082.32 141.398 2080.17 143.412 Q2078.04 145.426 2077.72 149.083 L2092.9 149.06 Z" fill="#000000" fill-rule="evenodd" fill-opacity="1" /><path clip-path="url(#clip300)" d="M2108.27 160.449 L2108.27 174.199 L2103.99 174.199 L2103.99 138.412 L2108.27 138.412 L2108.27 142.347 Q2109.61 140.032 2111.65 138.921 Q2113.71 137.787 2116.56 137.787 Q2121.28 137.787 2124.22 141.537 Q2127.18 145.287 2127.18 151.398 Q2127.18 157.509 2124.22 161.259 Q2121.28 165.009 2116.56 165.009 Q2113.71 165.009 2111.65 163.898 Q2109.61 162.763 2108.27 160.449 M2122.76 151.398 Q2122.76 146.699 2120.82 144.037 Q2118.9 141.352 2115.52 141.352 Q2112.14 141.352 2110.19 144.037 Q2108.27 146.699 2108.27 151.398 Q2108.27 156.097 2110.19 158.782 Q2112.14 161.444 2115.52 161.444 Q2118.9 161.444 2120.82 158.782 Q2122.76 156.097 2122.76 151.398 Z" fill="#000000" fill-rule="evenodd" fill-opacity="1" /><path clip-path="url(#clip300)" d="M2138.46 131.051 L2138.46 138.412 L2147.23 138.412 L2147.23 141.722 L2138.46 141.722 L2138.46 155.796 Q2138.46 158.967 2139.31 159.87 Q2140.19 160.773 2142.86 160.773 L2147.23 160.773 L2147.23 164.338 L2142.86 164.338 Q2137.92 164.338 2136.05 162.509 Q2134.17 160.657 2134.17 155.796 L2134.17 141.722 L2131.05 141.722 L2131.05 138.412 L2134.17 138.412 L2134.17 131.051 L2138.46 131.051 Z" fill="#000000" fill-rule="evenodd" fill-opacity="1" /><path clip-path="url(#clip300)" d="M2152.83 138.412 L2157.09 138.412 L2157.09 164.338 L2152.83 164.338 L2152.83 138.412 M2152.83 128.319 L2157.09 128.319 L2157.09 133.713 L2152.83 133.713 L2152.83 128.319 Z" fill="#000000" fill-rule="evenodd" fill-opacity="1" /><path clip-path="url(#clip300)" d="M2184.61 151.398 Q2184.61 146.699 2182.67 144.037 Q2180.75 141.352 2177.37 141.352 Q2173.99 141.352 2172.05 144.037 Q2170.12 146.699 2170.12 151.398 Q2170.12 156.097 2172.05 158.782 Q2173.99 161.444 2177.37 161.444 Q2180.75 161.444 2182.67 158.782 Q2184.61 156.097 2184.61 151.398 M2170.12 142.347 Q2171.47 140.032 2173.5 138.921 Q2175.56 137.787 2178.41 137.787 Q2183.13 137.787 2186.07 141.537 Q2189.04 145.287 2189.04 151.398 Q2189.04 157.509 2186.07 161.259 Q2183.13 165.009 2178.41 165.009 Q2175.56 165.009 2173.5 163.898 Q2171.47 162.763 2170.12 160.449 L2170.12 164.338 L2165.84 164.338 L2165.84 128.319 L2170.12 128.319 L2170.12 142.347 Z" fill="#000000" fill-rule="evenodd" fill-opacity="1" /><path clip-path="url(#clip300)" d="M2196.1 128.319 L2200.36 128.319 L2200.36 164.338 L2196.1 164.338 L2196.1 128.319 Z" fill="#000000" fill-rule="evenodd" fill-opacity="1" /><path clip-path="url(#clip300)" d="M2231.44 150.31 L2231.44 152.393 L2211.86 152.393 Q2212.14 156.791 2214.5 159.106 Q2216.88 161.398 2221.12 161.398 Q2223.57 161.398 2225.86 160.796 Q2228.18 160.194 2230.45 158.99 L2230.45 163.018 Q2228.16 163.99 2225.75 164.5 Q2223.34 165.009 2220.86 165.009 Q2214.66 165.009 2211.03 161.398 Q2207.42 157.787 2207.42 151.629 Q2207.42 145.264 2210.84 141.537 Q2214.29 137.787 2220.12 137.787 Q2225.35 137.787 2228.39 141.166 Q2231.44 144.523 2231.44 150.31 M2227.18 149.06 Q2227.14 145.565 2225.22 143.481 Q2223.32 141.398 2220.17 141.398 Q2216.6 141.398 2214.45 143.412 Q2212.32 145.426 2212 149.083 L2227.18 149.06 Z" fill="#000000" fill-rule="evenodd" fill-opacity="1" /><polyline clip-path="url(#clip300)" style="stroke:#e26f46; stroke-linecap:butt; stroke-linejoin:round; stroke-width:4; stroke-opacity:1; fill:none" points="
  1792.9,198.898 1938.48,198.898 
  "/>
<path clip-path="url(#clip300)" d="M1962.74 181.618 L1967.42 181.618 L1967.42 216.178 L1962.74 216.178 L1962.74 181.618 Z" fill="#000000" fill-rule="evenodd" fill-opacity="1" /><path clip-path="url(#clip300)" d="M1998.09 200.529 L1998.09 216.178 L1993.83 216.178 L1993.83 200.668 Q1993.83 196.988 1992.39 195.159 Q1990.96 193.33 1988.09 193.33 Q1984.64 193.33 1982.65 195.53 Q1980.66 197.729 1980.66 201.525 L1980.66 216.178 L1976.37 216.178 L1976.37 190.252 L1980.66 190.252 L1980.66 194.28 Q1982.18 191.942 1984.25 190.784 Q1986.33 189.627 1989.04 189.627 Q1993.5 189.627 1995.8 192.405 Q1998.09 195.159 1998.09 200.529 Z" fill="#000000" fill-rule="evenodd" fill-opacity="1" /><path clip-path="url(#clip300)" d="M2019.71 180.159 L2019.71 183.701 L2015.63 183.701 Q2013.34 183.701 2012.44 184.627 Q2011.56 185.553 2011.56 187.96 L2011.56 190.252 L2018.57 190.252 L2018.57 193.562 L2011.56 193.562 L2011.56 216.178 L2007.28 216.178 L2007.28 193.562 L2003.2 193.562 L2003.2 190.252 L2007.28 190.252 L2007.28 188.446 Q2007.28 184.118 2009.29 182.15 Q2011.31 180.159 2015.68 180.159 L2019.71 180.159 Z" fill="#000000" fill-rule="evenodd" fill-opacity="1" /><path clip-path="url(#clip300)" d="M2045.45 202.15 L2045.45 204.233 L2025.87 204.233 Q2026.14 208.631 2028.5 210.946 Q2030.89 213.238 2035.12 213.238 Q2037.58 213.238 2039.87 212.636 Q2042.18 212.034 2044.45 210.83 L2044.45 214.858 Q2042.16 215.83 2039.75 216.34 Q2037.35 216.849 2034.87 216.849 Q2028.67 216.849 2025.03 213.238 Q2021.42 209.627 2021.42 203.469 Q2021.42 197.104 2024.85 193.377 Q2028.3 189.627 2034.13 189.627 Q2039.36 189.627 2042.39 193.006 Q2045.45 196.363 2045.45 202.15 M2041.19 200.9 Q2041.14 197.405 2039.22 195.321 Q2037.32 193.238 2034.18 193.238 Q2030.61 193.238 2028.46 195.252 Q2026.33 197.266 2026 200.923 L2041.19 200.9 Z" fill="#000000" fill-rule="evenodd" fill-opacity="1" /><path clip-path="url(#clip300)" d="M2071.1 191.247 L2071.1 195.229 Q2069.29 194.233 2067.46 193.747 Q2065.66 193.238 2063.8 193.238 Q2059.66 193.238 2057.37 195.877 Q2055.08 198.492 2055.08 203.238 Q2055.08 207.983 2057.37 210.622 Q2059.66 213.238 2063.8 213.238 Q2065.66 213.238 2067.46 212.752 Q2069.29 212.242 2071.1 211.247 L2071.1 215.182 Q2069.31 216.016 2067.39 216.432 Q2065.49 216.849 2063.34 216.849 Q2057.49 216.849 2054.04 213.168 Q2050.59 209.488 2050.59 203.238 Q2050.59 196.895 2054.06 193.261 Q2057.55 189.627 2063.62 189.627 Q2065.59 189.627 2067.46 190.043 Q2069.34 190.437 2071.1 191.247 Z" fill="#000000" fill-rule="evenodd" fill-opacity="1" /><path clip-path="url(#clip300)" d="M2082.72 182.891 L2082.72 190.252 L2091.49 190.252 L2091.49 193.562 L2082.72 193.562 L2082.72 207.636 Q2082.72 210.807 2083.57 211.71 Q2084.45 212.613 2087.11 212.613 L2091.49 212.613 L2091.49 216.178 L2087.11 216.178 Q2082.18 216.178 2080.31 214.349 Q2078.43 212.497 2078.43 207.636 L2078.43 193.562 L2075.31 193.562 L2075.31 190.252 L2078.43 190.252 L2078.43 182.891 L2082.72 182.891 Z" fill="#000000" fill-rule="evenodd" fill-opacity="1" /><path clip-path="url(#clip300)" d="M2119.27 202.15 L2119.27 204.233 L2099.68 204.233 Q2099.96 208.631 2102.32 210.946 Q2104.71 213.238 2108.94 213.238 Q2111.4 213.238 2113.69 212.636 Q2116 212.034 2118.27 210.83 L2118.27 214.858 Q2115.98 215.83 2113.57 216.34 Q2111.17 216.849 2108.69 216.849 Q2102.49 216.849 2098.85 213.238 Q2095.24 209.627 2095.24 203.469 Q2095.24 197.104 2098.67 193.377 Q2102.11 189.627 2107.95 189.627 Q2113.18 189.627 2116.21 193.006 Q2119.27 196.363 2119.27 202.15 M2115.01 200.9 Q2114.96 197.405 2113.04 195.321 Q2111.14 193.238 2107.99 193.238 Q2104.43 193.238 2102.28 195.252 Q2100.15 197.266 2099.82 200.923 L2115.01 200.9 Z" fill="#000000" fill-rule="evenodd" fill-opacity="1" /><path clip-path="url(#clip300)" d="M2143.32 194.187 L2143.32 180.159 L2147.58 180.159 L2147.58 216.178 L2143.32 216.178 L2143.32 212.289 Q2141.98 214.603 2139.92 215.738 Q2137.88 216.849 2135.01 216.849 Q2130.31 216.849 2127.35 213.099 Q2124.41 209.349 2124.41 203.238 Q2124.41 197.127 2127.35 193.377 Q2130.31 189.627 2135.01 189.627 Q2137.88 189.627 2139.92 190.761 Q2141.98 191.872 2143.32 194.187 M2128.8 203.238 Q2128.8 207.937 2130.73 210.622 Q2132.67 213.284 2136.05 213.284 Q2139.43 213.284 2141.37 210.622 Q2143.32 207.937 2143.32 203.238 Q2143.32 198.539 2141.37 195.877 Q2139.43 193.192 2136.05 193.192 Q2132.67 193.192 2130.73 195.877 Q2128.8 198.539 2128.8 203.238 Z" fill="#000000" fill-rule="evenodd" fill-opacity="1" /><polyline clip-path="url(#clip300)" style="stroke:#3da44d; stroke-linecap:butt; stroke-linejoin:round; stroke-width:4; stroke-opacity:1; fill:none" points="
  1792.9,250.738 1938.48,250.738 
  "/>
<path clip-path="url(#clip300)" d="M1979.13 251.814 Q1980.63 252.323 1982.05 253.99 Q1983.48 255.657 1984.92 258.573 L1989.66 268.018 L1984.64 268.018 L1980.22 259.152 Q1978.5 255.68 1976.88 254.545 Q1975.29 253.411 1972.51 253.411 L1967.42 253.411 L1967.42 268.018 L1962.74 268.018 L1962.74 233.458 L1973.3 233.458 Q1979.22 233.458 1982.14 235.934 Q1985.06 238.411 1985.06 243.411 Q1985.06 246.675 1983.53 248.828 Q1982.02 250.981 1979.13 251.814 M1967.42 237.3 L1967.42 249.569 L1973.3 249.569 Q1976.68 249.569 1978.39 248.018 Q1980.12 246.444 1980.12 243.411 Q1980.12 240.379 1978.39 238.851 Q1976.68 237.3 1973.3 237.3 L1967.42 237.3 Z" fill="#000000" fill-rule="evenodd" fill-opacity="1" /><path clip-path="url(#clip300)" d="M2015.54 253.99 L2015.54 256.073 L1995.96 256.073 Q1996.24 260.471 1998.6 262.786 Q2000.98 265.078 2005.22 265.078 Q2007.67 265.078 2009.96 264.476 Q2012.28 263.874 2014.55 262.67 L2014.55 266.698 Q2012.25 267.67 2009.85 268.18 Q2007.44 268.689 2004.96 268.689 Q1998.76 268.689 1995.12 265.078 Q1991.51 261.467 1991.51 255.309 Q1991.51 248.944 1994.94 245.217 Q1998.39 241.467 2004.22 241.467 Q2009.45 241.467 2012.49 244.846 Q2015.54 248.203 2015.54 253.99 M2011.28 252.74 Q2011.24 249.245 2009.31 247.161 Q2007.42 245.078 2004.27 245.078 Q2000.7 245.078 1998.55 247.092 Q1996.42 249.106 1996.1 252.763 L2011.28 252.74 Z" fill="#000000" fill-rule="evenodd" fill-opacity="1" /><path clip-path="url(#clip300)" d="M2041.19 243.087 L2041.19 247.069 Q2039.38 246.073 2037.56 245.587 Q2035.75 245.078 2033.9 245.078 Q2029.75 245.078 2027.46 247.717 Q2025.17 250.332 2025.17 255.078 Q2025.17 259.823 2027.46 262.462 Q2029.75 265.078 2033.9 265.078 Q2035.75 265.078 2037.56 264.592 Q2039.38 264.082 2041.19 263.087 L2041.19 267.022 Q2039.41 267.856 2037.49 268.272 Q2035.59 268.689 2033.43 268.689 Q2027.58 268.689 2024.13 265.008 Q2020.68 261.328 2020.68 255.078 Q2020.68 248.735 2024.15 245.101 Q2027.65 241.467 2033.71 241.467 Q2035.68 241.467 2037.56 241.883 Q2039.43 242.277 2041.19 243.087 Z" fill="#000000" fill-rule="evenodd" fill-opacity="1" /><path clip-path="url(#clip300)" d="M2058.64 245.078 Q2055.22 245.078 2053.23 247.763 Q2051.24 250.425 2051.24 255.078 Q2051.24 259.731 2053.2 262.416 Q2055.19 265.078 2058.64 265.078 Q2062.05 265.078 2064.04 262.393 Q2066.03 259.707 2066.03 255.078 Q2066.03 250.471 2064.04 247.786 Q2062.05 245.078 2058.64 245.078 M2058.64 241.467 Q2064.2 241.467 2067.37 245.078 Q2070.54 248.689 2070.54 255.078 Q2070.54 261.444 2067.37 265.078 Q2064.2 268.689 2058.64 268.689 Q2053.06 268.689 2049.89 265.078 Q2046.74 261.444 2046.74 255.078 Q2046.74 248.689 2049.89 245.078 Q2053.06 241.467 2058.64 241.467 Z" fill="#000000" fill-rule="evenodd" fill-opacity="1" /><path clip-path="url(#clip300)" d="M2074.55 242.092 L2079.06 242.092 L2087.16 263.851 L2095.26 242.092 L2099.78 242.092 L2090.05 268.018 L2084.27 268.018 L2074.55 242.092 Z" fill="#000000" fill-rule="evenodd" fill-opacity="1" /><path clip-path="url(#clip300)" d="M2127.83 253.99 L2127.83 256.073 L2108.25 256.073 Q2108.53 260.471 2110.89 262.786 Q2113.27 265.078 2117.51 265.078 Q2119.96 265.078 2122.25 264.476 Q2124.57 263.874 2126.84 262.67 L2126.84 266.698 Q2124.55 267.67 2122.14 268.18 Q2119.73 268.689 2117.25 268.689 Q2111.05 268.689 2107.42 265.078 Q2103.8 261.467 2103.8 255.309 Q2103.8 248.944 2107.23 245.217 Q2110.68 241.467 2116.51 241.467 Q2121.74 241.467 2124.78 244.846 Q2127.83 248.203 2127.83 253.99 M2123.57 252.74 Q2123.53 249.245 2121.61 247.161 Q2119.71 245.078 2116.56 245.078 Q2112.99 245.078 2110.84 247.092 Q2108.71 249.106 2108.39 252.763 L2123.57 252.74 Z" fill="#000000" fill-rule="evenodd" fill-opacity="1" /><path clip-path="url(#clip300)" d="M2149.85 246.073 Q2149.13 245.657 2148.27 245.471 Q2147.44 245.263 2146.42 245.263 Q2142.81 245.263 2140.86 247.624 Q2138.94 249.962 2138.94 254.36 L2138.94 268.018 L2134.66 268.018 L2134.66 242.092 L2138.94 242.092 L2138.94 246.12 Q2140.29 243.758 2142.44 242.624 Q2144.59 241.467 2147.67 241.467 Q2148.11 241.467 2148.64 241.536 Q2149.17 241.583 2149.82 241.698 L2149.85 246.073 Z" fill="#000000" fill-rule="evenodd" fill-opacity="1" /><path clip-path="url(#clip300)" d="M2175.45 253.99 L2175.45 256.073 L2155.86 256.073 Q2156.14 260.471 2158.5 262.786 Q2160.89 265.078 2165.12 265.078 Q2167.58 265.078 2169.87 264.476 Q2172.18 263.874 2174.45 262.67 L2174.45 266.698 Q2172.16 267.67 2169.75 268.18 Q2167.35 268.689 2164.87 268.689 Q2158.67 268.689 2155.03 265.078 Q2151.42 261.467 2151.42 255.309 Q2151.42 248.944 2154.85 245.217 Q2158.3 241.467 2164.13 241.467 Q2169.36 241.467 2172.39 244.846 Q2175.45 248.203 2175.45 253.99 M2171.19 252.74 Q2171.14 249.245 2169.22 247.161 Q2167.32 245.078 2164.17 245.078 Q2160.61 245.078 2158.46 247.092 Q2156.33 249.106 2156 252.763 L2171.19 252.74 Z" fill="#000000" fill-rule="evenodd" fill-opacity="1" /><path clip-path="url(#clip300)" d="M2199.5 246.027 L2199.5 231.999 L2203.76 231.999 L2203.76 268.018 L2199.5 268.018 L2199.5 264.129 Q2198.16 266.443 2196.1 267.578 Q2194.06 268.689 2191.19 268.689 Q2186.49 268.689 2183.53 264.939 Q2180.59 261.189 2180.59 255.078 Q2180.59 248.967 2183.53 245.217 Q2186.49 241.467 2191.19 241.467 Q2194.06 241.467 2196.1 242.601 Q2198.16 243.712 2199.5 246.027 M2184.98 255.078 Q2184.98 259.777 2186.91 262.462 Q2188.85 265.124 2192.23 265.124 Q2195.61 265.124 2197.55 262.462 Q2199.5 259.777 2199.5 255.078 Q2199.5 250.379 2197.55 247.717 Q2195.61 245.032 2192.23 245.032 Q2188.85 245.032 2186.91 247.717 Q2184.98 250.379 2184.98 255.078 Z" fill="#000000" fill-rule="evenodd" fill-opacity="1" /></svg>
