<?xml version="1.0" encoding="utf-8"?>
<svg xmlns="http://www.w3.org/2000/svg" xmlns:xlink="http://www.w3.org/1999/xlink" width="600" height="400" viewBox="0 0 2400 1600">
<defs>
  <clipPath id="clip540">
    <rect x="0" y="0" width="2400" height="1600"/>
  </clipPath>
</defs>
<path clip-path="url(#clip540)" d="
M0 1600 L2400 1600 L2400 0 L0 0  Z
  " fill="#ffffff" fill-rule="evenodd" fill-opacity="1"/>
<defs>
  <clipPath id="clip541">
    <rect x="480" y="0" width="1681" height="1600"/>
  </clipPath>
</defs>
<path clip-path="url(#clip540)" d="
M206.297 1486.45 L2352.76 1486.45 L2352.76 47.2441 L206.297 47.2441  Z
  " fill="#ffffff" fill-rule="evenodd" fill-opacity="1"/>
<defs>
  <clipPath id="clip542">
    <rect x="206" y="47" width="2147" height="1440"/>
  </clipPath>
</defs>
<polyline clip-path="url(#clip542)" style="stroke:#000000; stroke-width:2; stroke-opacity:0.1; fill:none" points="
  294.492,1486.45 294.492,47.2441 
  "/>
<polyline clip-path="url(#clip542)" style="stroke:#000000; stroke-width:2; stroke-opacity:0.1; fill:none" points="
  641.135,1486.45 641.135,47.2441 
  "/>
<polyline clip-path="url(#clip542)" style="stroke:#000000; stroke-width:2; stroke-opacity:0.1; fill:none" points="
  987.777,1486.45 987.777,47.2441 
  "/>
<polyline clip-path="url(#clip542)" style="stroke:#000000; stroke-width:2; stroke-opacity:0.1; fill:none" points="
  1334.42,1486.45 1334.42,47.2441 
  "/>
<polyline clip-path="url(#clip542)" style="stroke:#000000; stroke-width:2; stroke-opacity:0.1; fill:none" points="
  1681.06,1486.45 1681.06,47.2441 
  "/>
<polyline clip-path="url(#clip542)" style="stroke:#000000; stroke-width:2; stroke-opacity:0.1; fill:none" points="
  2027.7,1486.45 2027.7,47.2441 
  "/>
<polyline clip-path="url(#clip542)" style="stroke:#000000; stroke-width:2; stroke-opacity:0.1; fill:none" points="
  206.297,1453.07 2352.76,1453.07 
  "/>
<polyline clip-path="url(#clip542)" style="stroke:#000000; stroke-width:2; stroke-opacity:0.1; fill:none" points="
  206.297,1092.5 2352.76,1092.5 
  "/>
<polyline clip-path="url(#clip542)" style="stroke:#000000; stroke-width:2; stroke-opacity:0.1; fill:none" points="
  206.297,731.938 2352.76,731.938 
  "/>
<polyline clip-path="url(#clip542)" style="stroke:#000000; stroke-width:2; stroke-opacity:0.1; fill:none" points="
  206.297,371.372 2352.76,371.372 
  "/>
<polyline clip-path="url(#clip540)" style="stroke:#000000; stroke-width:4; stroke-opacity:1; fill:none" points="
  206.297,1486.45 2352.76,1486.45 
  "/>
<polyline clip-path="url(#clip540)" style="stroke:#000000; stroke-width:4; stroke-opacity:1; fill:none" points="
  206.297,1486.45 206.297,47.2441 
  "/>
<polyline clip-path="url(#clip540)" style="stroke:#000000; stroke-width:4; stroke-opacity:1; fill:none" points="
  294.492,1486.45 294.492,1469.18 
  "/>
<polyline clip-path="url(#clip540)" style="stroke:#000000; stroke-width:4; stroke-opacity:1; fill:none" points="
  641.135,1486.45 641.135,1469.18 
  "/>
<polyline clip-path="url(#clip540)" style="stroke:#000000; stroke-width:4; stroke-opacity:1; fill:none" points="
  987.777,1486.45 987.777,1469.18 
  "/>
<polyline clip-path="url(#clip540)" style="stroke:#000000; stroke-width:4; stroke-opacity:1; fill:none" points="
  1334.42,1486.45 1334.42,1469.18 
  "/>
<polyline clip-path="url(#clip540)" style="stroke:#000000; stroke-width:4; stroke-opacity:1; fill:none" points="
  1681.06,1486.45 1681.06,1469.18 
  "/>
<polyline clip-path="url(#clip540)" style="stroke:#000000; stroke-width:4; stroke-opacity:1; fill:none" points="
  2027.7,1486.45 2027.7,1469.18 
  "/>
<polyline clip-path="url(#clip540)" style="stroke:#000000; stroke-width:4; stroke-opacity:1; fill:none" points="
  206.297,1453.07 232.055,1453.07 
  "/>
<polyline clip-path="url(#clip540)" style="stroke:#000000; stroke-width:4; stroke-opacity:1; fill:none" points="
  206.297,1092.5 232.055,1092.5 
  "/>
<polyline clip-path="url(#clip540)" style="stroke:#000000; stroke-width:4; stroke-opacity:1; fill:none" points="
  206.297,731.938 232.055,731.938 
  "/>
<polyline clip-path="url(#clip540)" style="stroke:#000000; stroke-width:4; stroke-opacity:1; fill:none" points="
  206.297,371.372 232.055,371.372 
  "/>
<path clip-path="url(#clip540)" d="M 0 0 M266.888 1535.98 L274.527 1535.98 L274.527 1509.62 L266.217 1511.29 L266.217 1507.03 L274.481 1505.36 L279.157 1505.36 L279.157 1535.98 L286.796 1535.98 L286.796 1539.92 L266.888 1539.92 L266.888 1535.98 Z" fill="#000000" fill-rule="evenodd" fill-opacity="1" /><path clip-path="url(#clip540)" d="M 0 0 M291.865 1534.04 L296.749 1534.04 L296.749 1539.92 L291.865 1539.92 L291.865 1534.04 Z" fill="#000000" fill-rule="evenodd" fill-opacity="1" /><path clip-path="url(#clip540)" d="M 0 0 M301.865 1505.36 L320.221 1505.36 L320.221 1509.3 L306.147 1509.3 L306.147 1517.77 Q307.166 1517.42 308.184 1517.26 Q309.203 1517.07 310.221 1517.07 Q316.008 1517.07 319.388 1520.24 Q322.768 1523.42 322.768 1528.83 Q322.768 1534.41 319.295 1537.51 Q315.823 1540.59 309.504 1540.59 Q307.328 1540.59 305.059 1540.22 Q302.814 1539.85 300.407 1539.11 L300.407 1534.41 Q302.49 1535.54 304.712 1536.1 Q306.934 1536.66 309.411 1536.66 Q313.416 1536.66 315.754 1534.55 Q318.092 1532.44 318.092 1528.83 Q318.092 1525.22 315.754 1523.11 Q313.416 1521.01 309.411 1521.01 Q307.536 1521.01 305.661 1521.42 Q303.809 1521.84 301.865 1522.72 L301.865 1505.36 Z" fill="#000000" fill-rule="evenodd" fill-opacity="1" /><path clip-path="url(#clip540)" d="M 0 0 M617.304 1535.98 L633.623 1535.98 L633.623 1539.92 L611.679 1539.92 L611.679 1535.98 Q614.341 1533.23 618.924 1528.6 Q623.531 1523.95 624.711 1522.61 Q626.956 1520.08 627.836 1518.35 Q628.739 1516.59 628.739 1514.9 Q628.739 1512.14 626.794 1510.41 Q624.873 1508.67 621.771 1508.67 Q619.572 1508.67 617.119 1509.43 Q614.688 1510.2 611.91 1511.75 L611.91 1507.03 Q614.734 1505.89 617.188 1505.31 Q619.642 1504.73 621.679 1504.73 Q627.049 1504.73 630.243 1507.42 Q633.438 1510.11 633.438 1514.6 Q633.438 1516.73 632.628 1518.65 Q631.841 1520.54 629.734 1523.14 Q629.156 1523.81 626.054 1527.03 Q622.952 1530.22 617.304 1535.98 Z" fill="#000000" fill-rule="evenodd" fill-opacity="1" /><path clip-path="url(#clip540)" d="M 0 0 M638.692 1534.04 L643.577 1534.04 L643.577 1539.92 L638.692 1539.92 L638.692 1534.04 Z" fill="#000000" fill-rule="evenodd" fill-opacity="1" /><path clip-path="url(#clip540)" d="M 0 0 M658.646 1508.44 Q655.035 1508.44 653.206 1512 Q651.401 1515.55 651.401 1522.67 Q651.401 1529.78 653.206 1533.35 Q655.035 1536.89 658.646 1536.89 Q662.28 1536.89 664.086 1533.35 Q665.915 1529.78 665.915 1522.67 Q665.915 1515.55 664.086 1512 Q662.28 1508.44 658.646 1508.44 M658.646 1504.73 Q664.456 1504.73 667.512 1509.34 Q670.59 1513.92 670.59 1522.67 Q670.59 1531.4 667.512 1536.01 Q664.456 1540.59 658.646 1540.59 Q652.836 1540.59 649.757 1536.01 Q646.702 1531.4 646.702 1522.67 Q646.702 1513.92 649.757 1509.34 Q652.836 1504.73 658.646 1504.73 Z" fill="#000000" fill-rule="evenodd" fill-opacity="1" /><path clip-path="url(#clip540)" d="M 0 0 M964.444 1535.98 L980.763 1535.98 L980.763 1539.92 L958.819 1539.92 L958.819 1535.98 Q961.481 1533.23 966.064 1528.6 Q970.671 1523.95 971.851 1522.61 Q974.096 1520.08 974.976 1518.35 Q975.879 1516.59 975.879 1514.9 Q975.879 1512.14 973.934 1510.41 Q972.013 1508.67 968.911 1508.67 Q966.712 1508.67 964.259 1509.43 Q961.828 1510.2 959.05 1511.75 L959.05 1507.03 Q961.874 1505.89 964.328 1505.31 Q966.782 1504.73 968.819 1504.73 Q974.189 1504.73 977.383 1507.42 Q980.578 1510.11 980.578 1514.6 Q980.578 1516.73 979.768 1518.65 Q978.981 1520.54 976.874 1523.14 Q976.296 1523.81 973.194 1527.03 Q970.092 1530.22 964.444 1535.98 Z" fill="#000000" fill-rule="evenodd" fill-opacity="1" /><path clip-path="url(#clip540)" d="M 0 0 M985.832 1534.04 L990.717 1534.04 L990.717 1539.92 L985.832 1539.92 L985.832 1534.04 Z" fill="#000000" fill-rule="evenodd" fill-opacity="1" /><path clip-path="url(#clip540)" d="M 0 0 M995.832 1505.36 L1014.19 1505.36 L1014.19 1509.3 L1000.11 1509.3 L1000.11 1517.77 Q1001.13 1517.42 1002.15 1517.26 Q1003.17 1517.07 1004.19 1517.07 Q1009.98 1517.07 1013.36 1520.24 Q1016.74 1523.42 1016.74 1528.83 Q1016.74 1534.41 1013.26 1537.51 Q1009.79 1540.59 1003.47 1540.59 Q1001.3 1540.59 999.027 1540.22 Q996.782 1539.85 994.374 1539.11 L994.374 1534.41 Q996.457 1535.54 998.68 1536.1 Q1000.9 1536.66 1003.38 1536.66 Q1007.38 1536.66 1009.72 1534.55 Q1012.06 1532.44 1012.06 1528.83 Q1012.06 1525.22 1009.72 1523.11 Q1007.38 1521.01 1003.38 1521.01 Q1001.5 1521.01 999.629 1521.42 Q997.777 1521.84 995.832 1522.72 L995.832 1505.36 Z" fill="#000000" fill-rule="evenodd" fill-opacity="1" /><path clip-path="url(#clip540)" d="M 0 0 M1320.18 1521.29 Q1323.54 1522 1325.41 1524.27 Q1327.31 1526.54 1327.31 1529.87 Q1327.31 1534.99 1323.79 1537.79 Q1320.28 1540.59 1313.79 1540.59 Q1311.62 1540.59 1309.3 1540.15 Q1307.01 1539.73 1304.56 1538.88 L1304.56 1534.36 Q1306.5 1535.5 1308.82 1536.08 Q1311.13 1536.66 1313.66 1536.66 Q1318.05 1536.66 1320.35 1534.92 Q1322.66 1533.18 1322.66 1529.87 Q1322.66 1526.82 1320.51 1525.11 Q1318.38 1523.37 1314.56 1523.37 L1310.53 1523.37 L1310.53 1519.53 L1314.74 1519.53 Q1318.19 1519.53 1320.02 1518.16 Q1321.85 1516.77 1321.85 1514.18 Q1321.85 1511.52 1319.95 1510.11 Q1318.08 1508.67 1314.56 1508.67 Q1312.64 1508.67 1310.44 1509.09 Q1308.24 1509.5 1305.6 1510.38 L1305.6 1506.22 Q1308.26 1505.48 1310.58 1505.11 Q1312.91 1504.73 1314.97 1504.73 Q1320.3 1504.73 1323.4 1507.17 Q1326.5 1509.57 1326.5 1513.69 Q1326.5 1516.56 1324.86 1518.55 Q1323.22 1520.52 1320.18 1521.29 Z" fill="#000000" fill-rule="evenodd" fill-opacity="1" /><path clip-path="url(#clip540)" d="M 0 0 M1332.38 1534.04 L1337.27 1534.04 L1337.27 1539.92 L1332.38 1539.92 L1332.38 1534.04 Z" fill="#000000" fill-rule="evenodd" fill-opacity="1" /><path clip-path="url(#clip540)" d="M 0 0 M1352.34 1508.44 Q1348.72 1508.44 1346.9 1512 Q1345.09 1515.55 1345.09 1522.67 Q1345.09 1529.78 1346.9 1533.35 Q1348.72 1536.89 1352.34 1536.89 Q1355.97 1536.89 1357.78 1533.35 Q1359.6 1529.78 1359.6 1522.67 Q1359.6 1515.55 1357.78 1512 Q1355.97 1508.44 1352.34 1508.44 M1352.34 1504.73 Q1358.15 1504.73 1361.2 1509.34 Q1364.28 1513.92 1364.28 1522.67 Q1364.28 1531.4 1361.2 1536.01 Q1358.15 1540.59 1352.34 1540.59 Q1346.53 1540.59 1343.45 1536.01 Q1340.39 1531.4 1340.39 1522.67 Q1340.39 1513.92 1343.45 1509.34 Q1346.53 1504.73 1352.34 1504.73 Z" fill="#000000" fill-rule="evenodd" fill-opacity="1" /><path clip-path="url(#clip540)" d="M 0 0 M1667.32 1521.29 Q1670.68 1522 1672.55 1524.27 Q1674.45 1526.54 1674.45 1529.87 Q1674.45 1534.99 1670.93 1537.79 Q1667.42 1540.59 1660.93 1540.59 Q1658.76 1540.59 1656.44 1540.15 Q1654.15 1539.73 1651.7 1538.88 L1651.7 1534.36 Q1653.64 1535.5 1655.96 1536.08 Q1658.27 1536.66 1660.8 1536.66 Q1665.19 1536.66 1667.49 1534.92 Q1669.8 1533.18 1669.8 1529.87 Q1669.8 1526.82 1667.65 1525.11 Q1665.52 1523.37 1661.7 1523.37 L1657.67 1523.37 L1657.67 1519.53 L1661.88 1519.53 Q1665.33 1519.53 1667.16 1518.16 Q1668.99 1516.77 1668.99 1514.18 Q1668.99 1511.52 1667.09 1510.11 Q1665.22 1508.67 1661.7 1508.67 Q1659.78 1508.67 1657.58 1509.09 Q1655.38 1509.5 1652.74 1510.38 L1652.74 1506.22 Q1655.4 1505.48 1657.72 1505.11 Q1660.05 1504.73 1662.11 1504.73 Q1667.44 1504.73 1670.54 1507.17 Q1673.64 1509.57 1673.64 1513.69 Q1673.64 1516.56 1672 1518.55 Q1670.36 1520.52 1667.32 1521.29 Z" fill="#000000" fill-rule="evenodd" fill-opacity="1" /><path clip-path="url(#clip540)" d="M 0 0 M1679.52 1534.04 L1684.41 1534.04 L1684.41 1539.92 L1679.52 1539.92 L1679.52 1534.04 Z" fill="#000000" fill-rule="evenodd" fill-opacity="1" /><path clip-path="url(#clip540)" d="M 0 0 M1689.52 1505.36 L1707.88 1505.36 L1707.88 1509.3 L1693.8 1509.3 L1693.8 1517.77 Q1694.82 1517.42 1695.84 1517.26 Q1696.86 1517.07 1697.88 1517.07 Q1703.67 1517.07 1707.05 1520.24 Q1710.42 1523.42 1710.42 1528.83 Q1710.42 1534.41 1706.95 1537.51 Q1703.48 1540.59 1697.16 1540.59 Q1694.99 1540.59 1692.72 1540.22 Q1690.47 1539.85 1688.06 1539.11 L1688.06 1534.41 Q1690.15 1535.54 1692.37 1536.1 Q1694.59 1536.66 1697.07 1536.66 Q1701.07 1536.66 1703.41 1534.55 Q1705.75 1532.44 1705.75 1528.83 Q1705.75 1525.22 1703.41 1523.11 Q1701.07 1521.01 1697.07 1521.01 Q1695.19 1521.01 1693.32 1521.42 Q1691.47 1521.84 1689.52 1522.72 L1689.52 1505.36 Z" fill="#000000" fill-rule="evenodd" fill-opacity="1" /><path clip-path="url(#clip540)" d="M 0 0 M2012.23 1509.43 L2000.42 1527.88 L2012.23 1527.88 L2012.23 1509.43 M2011 1505.36 L2016.88 1505.36 L2016.88 1527.88 L2021.81 1527.88 L2021.81 1531.77 L2016.88 1531.77 L2016.88 1539.92 L2012.23 1539.92 L2012.23 1531.77 L1996.63 1531.77 L1996.63 1527.26 L2011 1505.36 Z" fill="#000000" fill-rule="evenodd" fill-opacity="1" /><path clip-path="url(#clip540)" d="M 0 0 M2026.88 1534.04 L2031.77 1534.04 L2031.77 1539.92 L2026.88 1539.92 L2026.88 1534.04 Z" fill="#000000" fill-rule="evenodd" fill-opacity="1" /><path clip-path="url(#clip540)" d="M 0 0 M2046.84 1508.44 Q2043.22 1508.44 2041.4 1512 Q2039.59 1515.55 2039.59 1522.67 Q2039.59 1529.78 2041.4 1533.35 Q2043.22 1536.89 2046.84 1536.89 Q2050.47 1536.89 2052.28 1533.35 Q2054.1 1529.78 2054.1 1522.67 Q2054.1 1515.55 2052.28 1512 Q2050.47 1508.44 2046.84 1508.44 M2046.84 1504.73 Q2052.65 1504.73 2055.7 1509.34 Q2058.78 1513.92 2058.78 1522.67 Q2058.78 1531.4 2055.7 1536.01 Q2052.65 1540.59 2046.84 1540.59 Q2041.03 1540.59 2037.95 1536.01 Q2034.89 1531.4 2034.89 1522.67 Q2034.89 1513.92 2037.95 1509.34 Q2041.03 1504.73 2046.84 1504.73 Z" fill="#000000" fill-rule="evenodd" fill-opacity="1" /><path clip-path="url(#clip540)" d="M 0 0 M62.9921 1455.47 L75.4689 1455.47 L75.4689 1459.26 L62.9921 1459.26 L62.9921 1455.47 Z" fill="#000000" fill-rule="evenodd" fill-opacity="1" /><path clip-path="url(#clip540)" d="M 0 0 M81.3485 1466.41 L88.9874 1466.41 L88.9874 1440.05 L80.6772 1441.72 L80.6772 1437.46 L88.9411 1435.79 L93.617 1435.79 L93.617 1466.41 L101.256 1466.41 L101.256 1470.35 L81.3485 1470.35 L81.3485 1466.41 Z" fill="#000000" fill-rule="evenodd" fill-opacity="1" /><path clip-path="url(#clip540)" d="M 0 0 M116.325 1438.87 Q112.714 1438.87 110.885 1442.43 Q109.08 1445.97 109.08 1453.1 Q109.08 1460.21 110.885 1463.78 Q112.714 1467.32 116.325 1467.32 Q119.959 1467.32 121.765 1463.78 Q123.594 1460.21 123.594 1453.1 Q123.594 1445.97 121.765 1442.43 Q119.959 1438.87 116.325 1438.87 M116.325 1435.16 Q122.135 1435.16 125.191 1439.77 Q128.27 1444.35 128.27 1453.1 Q128.27 1461.83 125.191 1466.44 Q122.135 1471.02 116.325 1471.02 Q110.515 1471.02 107.436 1466.44 Q104.381 1461.83 104.381 1453.1 Q104.381 1444.35 107.436 1439.77 Q110.515 1435.16 116.325 1435.16 Z" fill="#000000" fill-rule="evenodd" fill-opacity="1" /><path clip-path="url(#clip540)" d="M 0 0 M143.339 1438.87 Q139.728 1438.87 137.899 1442.43 Q136.094 1445.97 136.094 1453.1 Q136.094 1460.21 137.899 1463.78 Q139.728 1467.32 143.339 1467.32 Q146.973 1467.32 148.779 1463.78 Q150.607 1460.21 150.607 1453.1 Q150.607 1445.97 148.779 1442.43 Q146.973 1438.87 143.339 1438.87 M143.339 1435.16 Q149.149 1435.16 152.205 1439.77 Q155.283 1444.35 155.283 1453.1 Q155.283 1461.83 152.205 1466.44 Q149.149 1471.02 143.339 1471.02 Q137.529 1471.02 134.45 1466.44 Q131.395 1461.83 131.395 1453.1 Q131.395 1444.35 134.45 1439.77 Q137.529 1435.16 143.339 1435.16 Z" fill="#000000" fill-rule="evenodd" fill-opacity="1" /><path clip-path="url(#clip540)" d="M 0 0 M170.353 1438.87 Q166.742 1438.87 164.913 1442.43 Q163.107 1445.97 163.107 1453.1 Q163.107 1460.21 164.913 1463.78 Q166.742 1467.32 170.353 1467.32 Q173.987 1467.32 175.792 1463.78 Q177.621 1460.21 177.621 1453.1 Q177.621 1445.97 175.792 1442.43 Q173.987 1438.87 170.353 1438.87 M170.353 1435.16 Q176.163 1435.16 179.218 1439.77 Q182.297 1444.35 182.297 1453.1 Q182.297 1461.83 179.218 1466.44 Q176.163 1471.02 170.353 1471.02 Q164.543 1471.02 161.464 1466.44 Q158.408 1461.83 158.408 1453.1 Q158.408 1444.35 161.464 1439.77 Q164.543 1435.16 170.353 1435.16 Z" fill="#000000" fill-rule="evenodd" fill-opacity="1" /><path clip-path="url(#clip540)" d="M 0 0 M88.8716 1094.9 L101.348 1094.9 L101.348 1098.7 L88.8716 1098.7 L88.8716 1094.9 Z" fill="#000000" fill-rule="evenodd" fill-opacity="1" /><path clip-path="url(#clip540)" d="M 0 0 M116.418 1093.37 Q113.084 1093.37 111.163 1095.15 Q109.265 1096.94 109.265 1100.06 Q109.265 1103.19 111.163 1104.97 Q113.084 1106.75 116.418 1106.75 Q119.751 1106.75 121.672 1104.97 Q123.594 1103.16 123.594 1100.06 Q123.594 1096.94 121.672 1095.15 Q119.774 1093.37 116.418 1093.37 M111.742 1091.38 Q108.733 1090.64 107.043 1088.58 Q105.376 1086.52 105.376 1083.56 Q105.376 1079.41 108.316 1077.01 Q111.279 1074.6 116.418 1074.6 Q121.58 1074.6 124.52 1077.01 Q127.459 1079.41 127.459 1083.56 Q127.459 1086.52 125.77 1088.58 Q124.103 1090.64 121.117 1091.38 Q124.496 1092.17 126.371 1094.46 Q128.27 1096.75 128.27 1100.06 Q128.27 1105.08 125.191 1107.77 Q122.135 1110.45 116.418 1110.45 Q110.7 1110.45 107.622 1107.77 Q104.566 1105.08 104.566 1100.06 Q104.566 1096.75 106.464 1094.46 Q108.362 1092.17 111.742 1091.38 M110.029 1084 Q110.029 1086.68 111.696 1088.19 Q113.385 1089.69 116.418 1089.69 Q119.427 1089.69 121.117 1088.19 Q122.83 1086.68 122.83 1084 Q122.83 1081.31 121.117 1079.81 Q119.427 1078.3 116.418 1078.3 Q113.385 1078.3 111.696 1079.81 Q110.029 1081.31 110.029 1084 Z" fill="#000000" fill-rule="evenodd" fill-opacity="1" /><path clip-path="url(#clip540)" d="M 0 0 M143.339 1078.3 Q139.728 1078.3 137.899 1081.87 Q136.094 1085.41 136.094 1092.54 Q136.094 1099.64 137.899 1103.21 Q139.728 1106.75 143.339 1106.75 Q146.973 1106.75 148.779 1103.21 Q150.607 1099.64 150.607 1092.54 Q150.607 1085.41 148.779 1081.87 Q146.973 1078.3 143.339 1078.3 M143.339 1074.6 Q149.149 1074.6 152.205 1079.2 Q155.283 1083.79 155.283 1092.54 Q155.283 1101.26 152.205 1105.87 Q149.149 1110.45 143.339 1110.45 Q137.529 1110.45 134.45 1105.87 Q131.395 1101.26 131.395 1092.54 Q131.395 1083.79 134.45 1079.2 Q137.529 1074.6 143.339 1074.6 Z" fill="#000000" fill-rule="evenodd" fill-opacity="1" /><path clip-path="url(#clip540)" d="M 0 0 M170.353 1078.3 Q166.742 1078.3 164.913 1081.87 Q163.107 1085.41 163.107 1092.54 Q163.107 1099.64 164.913 1103.21 Q166.742 1106.75 170.353 1106.75 Q173.987 1106.75 175.792 1103.21 Q177.621 1099.64 177.621 1092.54 Q177.621 1085.41 175.792 1081.87 Q173.987 1078.3 170.353 1078.3 M170.353 1074.6 Q176.163 1074.6 179.218 1079.2 Q182.297 1083.79 182.297 1092.54 Q182.297 1101.26 179.218 1105.87 Q176.163 1110.45 170.353 1110.45 Q164.543 1110.45 161.464 1105.87 Q158.408 1101.26 158.408 1092.54 Q158.408 1083.79 161.464 1079.2 Q164.543 1074.6 170.353 1074.6 Z" fill="#000000" fill-rule="evenodd" fill-opacity="1" /><path clip-path="url(#clip540)" d="M 0 0 M88.617 734.333 L101.094 734.333 L101.094 738.13 L88.617 738.13 L88.617 734.333 Z" fill="#000000" fill-rule="evenodd" fill-opacity="1" /><path clip-path="url(#clip540)" d="M 0 0 M116.742 730.074 Q113.594 730.074 111.742 732.227 Q109.913 734.38 109.913 738.13 Q109.913 741.856 111.742 744.032 Q113.594 746.185 116.742 746.185 Q119.89 746.185 121.719 744.032 Q123.571 741.856 123.571 738.13 Q123.571 734.38 121.719 732.227 Q119.89 730.074 116.742 730.074 M126.024 715.421 L126.024 719.681 Q124.265 718.847 122.459 718.407 Q120.677 717.968 118.918 717.968 Q114.288 717.968 111.834 721.093 Q109.404 724.218 109.057 730.537 Q110.422 728.523 112.483 727.458 Q114.543 726.37 117.02 726.37 Q122.228 726.37 125.237 729.542 Q128.27 732.69 128.27 738.13 Q128.27 743.454 125.121 746.671 Q121.973 749.889 116.742 749.889 Q110.746 749.889 107.575 745.305 Q104.404 740.699 104.404 731.972 Q104.404 723.778 108.293 718.917 Q112.182 714.033 118.733 714.033 Q120.492 714.033 122.274 714.38 Q124.08 714.727 126.024 715.421 Z" fill="#000000" fill-rule="evenodd" fill-opacity="1" /><path clip-path="url(#clip540)" d="M 0 0 M143.339 717.736 Q139.728 717.736 137.899 721.301 Q136.094 724.843 136.094 731.972 Q136.094 739.079 137.899 742.643 Q139.728 746.185 143.339 746.185 Q146.973 746.185 148.779 742.643 Q150.607 739.079 150.607 731.972 Q150.607 724.843 148.779 721.301 Q146.973 717.736 143.339 717.736 M143.339 714.033 Q149.149 714.033 152.205 718.639 Q155.283 723.222 155.283 731.972 Q155.283 740.699 152.205 745.305 Q149.149 749.889 143.339 749.889 Q137.529 749.889 134.45 745.305 Q131.395 740.699 131.395 731.972 Q131.395 723.222 134.45 718.639 Q137.529 714.033 143.339 714.033 Z" fill="#000000" fill-rule="evenodd" fill-opacity="1" /><path clip-path="url(#clip540)" d="M 0 0 M170.353 717.736 Q166.742 717.736 164.913 721.301 Q163.107 724.843 163.107 731.972 Q163.107 739.079 164.913 742.643 Q166.742 746.185 170.353 746.185 Q173.987 746.185 175.792 742.643 Q177.621 739.079 177.621 731.972 Q177.621 724.843 175.792 721.301 Q173.987 717.736 170.353 717.736 M170.353 714.033 Q176.163 714.033 179.218 718.639 Q182.297 723.222 182.297 731.972 Q182.297 740.699 179.218 745.305 Q176.163 749.889 170.353 749.889 Q164.543 749.889 161.464 745.305 Q158.408 740.699 158.408 731.972 Q158.408 723.222 161.464 718.639 Q164.543 714.033 170.353 714.033 Z" fill="#000000" fill-rule="evenodd" fill-opacity="1" /><path clip-path="url(#clip540)" d="M 0 0 M88.2929 373.767 L100.77 373.767 L100.77 377.564 L88.2929 377.564 L88.2929 373.767 Z" fill="#000000" fill-rule="evenodd" fill-opacity="1" /><path clip-path="url(#clip540)" d="M 0 0 M118.686 358.166 L106.881 376.615 L118.686 376.615 L118.686 358.166 M117.459 354.092 L123.339 354.092 L123.339 376.615 L128.27 376.615 L128.27 380.504 L123.339 380.504 L123.339 388.652 L118.686 388.652 L118.686 380.504 L103.085 380.504 L103.085 375.99 L117.459 354.092 Z" fill="#000000" fill-rule="evenodd" fill-opacity="1" /><path clip-path="url(#clip540)" d="M 0 0 M143.339 357.17 Q139.728 357.17 137.899 360.735 Q136.094 364.277 136.094 371.406 Q136.094 378.513 137.899 382.078 Q139.728 385.619 143.339 385.619 Q146.973 385.619 148.779 382.078 Q150.607 378.513 150.607 371.406 Q150.607 364.277 148.779 360.735 Q146.973 357.17 143.339 357.17 M143.339 353.467 Q149.149 353.467 152.205 358.073 Q155.283 362.656 155.283 371.406 Q155.283 380.133 152.205 384.74 Q149.149 389.323 143.339 389.323 Q137.529 389.323 134.45 384.74 Q131.395 380.133 131.395 371.406 Q131.395 362.656 134.45 358.073 Q137.529 353.467 143.339 353.467 Z" fill="#000000" fill-rule="evenodd" fill-opacity="1" /><path clip-path="url(#clip540)" d="M 0 0 M170.353 357.17 Q166.742 357.17 164.913 360.735 Q163.107 364.277 163.107 371.406 Q163.107 378.513 164.913 382.078 Q166.742 385.619 170.353 385.619 Q173.987 385.619 175.792 382.078 Q177.621 378.513 177.621 371.406 Q177.621 364.277 175.792 360.735 Q173.987 357.17 170.353 357.17 M170.353 353.467 Q176.163 353.467 179.218 358.073 Q182.297 362.656 182.297 371.406 Q182.297 380.133 179.218 384.74 Q176.163 389.323 170.353 389.323 Q164.543 389.323 161.464 384.74 Q158.408 380.133 158.408 371.406 Q158.408 362.656 161.464 358.073 Q164.543 353.467 170.353 353.467 Z" fill="#000000" fill-rule="evenodd" fill-opacity="1" /><polyline clip-path="url(#clip542)" style="stroke:#009af9; stroke-width:4; stroke-opacity:1; fill:none" points="
  267.046,1445.72 492.042,1242.04 717.037,1090.23 942.033,971.749 1167.03,876.142 1392.02,797.001 1617.02,730.165 1842.02,672.799 2067.01,622.9 2292.01,579.007 
  
  "/>
<polyline clip-path="url(#clip542)" style="stroke:#e26f46; stroke-width:4; stroke-opacity:1; fill:none" points="
  267.046,1009.4 492.042,895.092 717.037,804.924 942.033,731.358 1167.03,669.804 1392.02,617.282 1617.02,571.763 1842.02,528.651 2067.01,485.845 2292.01,443.305 
  
  "/>
<polyline clip-path="url(#clip542)" style="stroke:#3da44d; stroke-width:4; stroke-opacity:1; fill:none" points="
  267.046,754.016 492.042,680.798 717.037,621.04 942.033,570.898 1167.03,526.204 1392.02,483.271 1617.02,441.044 1842.02,399.26 2067.01,357.774 2292.01,316.546 
  
  "/>
<polyline clip-path="url(#clip542)" style="stroke:#c271d2; stroke-width:4; stroke-opacity:1; fill:none" points="
  267.046,585.126 492.042,533.555 717.037,487.639 942.033,443.932 1167.03,401.451 1392.02,359.84 1617.02,318.913 1842.02,278.418 2067.01,238.211 2292.01,198.254 
  
  "/>
<polyline clip-path="url(#clip542)" style="stroke:#ac8d18; stroke-width:4; stroke-opacity:1; fill:none" points="
  267.046,458.775 492.042,412.462 717.037,368.453 942.033,326.087 1167.03,284.912 1392.02,244.582 1617.02,204.914 1842.02,165.668 2067.01,126.701 2292.01,87.9763 
  
  "/>
<path clip-path="url(#clip540)" d="
M1981.59 493.644 L2280.76 493.644 L2280.76 130.764 L1981.59 130.764  Z
  " fill="#ffffff" fill-rule="evenodd" fill-opacity="1"/>
<polyline clip-path="url(#clip540)" style="stroke:#000000; stroke-width:4; stroke-opacity:1; fill:none" points="
  1981.59,493.644 2280.76,493.644 2280.76,130.764 1981.59,130.764 1981.59,493.644 
  "/>
<polyline clip-path="url(#clip540)" style="stroke:#009af9; stroke-width:4; stroke-opacity:1; fill:none" points="
  2005.59,191.244 2149.59,191.244 
  "/>
<path clip-path="url(#clip540)" d="M 0 0 M2186.78 208.524 L2173.59 173.964 L2178.47 173.964 L2189.42 203.061 L2200.39 173.964 L2205.26 173.964 L2192.08 208.524 L2186.78 208.524 Z" fill="#000000" fill-rule="evenodd" fill-opacity="1" /><path clip-path="url(#clip540)" d="M 0 0 M2220.33 177.043 Q2216.71 177.043 2214.89 180.608 Q2213.08 184.149 2213.08 191.279 Q2213.08 198.385 2214.89 201.95 Q2216.71 205.492 2220.33 205.492 Q2223.96 205.492 2225.77 201.95 Q2227.59 198.385 2227.59 191.279 Q2227.59 184.149 2225.77 180.608 Q2223.96 177.043 2220.33 177.043 M2220.33 173.339 Q2226.14 173.339 2229.19 177.946 Q2232.27 182.529 2232.27 191.279 Q2232.27 200.006 2229.19 204.612 Q2226.14 209.195 2220.33 209.195 Q2214.52 209.195 2211.44 204.612 Q2208.38 200.006 2208.38 191.279 Q2208.38 182.529 2211.44 177.946 Q2214.52 173.339 2220.33 173.339 Z" fill="#000000" fill-rule="evenodd" fill-opacity="1" /><polyline clip-path="url(#clip540)" style="stroke:#e26f46; stroke-width:4; stroke-opacity:1; fill:none" points="
  2005.59,251.724 2149.59,251.724 
  "/>
<path clip-path="url(#clip540)" d="M 0 0 M2186.78 269.004 L2173.59 234.444 L2178.47 234.444 L2189.42 263.541 L2200.39 234.444 L2205.26 234.444 L2192.08 269.004 L2186.78 269.004 Z" fill="#000000" fill-rule="evenodd" fill-opacity="1" /><path clip-path="url(#clip540)" d="M 0 0 M2211.14 265.069 L2218.77 265.069 L2218.77 238.703 L2210.46 240.37 L2210.46 236.111 L2218.73 234.444 L2223.4 234.444 L2223.4 265.069 L2231.04 265.069 L2231.04 269.004 L2211.14 269.004 L2211.14 265.069 Z" fill="#000000" fill-rule="evenodd" fill-opacity="1" /><polyline clip-path="url(#clip540)" style="stroke:#3da44d; stroke-width:4; stroke-opacity:1; fill:none" points="
  2005.59,312.204 2149.59,312.204 
  "/>
<path clip-path="url(#clip540)" d="M 0 0 M2186.78 329.484 L2173.59 294.924 L2178.47 294.924 L2189.42 324.021 L2200.39 294.924 L2205.26 294.924 L2192.08 329.484 L2186.78 329.484 Z" fill="#000000" fill-rule="evenodd" fill-opacity="1" /><path clip-path="url(#clip540)" d="M 0 0 M2214.35 325.549 L2230.67 325.549 L2230.67 329.484 L2208.73 329.484 L2208.73 325.549 Q2211.39 322.794 2215.97 318.165 Q2220.58 313.512 2221.76 312.169 Q2224.01 309.646 2224.89 307.91 Q2225.79 306.151 2225.79 304.461 Q2225.79 301.706 2223.84 299.97 Q2221.92 298.234 2218.82 298.234 Q2216.62 298.234 2214.17 298.998 Q2211.74 299.762 2208.96 301.313 L2208.96 296.591 Q2211.78 295.456 2214.24 294.878 Q2216.69 294.299 2218.73 294.299 Q2224.1 294.299 2227.29 296.984 Q2230.49 299.669 2230.49 304.16 Q2230.49 306.29 2229.68 308.211 Q2228.89 310.109 2226.78 312.702 Q2226.21 313.373 2223.1 316.591 Q2220 319.785 2214.35 325.549 Z" fill="#000000" fill-rule="evenodd" fill-opacity="1" /><polyline clip-path="url(#clip540)" style="stroke:#c271d2; stroke-width:4; stroke-opacity:1; fill:none" points="
  2005.59,372.684 2149.59,372.684 
  "/>
<path clip-path="url(#clip540)" d="M 0 0 M2186.78 389.964 L2173.59 355.404 L2178.47 355.404 L2189.42 384.501 L2200.39 355.404 L2205.26 355.404 L2192.08 389.964 L2186.78 389.964 Z" fill="#000000" fill-rule="evenodd" fill-opacity="1" /><path clip-path="url(#clip540)" d="M 0 0 M2224.49 371.33 Q2227.85 372.048 2229.72 374.316 Q2231.62 376.585 2231.62 379.918 Q2231.62 385.034 2228.1 387.834 Q2224.58 390.635 2218.1 390.635 Q2215.93 390.635 2213.61 390.196 Q2211.32 389.779 2208.87 388.922 L2208.87 384.409 Q2210.81 385.543 2213.13 386.122 Q2215.44 386.7 2217.96 386.7 Q2222.36 386.7 2224.65 384.964 Q2226.97 383.228 2226.97 379.918 Q2226.97 376.862 2224.82 375.149 Q2222.69 373.413 2218.87 373.413 L2214.84 373.413 L2214.84 369.571 L2219.05 369.571 Q2222.5 369.571 2224.33 368.205 Q2226.16 366.816 2226.16 364.223 Q2226.16 361.561 2224.26 360.149 Q2222.39 358.714 2218.87 358.714 Q2216.95 358.714 2214.75 359.131 Q2212.55 359.548 2209.91 360.427 L2209.91 356.261 Q2212.57 355.52 2214.89 355.149 Q2217.22 354.779 2219.28 354.779 Q2224.61 354.779 2227.71 357.21 Q2230.81 359.617 2230.81 363.737 Q2230.81 366.608 2229.17 368.598 Q2227.52 370.566 2224.49 371.33 Z" fill="#000000" fill-rule="evenodd" fill-opacity="1" /><polyline clip-path="url(#clip540)" style="stroke:#ac8d18; stroke-width:4; stroke-opacity:1; fill:none" points="
  2005.59,433.164 2149.59,433.164 
  "/>
<path clip-path="url(#clip540)" d="M 0 0 M2186.78 450.444 L2173.59 415.884 L2178.47 415.884 L2189.42 444.981 L2200.39 415.884 L2205.26 415.884 L2192.08 450.444 L2186.78 450.444 Z" fill="#000000" fill-rule="evenodd" fill-opacity="1" /><path clip-path="url(#clip540)" d="M 0 0 M2223.17 419.958 L2211.37 438.407 L2223.17 438.407 L2223.17 419.958 M2221.95 415.884 L2227.83 415.884 L2227.83 438.407 L2232.76 438.407 L2232.76 442.296 L2227.83 442.296 L2227.83 450.444 L2223.17 450.444 L2223.17 442.296 L2207.57 442.296 L2207.57 437.782 L2221.95 415.884 Z" fill="#000000" fill-rule="evenodd" fill-opacity="1" /></svg>
