<?xml version="1.0" encoding="utf-8"?>
<svg xmlns="http://www.w3.org/2000/svg" xmlns:xlink="http://www.w3.org/1999/xlink" width="600" height="400" viewBox="0 0 2400 1600">
<defs>
  <clipPath id="clip700">
    <rect x="0" y="0" width="2400" height="1600"/>
  </clipPath>
</defs>
<path clip-path="url(#clip700)" d="
M0 1600 L2400 1600 L2400 0 L0 0  Z
  " fill="#ffffff" fill-rule="evenodd" fill-opacity="1"/>
<defs>
  <clipPath id="clip701">
    <rect x="480" y="0" width="1681" height="1600"/>
  </clipPath>
</defs>
<path clip-path="url(#clip700)" d="
M189.237 1486.45 L1173.54 1486.45 L1173.54 123.472 L189.237 123.472  Z
  " fill="#ffffff" fill-rule="evenodd" fill-opacity="1"/>
<defs>
  <clipPath id="clip702">
    <rect x="189" y="123" width="985" height="1364"/>
  </clipPath>
</defs>
<polyline clip-path="url(#clip702)" style="stroke:#000000; stroke-width:2; stroke-opacity:0.1; fill:none" points="
  229.681,1486.45 229.681,123.472 
  "/>
<polyline clip-path="url(#clip702)" style="stroke:#000000; stroke-width:2; stroke-opacity:0.1; fill:none" points="
  388.641,1486.45 388.641,123.472 
  "/>
<polyline clip-path="url(#clip702)" style="stroke:#000000; stroke-width:2; stroke-opacity:0.1; fill:none" points="
  547.602,1486.45 547.602,123.472 
  "/>
<polyline clip-path="url(#clip702)" style="stroke:#000000; stroke-width:2; stroke-opacity:0.1; fill:none" points="
  706.562,1486.45 706.562,123.472 
  "/>
<polyline clip-path="url(#clip702)" style="stroke:#000000; stroke-width:2; stroke-opacity:0.1; fill:none" points="
  865.523,1486.45 865.523,123.472 
  "/>
<polyline clip-path="url(#clip702)" style="stroke:#000000; stroke-width:2; stroke-opacity:0.1; fill:none" points="
  1024.48,1486.45 1024.48,123.472 
  "/>
<polyline clip-path="url(#clip702)" style="stroke:#000000; stroke-width:2; stroke-opacity:0.1; fill:none" points="
  189.237,1309.53 1173.54,1309.53 
  "/>
<polyline clip-path="url(#clip702)" style="stroke:#000000; stroke-width:2; stroke-opacity:0.1; fill:none" points="
  189.237,1066.56 1173.54,1066.56 
  "/>
<polyline clip-path="url(#clip702)" style="stroke:#000000; stroke-width:2; stroke-opacity:0.1; fill:none" points="
  189.237,823.586 1173.54,823.586 
  "/>
<polyline clip-path="url(#clip702)" style="stroke:#000000; stroke-width:2; stroke-opacity:0.1; fill:none" points="
  189.237,580.615 1173.54,580.615 
  "/>
<polyline clip-path="url(#clip702)" style="stroke:#000000; stroke-width:2; stroke-opacity:0.1; fill:none" points="
  189.237,337.645 1173.54,337.645 
  "/>
<polyline clip-path="url(#clip700)" style="stroke:#000000; stroke-width:4; stroke-opacity:1; fill:none" points="
  189.237,1486.45 1173.54,1486.45 
  "/>
<polyline clip-path="url(#clip700)" style="stroke:#000000; stroke-width:4; stroke-opacity:1; fill:none" points="
  189.237,1486.45 189.237,123.472 
  "/>
<polyline clip-path="url(#clip700)" style="stroke:#000000; stroke-width:4; stroke-opacity:1; fill:none" points="
  229.681,1486.45 229.681,1470.09 
  "/>
<polyline clip-path="url(#clip700)" style="stroke:#000000; stroke-width:4; stroke-opacity:1; fill:none" points="
  388.641,1486.45 388.641,1470.09 
  "/>
<polyline clip-path="url(#clip700)" style="stroke:#000000; stroke-width:4; stroke-opacity:1; fill:none" points="
  547.602,1486.45 547.602,1470.09 
  "/>
<polyline clip-path="url(#clip700)" style="stroke:#000000; stroke-width:4; stroke-opacity:1; fill:none" points="
  706.562,1486.45 706.562,1470.09 
  "/>
<polyline clip-path="url(#clip700)" style="stroke:#000000; stroke-width:4; stroke-opacity:1; fill:none" points="
  865.523,1486.45 865.523,1470.09 
  "/>
<polyline clip-path="url(#clip700)" style="stroke:#000000; stroke-width:4; stroke-opacity:1; fill:none" points="
  1024.48,1486.45 1024.48,1470.09 
  "/>
<polyline clip-path="url(#clip700)" style="stroke:#000000; stroke-width:4; stroke-opacity:1; fill:none" points="
  189.237,1309.53 201.049,1309.53 
  "/>
<polyline clip-path="url(#clip700)" style="stroke:#000000; stroke-width:4; stroke-opacity:1; fill:none" points="
  189.237,1066.56 201.049,1066.56 
  "/>
<polyline clip-path="url(#clip700)" style="stroke:#000000; stroke-width:4; stroke-opacity:1; fill:none" points="
  189.237,823.586 201.049,823.586 
  "/>
<polyline clip-path="url(#clip700)" style="stroke:#000000; stroke-width:4; stroke-opacity:1; fill:none" points="
  189.237,580.615 201.049,580.615 
  "/>
<polyline clip-path="url(#clip700)" style="stroke:#000000; stroke-width:4; stroke-opacity:1; fill:none" points="
  189.237,337.645 201.049,337.645 
  "/>
<path clip-path="url(#clip700)" d="M 0 0 M202.077 1535.98 L209.716 1535.98 L209.716 1509.62 L201.405 1511.29 L201.405 1507.03 L209.669 1505.36 L214.345 1505.36 L214.345 1535.98 L221.984 1535.98 L221.984 1539.92 L202.077 1539.92 L202.077 1535.98 Z" fill="#000000" fill-rule="evenodd" fill-opacity="1" /><path clip-path="url(#clip700)" d="M 0 0 M227.054 1534.04 L231.938 1534.04 L231.938 1539.92 L227.054 1539.92 L227.054 1534.04 Z" fill="#000000" fill-rule="evenodd" fill-opacity="1" /><path clip-path="url(#clip700)" d="M 0 0 M237.053 1505.36 L255.41 1505.36 L255.41 1509.3 L241.336 1509.3 L241.336 1517.77 Q242.354 1517.42 243.373 1517.26 Q244.391 1517.07 245.41 1517.07 Q251.197 1517.07 254.577 1520.24 Q257.956 1523.42 257.956 1528.83 Q257.956 1534.41 254.484 1537.51 Q251.012 1540.59 244.692 1540.59 Q242.516 1540.59 240.248 1540.22 Q238.003 1539.85 235.595 1539.11 L235.595 1534.41 Q237.678 1535.54 239.901 1536.1 Q242.123 1536.66 244.6 1536.66 Q248.604 1536.66 250.942 1534.55 Q253.28 1532.44 253.28 1528.83 Q253.28 1525.22 250.942 1523.11 Q248.604 1521.01 244.6 1521.01 Q242.725 1521.01 240.85 1521.42 Q238.998 1521.84 237.053 1522.72 L237.053 1505.36 Z" fill="#000000" fill-rule="evenodd" fill-opacity="1" /><path clip-path="url(#clip700)" d="M 0 0 M364.81 1535.98 L381.13 1535.98 L381.13 1539.92 L359.185 1539.92 L359.185 1535.98 Q361.847 1533.23 366.431 1528.6 Q371.037 1523.95 372.218 1522.61 Q374.463 1520.08 375.343 1518.35 Q376.246 1516.59 376.246 1514.9 Q376.246 1512.14 374.301 1510.41 Q372.38 1508.67 369.278 1508.67 Q367.079 1508.67 364.625 1509.43 Q362.195 1510.2 359.417 1511.75 L359.417 1507.03 Q362.241 1505.89 364.695 1505.31 Q367.148 1504.73 369.185 1504.73 Q374.556 1504.73 377.75 1507.42 Q380.945 1510.11 380.945 1514.6 Q380.945 1516.73 380.134 1518.65 Q379.347 1520.54 377.241 1523.14 Q376.662 1523.81 373.56 1527.03 Q370.458 1530.22 364.81 1535.98 Z" fill="#000000" fill-rule="evenodd" fill-opacity="1" /><path clip-path="url(#clip700)" d="M 0 0 M386.199 1534.04 L391.083 1534.04 L391.083 1539.92 L386.199 1539.92 L386.199 1534.04 Z" fill="#000000" fill-rule="evenodd" fill-opacity="1" /><path clip-path="url(#clip700)" d="M 0 0 M406.153 1508.44 Q402.542 1508.44 400.713 1512 Q398.907 1515.55 398.907 1522.67 Q398.907 1529.78 400.713 1533.35 Q402.542 1536.89 406.153 1536.89 Q409.787 1536.89 411.593 1533.35 Q413.421 1529.78 413.421 1522.67 Q413.421 1515.55 411.593 1512 Q409.787 1508.44 406.153 1508.44 M406.153 1504.73 Q411.963 1504.73 415.018 1509.34 Q418.097 1513.92 418.097 1522.67 Q418.097 1531.4 415.018 1536.01 Q411.963 1540.59 406.153 1540.59 Q400.343 1540.59 397.264 1536.01 Q394.208 1531.4 394.208 1522.67 Q394.208 1513.92 397.264 1509.34 Q400.343 1504.73 406.153 1504.73 Z" fill="#000000" fill-rule="evenodd" fill-opacity="1" /><path clip-path="url(#clip700)" d="M 0 0 M524.269 1535.98 L540.588 1535.98 L540.588 1539.92 L518.644 1539.92 L518.644 1535.98 Q521.306 1533.23 525.889 1528.6 Q530.495 1523.95 531.676 1522.61 Q533.921 1520.08 534.801 1518.35 Q535.704 1516.59 535.704 1514.9 Q535.704 1512.14 533.759 1510.41 Q531.838 1508.67 528.736 1508.67 Q526.537 1508.67 524.083 1509.43 Q521.653 1510.2 518.875 1511.75 L518.875 1507.03 Q521.699 1505.89 524.153 1505.31 Q526.606 1504.73 528.643 1504.73 Q534.014 1504.73 537.208 1507.42 Q540.403 1510.11 540.403 1514.6 Q540.403 1516.73 539.593 1518.65 Q538.805 1520.54 536.699 1523.14 Q536.12 1523.81 533.018 1527.03 Q529.917 1530.22 524.269 1535.98 Z" fill="#000000" fill-rule="evenodd" fill-opacity="1" /><path clip-path="url(#clip700)" d="M 0 0 M545.657 1534.04 L550.542 1534.04 L550.542 1539.92 L545.657 1539.92 L545.657 1534.04 Z" fill="#000000" fill-rule="evenodd" fill-opacity="1" /><path clip-path="url(#clip700)" d="M 0 0 M555.657 1505.36 L574.014 1505.36 L574.014 1509.3 L559.94 1509.3 L559.94 1517.77 Q560.958 1517.42 561.977 1517.26 Q562.995 1517.07 564.014 1517.07 Q569.801 1517.07 573.18 1520.24 Q576.56 1523.42 576.56 1528.83 Q576.56 1534.41 573.088 1537.51 Q569.615 1540.59 563.296 1540.59 Q561.12 1540.59 558.852 1540.22 Q556.606 1539.85 554.199 1539.11 L554.199 1534.41 Q556.282 1535.54 558.504 1536.1 Q560.727 1536.66 563.203 1536.66 Q567.208 1536.66 569.546 1534.55 Q571.884 1532.44 571.884 1528.83 Q571.884 1525.22 569.546 1523.11 Q567.208 1521.01 563.203 1521.01 Q561.329 1521.01 559.454 1521.42 Q557.602 1521.84 555.657 1522.72 L555.657 1505.36 Z" fill="#000000" fill-rule="evenodd" fill-opacity="1" /><path clip-path="url(#clip700)" d="M 0 0 M692.326 1521.29 Q695.683 1522 697.558 1524.27 Q699.456 1526.54 699.456 1529.87 Q699.456 1534.99 695.937 1537.79 Q692.419 1540.59 685.937 1540.59 Q683.761 1540.59 681.447 1540.15 Q679.155 1539.73 676.701 1538.88 L676.701 1534.36 Q678.646 1535.5 680.96 1536.08 Q683.275 1536.66 685.798 1536.66 Q690.197 1536.66 692.488 1534.92 Q694.803 1533.18 694.803 1529.87 Q694.803 1526.82 692.65 1525.11 Q690.521 1523.37 686.701 1523.37 L682.673 1523.37 L682.673 1519.53 L686.886 1519.53 Q690.335 1519.53 692.164 1518.16 Q693.993 1516.77 693.993 1514.18 Q693.993 1511.52 692.095 1510.11 Q690.22 1508.67 686.701 1508.67 Q684.78 1508.67 682.581 1509.09 Q680.382 1509.5 677.743 1510.38 L677.743 1506.22 Q680.405 1505.48 682.72 1505.11 Q685.058 1504.73 687.118 1504.73 Q692.442 1504.73 695.544 1507.17 Q698.646 1509.57 698.646 1513.69 Q698.646 1516.56 697.002 1518.55 Q695.359 1520.52 692.326 1521.29 Z" fill="#000000" fill-rule="evenodd" fill-opacity="1" /><path clip-path="url(#clip700)" d="M 0 0 M704.525 1534.04 L709.409 1534.04 L709.409 1539.92 L704.525 1539.92 L704.525 1534.04 Z" fill="#000000" fill-rule="evenodd" fill-opacity="1" /><path clip-path="url(#clip700)" d="M 0 0 M724.479 1508.44 Q720.868 1508.44 719.039 1512 Q717.233 1515.55 717.233 1522.67 Q717.233 1529.78 719.039 1533.35 Q720.868 1536.89 724.479 1536.89 Q728.113 1536.89 729.919 1533.35 Q731.747 1529.78 731.747 1522.67 Q731.747 1515.55 729.919 1512 Q728.113 1508.44 724.479 1508.44 M724.479 1504.73 Q730.289 1504.73 733.344 1509.34 Q736.423 1513.92 736.423 1522.67 Q736.423 1531.4 733.344 1536.01 Q730.289 1540.59 724.479 1540.59 Q718.669 1540.59 715.59 1536.01 Q712.534 1531.4 712.534 1522.67 Q712.534 1513.92 715.59 1509.34 Q718.669 1504.73 724.479 1504.73 Z" fill="#000000" fill-rule="evenodd" fill-opacity="1" /><path clip-path="url(#clip700)" d="M 0 0 M851.784 1521.29 Q855.141 1522 857.016 1524.27 Q858.914 1526.54 858.914 1529.87 Q858.914 1534.99 855.395 1537.79 Q851.877 1540.59 845.395 1540.59 Q843.22 1540.59 840.905 1540.15 Q838.613 1539.73 836.159 1538.88 L836.159 1534.36 Q838.104 1535.5 840.419 1536.08 Q842.733 1536.66 845.257 1536.66 Q849.655 1536.66 851.946 1534.92 Q854.261 1533.18 854.261 1529.87 Q854.261 1526.82 852.108 1525.11 Q849.979 1523.37 846.159 1523.37 L842.132 1523.37 L842.132 1519.53 L846.345 1519.53 Q849.794 1519.53 851.622 1518.16 Q853.451 1516.77 853.451 1514.18 Q853.451 1511.52 851.553 1510.11 Q849.678 1508.67 846.159 1508.67 Q844.238 1508.67 842.039 1509.09 Q839.84 1509.5 837.201 1510.38 L837.201 1506.22 Q839.863 1505.48 842.178 1505.11 Q844.516 1504.73 846.576 1504.73 Q851.9 1504.73 855.002 1507.17 Q858.104 1509.57 858.104 1513.69 Q858.104 1516.56 856.46 1518.55 Q854.817 1520.52 851.784 1521.29 Z" fill="#000000" fill-rule="evenodd" fill-opacity="1" /><path clip-path="url(#clip700)" d="M 0 0 M863.983 1534.04 L868.868 1534.04 L868.868 1539.92 L863.983 1539.92 L863.983 1534.04 Z" fill="#000000" fill-rule="evenodd" fill-opacity="1" /><path clip-path="url(#clip700)" d="M 0 0 M873.983 1505.36 L892.34 1505.36 L892.34 1509.3 L878.266 1509.3 L878.266 1517.77 Q879.284 1517.42 880.303 1517.26 Q881.321 1517.07 882.34 1517.07 Q888.127 1517.07 891.506 1520.24 Q894.886 1523.42 894.886 1528.83 Q894.886 1534.41 891.414 1537.51 Q887.942 1540.59 881.622 1540.59 Q879.446 1540.59 877.178 1540.22 Q874.932 1539.85 872.525 1539.11 L872.525 1534.41 Q874.608 1535.54 876.83 1536.1 Q879.053 1536.66 881.53 1536.66 Q885.534 1536.66 887.872 1534.55 Q890.21 1532.44 890.21 1528.83 Q890.21 1525.22 887.872 1523.11 Q885.534 1521.01 881.53 1521.01 Q879.655 1521.01 877.78 1521.42 Q875.928 1521.84 873.983 1522.72 L873.983 1505.36 Z" fill="#000000" fill-rule="evenodd" fill-opacity="1" /><path clip-path="url(#clip700)" d="M 0 0 M1009.01 1509.43 L997.203 1527.88 L1009.01 1527.88 L1009.01 1509.43 M1007.78 1505.36 L1013.66 1505.36 L1013.66 1527.88 L1018.59 1527.88 L1018.59 1531.77 L1013.66 1531.77 L1013.66 1539.92 L1009.01 1539.92 L1009.01 1531.77 L993.407 1531.77 L993.407 1527.26 L1007.78 1505.36 Z" fill="#000000" fill-rule="evenodd" fill-opacity="1" /><path clip-path="url(#clip700)" d="M 0 0 M1023.66 1534.04 L1028.55 1534.04 L1028.55 1539.92 L1023.66 1539.92 L1023.66 1534.04 Z" fill="#000000" fill-rule="evenodd" fill-opacity="1" /><path clip-path="url(#clip700)" d="M 0 0 M1043.61 1508.44 Q1040 1508.44 1038.18 1512 Q1036.37 1515.55 1036.37 1522.67 Q1036.37 1529.78 1038.18 1533.35 Q1040 1536.89 1043.61 1536.89 Q1047.25 1536.89 1049.05 1533.35 Q1050.88 1529.78 1050.88 1522.67 Q1050.88 1515.55 1049.05 1512 Q1047.25 1508.44 1043.61 1508.44 M1043.61 1504.73 Q1049.43 1504.73 1052.48 1509.34 Q1055.56 1513.92 1055.56 1522.67 Q1055.56 1531.4 1052.48 1536.01 Q1049.43 1540.59 1043.61 1540.59 Q1037.8 1540.59 1034.73 1536.01 Q1031.67 1531.4 1031.67 1522.67 Q1031.67 1513.92 1034.73 1509.34 Q1037.8 1504.73 1043.61 1504.73 Z" fill="#000000" fill-rule="evenodd" fill-opacity="1" /><path clip-path="url(#clip700)" d="M 0 0 M64.5893 1311.92 L77.0661 1311.92 L77.0661 1315.72 L64.5893 1315.72 L64.5893 1311.92 Z" fill="#000000" fill-rule="evenodd" fill-opacity="1" /><path clip-path="url(#clip700)" d="M 0 0 M82.9457 1322.87 L90.5846 1322.87 L90.5846 1296.51 L82.2744 1298.17 L82.2744 1293.91 L90.5383 1292.25 L95.2142 1292.25 L95.2142 1322.87 L102.853 1322.87 L102.853 1326.81 L82.9457 1326.81 L82.9457 1322.87 Z" fill="#000000" fill-rule="evenodd" fill-opacity="1" /><path clip-path="url(#clip700)" d="M 0 0 M111.95 1322.87 L128.27 1322.87 L128.27 1326.81 L106.325 1326.81 L106.325 1322.87 Q108.987 1320.12 113.571 1315.49 Q118.177 1310.84 119.358 1309.49 Q121.603 1306.97 122.483 1305.23 Q123.385 1303.47 123.385 1301.78 Q123.385 1299.03 121.441 1297.29 Q119.52 1295.56 116.418 1295.56 Q114.219 1295.56 111.765 1296.32 Q109.334 1297.09 106.557 1298.64 L106.557 1293.91 Q109.381 1292.78 111.834 1292.2 Q114.288 1291.62 116.325 1291.62 Q121.696 1291.62 124.89 1294.31 Q128.084 1296.99 128.084 1301.48 Q128.084 1303.61 127.274 1305.53 Q126.487 1307.43 124.381 1310.03 Q123.802 1310.7 120.7 1313.91 Q117.598 1317.11 111.95 1322.87 Z" fill="#000000" fill-rule="evenodd" fill-opacity="1" /><path clip-path="url(#clip700)" d="M 0 0 M133.339 1320.93 L138.223 1320.93 L138.223 1326.81 L133.339 1326.81 L133.339 1320.93 Z" fill="#000000" fill-rule="evenodd" fill-opacity="1" /><path clip-path="url(#clip700)" d="M 0 0 M153.293 1295.33 Q149.681 1295.33 147.853 1298.89 Q146.047 1302.43 146.047 1309.56 Q146.047 1316.67 147.853 1320.23 Q149.681 1323.77 153.293 1323.77 Q156.927 1323.77 158.732 1320.23 Q160.561 1316.67 160.561 1309.56 Q160.561 1302.43 158.732 1298.89 Q156.927 1295.33 153.293 1295.33 M153.293 1291.62 Q159.103 1291.62 162.158 1296.23 Q165.237 1300.81 165.237 1309.56 Q165.237 1318.29 162.158 1322.9 Q159.103 1327.48 153.293 1327.48 Q147.482 1327.48 144.404 1322.9 Q141.348 1318.29 141.348 1309.56 Q141.348 1300.81 144.404 1296.23 Q147.482 1291.62 153.293 1291.62 Z" fill="#000000" fill-rule="evenodd" fill-opacity="1" /><path clip-path="url(#clip700)" d="M 0 0 M65.2143 1068.95 L77.6911 1068.95 L77.6911 1072.75 L65.2143 1072.75 L65.2143 1068.95 Z" fill="#000000" fill-rule="evenodd" fill-opacity="1" /><path clip-path="url(#clip700)" d="M 0 0 M83.5707 1079.9 L91.2096 1079.9 L91.2096 1053.54 L82.8994 1055.2 L82.8994 1050.94 L91.1633 1049.28 L95.8392 1049.28 L95.8392 1079.9 L103.478 1079.9 L103.478 1083.84 L83.5707 1083.84 L83.5707 1079.9 Z" fill="#000000" fill-rule="evenodd" fill-opacity="1" /><path clip-path="url(#clip700)" d="M 0 0 M109.358 1079.9 L116.996 1079.9 L116.996 1053.54 L108.686 1055.2 L108.686 1050.94 L116.95 1049.28 L121.626 1049.28 L121.626 1079.9 L129.265 1079.9 L129.265 1083.84 L109.358 1083.84 L109.358 1079.9 Z" fill="#000000" fill-rule="evenodd" fill-opacity="1" /><path clip-path="url(#clip700)" d="M 0 0 M134.334 1077.96 L139.219 1077.96 L139.219 1083.84 L134.334 1083.84 L134.334 1077.96 Z" fill="#000000" fill-rule="evenodd" fill-opacity="1" /><path clip-path="url(#clip700)" d="M 0 0 M144.334 1049.28 L162.691 1049.28 L162.691 1053.21 L148.617 1053.21 L148.617 1061.68 Q149.635 1061.34 150.654 1061.17 Q151.672 1060.99 152.691 1060.99 Q158.478 1060.99 161.857 1064.16 Q165.237 1067.33 165.237 1072.75 Q165.237 1078.33 161.765 1081.43 Q158.293 1084.51 151.973 1084.51 Q149.797 1084.51 147.529 1084.14 Q145.283 1083.77 142.876 1083.03 L142.876 1078.33 Q144.959 1079.46 147.181 1080.02 Q149.404 1080.57 151.881 1080.57 Q155.885 1080.57 158.223 1078.47 Q160.561 1076.36 160.561 1072.75 Q160.561 1069.14 158.223 1067.03 Q155.885 1064.92 151.881 1064.92 Q150.006 1064.92 148.131 1065.34 Q146.279 1065.76 144.334 1066.64 L144.334 1049.28 Z" fill="#000000" fill-rule="evenodd" fill-opacity="1" /><path clip-path="url(#clip700)" d="M 0 0 M64.219 825.982 L76.6958 825.982 L76.6958 829.778 L64.219 829.778 L64.219 825.982 Z" fill="#000000" fill-rule="evenodd" fill-opacity="1" /><path clip-path="url(#clip700)" d="M 0 0 M82.5754 836.931 L90.2142 836.931 L90.2142 810.565 L81.9041 812.232 L81.9041 807.973 L90.1679 806.306 L94.8438 806.306 L94.8438 836.931 L102.483 836.931 L102.483 840.866 L82.5754 840.866 L82.5754 836.931 Z" fill="#000000" fill-rule="evenodd" fill-opacity="1" /><path clip-path="url(#clip700)" d="M 0 0 M108.362 836.931 L116.001 836.931 L116.001 810.565 L107.691 812.232 L107.691 807.973 L115.955 806.306 L120.631 806.306 L120.631 836.931 L128.27 836.931 L128.27 840.866 L108.362 840.866 L108.362 836.931 Z" fill="#000000" fill-rule="evenodd" fill-opacity="1" /><path clip-path="url(#clip700)" d="M 0 0 M133.339 834.986 L138.223 834.986 L138.223 840.866 L133.339 840.866 L133.339 834.986 Z" fill="#000000" fill-rule="evenodd" fill-opacity="1" /><path clip-path="url(#clip700)" d="M 0 0 M153.293 809.385 Q149.681 809.385 147.853 812.949 Q146.047 816.491 146.047 823.621 Q146.047 830.727 147.853 834.292 Q149.681 837.834 153.293 837.834 Q156.927 837.834 158.732 834.292 Q160.561 830.727 160.561 823.621 Q160.561 816.491 158.732 812.949 Q156.927 809.385 153.293 809.385 M153.293 805.681 Q159.103 805.681 162.158 810.287 Q165.237 814.871 165.237 823.621 Q165.237 832.348 162.158 836.954 Q159.103 841.537 153.293 841.537 Q147.482 841.537 144.404 836.954 Q141.348 832.348 141.348 823.621 Q141.348 814.871 144.404 810.287 Q147.482 805.681 153.293 805.681 Z" fill="#000000" fill-rule="evenodd" fill-opacity="1" /><path clip-path="url(#clip700)" d="M 0 0 M63.9875 583.011 L76.4643 583.011 L76.4643 586.807 L63.9875 586.807 L63.9875 583.011 Z" fill="#000000" fill-rule="evenodd" fill-opacity="1" /><path clip-path="url(#clip700)" d="M 0 0 M82.3439 593.96 L89.9827 593.96 L89.9827 567.595 L81.6726 569.261 L81.6726 565.002 L89.9364 563.335 L94.6123 563.335 L94.6123 593.96 L102.251 593.96 L102.251 597.895 L82.3439 597.895 L82.3439 593.96 Z" fill="#000000" fill-rule="evenodd" fill-opacity="1" /><path clip-path="url(#clip700)" d="M 0 0 M117.321 566.414 Q113.709 566.414 111.881 569.979 Q110.075 573.52 110.075 580.65 Q110.075 587.757 111.881 591.321 Q113.709 594.863 117.321 594.863 Q120.955 594.863 122.76 591.321 Q124.589 587.757 124.589 580.65 Q124.589 573.52 122.76 569.979 Q120.955 566.414 117.321 566.414 M117.321 562.71 Q123.131 562.71 126.186 567.317 Q129.265 571.9 129.265 580.65 Q129.265 589.377 126.186 593.983 Q123.131 598.567 117.321 598.567 Q111.51 598.567 108.432 593.983 Q105.376 589.377 105.376 580.65 Q105.376 571.9 108.432 567.317 Q111.51 562.71 117.321 562.71 Z" fill="#000000" fill-rule="evenodd" fill-opacity="1" /><path clip-path="url(#clip700)" d="M 0 0 M134.334 592.016 L139.219 592.016 L139.219 597.895 L134.334 597.895 L134.334 592.016 Z" fill="#000000" fill-rule="evenodd" fill-opacity="1" /><path clip-path="url(#clip700)" d="M 0 0 M144.334 563.335 L162.691 563.335 L162.691 567.271 L148.617 567.271 L148.617 575.743 Q149.635 575.395 150.654 575.233 Q151.672 575.048 152.691 575.048 Q158.478 575.048 161.857 578.22 Q165.237 581.391 165.237 586.807 Q165.237 592.386 161.765 595.488 Q158.293 598.567 151.973 598.567 Q149.797 598.567 147.529 598.196 Q145.283 597.826 142.876 597.085 L142.876 592.386 Q144.959 593.52 147.181 594.076 Q149.404 594.631 151.881 594.631 Q155.885 594.631 158.223 592.525 Q160.561 590.419 160.561 586.807 Q160.561 583.196 158.223 581.09 Q155.885 578.983 151.881 578.983 Q150.006 578.983 148.131 579.4 Q146.279 579.817 144.334 580.696 L144.334 563.335 Z" fill="#000000" fill-rule="evenodd" fill-opacity="1" /><path clip-path="url(#clip700)" d="M 0 0 M62.9921 340.04 L75.4689 340.04 L75.4689 343.837 L62.9921 343.837 L62.9921 340.04 Z" fill="#000000" fill-rule="evenodd" fill-opacity="1" /><path clip-path="url(#clip700)" d="M 0 0 M81.3485 350.989 L88.9874 350.989 L88.9874 324.624 L80.6772 326.291 L80.6772 322.031 L88.9411 320.365 L93.617 320.365 L93.617 350.989 L101.256 350.989 L101.256 354.925 L81.3485 354.925 L81.3485 350.989 Z" fill="#000000" fill-rule="evenodd" fill-opacity="1" /><path clip-path="url(#clip700)" d="M 0 0 M116.325 323.443 Q112.714 323.443 110.885 327.008 Q109.08 330.55 109.08 337.679 Q109.08 344.786 110.885 348.351 Q112.714 351.892 116.325 351.892 Q119.959 351.892 121.765 348.351 Q123.594 344.786 123.594 337.679 Q123.594 330.55 121.765 327.008 Q119.959 323.443 116.325 323.443 M116.325 319.74 Q122.135 319.74 125.191 324.346 Q128.27 328.929 128.27 337.679 Q128.27 346.406 125.191 351.013 Q122.135 355.596 116.325 355.596 Q110.515 355.596 107.436 351.013 Q104.381 346.406 104.381 337.679 Q104.381 328.929 107.436 324.346 Q110.515 319.74 116.325 319.74 Z" fill="#000000" fill-rule="evenodd" fill-opacity="1" /><path clip-path="url(#clip700)" d="M 0 0 M133.339 349.045 L138.223 349.045 L138.223 354.925 L133.339 354.925 L133.339 349.045 Z" fill="#000000" fill-rule="evenodd" fill-opacity="1" /><path clip-path="url(#clip700)" d="M 0 0 M153.293 323.443 Q149.681 323.443 147.853 327.008 Q146.047 330.55 146.047 337.679 Q146.047 344.786 147.853 348.351 Q149.681 351.892 153.293 351.892 Q156.927 351.892 158.732 348.351 Q160.561 344.786 160.561 337.679 Q160.561 330.55 158.732 327.008 Q156.927 323.443 153.293 323.443 M153.293 319.74 Q159.103 319.74 162.158 324.346 Q165.237 328.929 165.237 337.679 Q165.237 346.406 162.158 351.013 Q159.103 355.596 153.293 355.596 Q147.482 355.596 144.404 351.013 Q141.348 346.406 141.348 337.679 Q141.348 328.929 144.404 324.346 Q147.482 319.74 153.293 319.74 Z" fill="#000000" fill-rule="evenodd" fill-opacity="1" /><path clip-path="url(#clip700)" d="M 0 0 M438.194 72.576 L415.104 12.096 L423.651 12.096 L442.812 63.0159 L462.013 12.096 L470.52 12.096 L447.47 72.576 L438.194 72.576 Z" fill="#000000" fill-rule="evenodd" fill-opacity="1" /><path clip-path="url(#clip700)" d="M 0 0 M492.516 49.7694 Q483.483 49.7694 479.999 51.8354 Q476.515 53.9013 476.515 58.8839 Q476.515 62.8538 479.108 65.2034 Q481.741 67.5124 486.238 67.5124 Q492.435 67.5124 496.162 63.1374 Q499.93 58.7219 499.93 51.4303 L499.93 49.7694 L492.516 49.7694 M507.383 46.6907 L507.383 72.576 L499.93 72.576 L499.93 65.6895 Q497.378 69.8214 493.57 71.8063 Q489.762 73.7508 484.253 73.7508 Q477.285 73.7508 473.153 69.8619 Q469.062 65.9325 469.062 59.3701 Q469.062 51.7138 474.166 47.825 Q479.311 43.9361 489.478 43.9361 L499.93 43.9361 L499.93 43.2069 Q499.93 38.0623 496.527 35.2672 Q493.165 32.4315 487.048 32.4315 Q483.159 32.4315 479.473 33.3632 Q475.786 34.295 472.383 36.1584 L472.383 29.2718 Q476.475 27.692 480.323 26.9223 Q484.172 26.1121 487.817 26.1121 Q497.661 26.1121 502.522 31.2163 Q507.383 36.3204 507.383 46.6907 Z" fill="#000000" fill-rule="evenodd" fill-opacity="1" /><path clip-path="url(#clip700)" d="M 0 0 M515.202 9.54393 L522.655 9.54393 L522.655 72.576 L515.202 72.576 L515.202 9.54393 Z" fill="#000000" fill-rule="evenodd" fill-opacity="1" /><path clip-path="url(#clip700)" d="M 0 0 M529.704 54.671 L529.704 27.2059 L537.157 27.2059 L537.157 54.3874 Q537.157 60.8284 539.669 64.0691 Q542.181 67.2693 547.204 67.2693 Q553.24 67.2693 556.723 63.421 Q560.248 59.5726 560.248 52.9291 L560.248 27.2059 L567.701 27.2059 L567.701 72.576 L560.248 72.576 L560.248 65.6084 Q557.533 69.7404 553.928 71.7658 Q550.363 73.7508 545.624 73.7508 Q537.806 73.7508 533.755 68.8897 Q529.704 64.0286 529.704 54.671 M548.459 26.1121 L548.459 26.1121 Z" fill="#000000" fill-rule="evenodd" fill-opacity="1" /><path clip-path="url(#clip700)" d="M 0 0 M614.327 48.0275 L614.327 51.6733 L580.057 51.6733 Q580.543 59.3701 584.675 63.421 Q588.847 67.4314 596.26 67.4314 Q600.554 67.4314 604.564 66.3781 Q608.615 65.3249 612.585 63.2184 L612.585 70.267 Q608.575 71.9684 604.362 72.8596 Q600.149 73.7508 595.815 73.7508 Q584.958 73.7508 578.598 67.4314 Q572.279 61.1119 572.279 50.3365 Q572.279 39.1965 578.274 32.6746 Q584.31 26.1121 594.518 26.1121 Q603.673 26.1121 608.98 32.0264 Q614.327 37.9003 614.327 48.0275 M606.874 45.84 Q606.792 39.7232 603.43 36.0774 Q600.108 32.4315 594.599 32.4315 Q588.361 32.4315 584.594 35.9558 Q580.867 39.4801 580.3 45.8805 L606.874 45.84 Z" fill="#000000" fill-rule="evenodd" fill-opacity="1" /><path clip-path="url(#clip700)" d="M 0 0 M648.841 12.096 L683.598 12.096 L683.598 18.9825 L657.024 18.9825 L657.024 36.8065 L681.005 36.8065 L681.005 43.6931 L657.024 43.6931 L657.024 72.576 L648.841 72.576 L648.841 12.096 Z" fill="#000000" fill-rule="evenodd" fill-opacity="1" /><path clip-path="url(#clip700)" d="M 0 0 M686.109 54.671 L686.109 27.2059 L693.563 27.2059 L693.563 54.3874 Q693.563 60.8284 696.074 64.0691 Q698.586 67.2693 703.609 67.2693 Q709.645 67.2693 713.129 63.421 Q716.653 59.5726 716.653 52.9291 L716.653 27.2059 L724.107 27.2059 L724.107 72.576 L716.653 72.576 L716.653 65.6084 Q713.939 69.7404 710.334 71.7658 Q706.769 73.7508 702.029 73.7508 Q694.211 73.7508 690.16 68.8897 Q686.109 64.0286 686.109 54.671 M704.865 26.1121 L704.865 26.1121 Z" fill="#000000" fill-rule="evenodd" fill-opacity="1" /><path clip-path="url(#clip700)" d="M 0 0 M769.639 45.1919 L769.639 72.576 L762.185 72.576 L762.185 45.4349 Q762.185 38.994 759.674 35.7938 Q757.162 32.5936 752.139 32.5936 Q746.103 32.5936 742.619 36.4419 Q739.136 40.2903 739.136 46.9338 L739.136 72.576 L731.641 72.576 L731.641 27.2059 L739.136 27.2059 L739.136 34.2544 Q741.809 30.163 745.414 28.1376 Q749.06 26.1121 753.8 26.1121 Q761.618 26.1121 765.628 30.9732 Q769.639 35.7938 769.639 45.1919 Z" fill="#000000" fill-rule="evenodd" fill-opacity="1" /><path clip-path="url(#clip700)" d="M 0 0 M810.107 28.9478 L810.107 35.9153 Q806.948 34.1734 803.747 33.3227 Q800.588 32.4315 797.347 32.4315 Q790.096 32.4315 786.086 37.0496 Q782.075 41.6271 782.075 49.9314 Q782.075 58.2358 786.086 62.8538 Q790.096 67.4314 797.347 67.4314 Q800.588 67.4314 803.747 66.5807 Q806.948 65.6895 810.107 63.9476 L810.107 70.8341 Q806.988 72.2924 803.626 73.0216 Q800.304 73.7508 796.537 73.7508 Q786.288 73.7508 780.252 67.3098 Q774.216 60.8689 774.216 49.9314 Q774.216 38.832 780.293 32.472 Q786.41 26.1121 797.023 26.1121 Q800.466 26.1121 803.747 26.8413 Q807.029 27.5299 810.107 28.9478 Z" fill="#000000" fill-rule="evenodd" fill-opacity="1" /><path clip-path="url(#clip700)" d="M 0 0 M825.298 14.324 L825.298 27.2059 L840.651 27.2059 L840.651 32.9987 L825.298 32.9987 L825.298 57.6282 Q825.298 63.1779 826.797 64.7578 Q828.336 66.3376 832.995 66.3376 L840.651 66.3376 L840.651 72.576 L832.995 72.576 Q824.367 72.576 821.085 69.3758 Q817.804 66.1351 817.804 57.6282 L817.804 32.9987 L812.335 32.9987 L812.335 27.2059 L817.804 27.2059 L817.804 14.324 L825.298 14.324 Z" fill="#000000" fill-rule="evenodd" fill-opacity="1" /><path clip-path="url(#clip700)" d="M 0 0 M848.469 27.2059 L855.923 27.2059 L855.923 72.576 L848.469 72.576 L848.469 27.2059 M848.469 9.54393 L855.923 9.54393 L855.923 18.9825 L848.469 18.9825 L848.469 9.54393 Z" fill="#000000" fill-rule="evenodd" fill-opacity="1" /><path clip-path="url(#clip700)" d="M 0 0 M881.322 32.4315 Q875.327 32.4315 871.843 37.1306 Q868.359 41.7891 868.359 49.9314 Q868.359 58.0738 871.803 62.7728 Q875.286 67.4314 881.322 67.4314 Q887.277 67.4314 890.761 62.7323 Q894.245 58.0333 894.245 49.9314 Q894.245 41.8701 890.761 37.1711 Q887.277 32.4315 881.322 32.4315 M881.322 26.1121 Q891.044 26.1121 896.594 32.4315 Q902.144 38.7509 902.144 49.9314 Q902.144 61.0714 896.594 67.4314 Q891.044 73.7508 881.322 73.7508 Q871.56 73.7508 866.01 67.4314 Q860.501 61.0714 860.501 49.9314 Q860.501 38.7509 866.01 32.4315 Q871.56 26.1121 881.322 26.1121 Z" fill="#000000" fill-rule="evenodd" fill-opacity="1" /><path clip-path="url(#clip700)" d="M 0 0 M947.676 45.1919 L947.676 72.576 L940.222 72.576 L940.222 45.4349 Q940.222 38.994 937.711 35.7938 Q935.199 32.5936 930.176 32.5936 Q924.14 32.5936 920.657 36.4419 Q917.173 40.2903 917.173 46.9338 L917.173 72.576 L909.679 72.576 L909.679 27.2059 L917.173 27.2059 L917.173 34.2544 Q919.846 30.163 923.452 28.1376 Q927.097 26.1121 931.837 26.1121 Q939.655 26.1121 943.666 30.9732 Q947.676 35.7938 947.676 45.1919 Z" fill="#000000" fill-rule="evenodd" fill-opacity="1" /><polyline clip-path="url(#clip702)" style="stroke:#009af9; stroke-width:4; stroke-opacity:1; fill:none" points="
  217.095,1447.87 226.474,1422.98 235.854,1398.63 245.234,1374.79 254.613,1351.46 263.993,1328.6 273.373,1306.21 282.753,1284.26 292.132,1262.74 301.512,1241.63 
  310.892,1220.93 320.271,1200.61 329.651,1180.67 339.031,1161.09 348.41,1141.85 357.79,1122.94 367.17,1104.36 376.55,1086.09 385.929,1068.11 395.309,1050.44 
  404.689,1033.04 414.068,1015.92 423.448,999.075 432.828,982.489 442.207,966.158 451.587,950.077 460.967,934.24 470.347,918.634 479.726,903.251 489.106,888.083 
  498.486,873.127 507.865,858.377 517.245,843.828 526.625,829.476 536.005,815.317 545.384,801.348 554.764,787.565 564.144,773.965 573.523,760.547 582.903,747.299 
  592.283,734.212 601.662,721.282 611.042,708.505 620.422,695.878 629.802,683.397 639.181,671.06 648.561,658.863 657.941,646.804 667.32,634.879 676.7,623.087 
  686.08,611.465 695.459,600.009 704.839,588.676 714.219,577.463 723.599,566.366 732.978,555.385 742.358,544.516 751.738,533.757 761.117,523.107 770.497,512.562 
  779.877,502.122 789.256,491.785 798.636,481.556 808.016,471.432 817.396,461.411 826.775,451.49 836.155,441.665 845.535,431.934 854.914,422.296 864.294,412.747 
  873.674,403.287 883.053,393.914 892.433,384.626 901.813,375.426 911.193,366.311 920.572,357.279 929.952,348.329 939.332,339.458 948.711,330.665 958.091,321.949 
  967.471,313.308 976.85,304.741 986.23,296.246 995.61,287.822 1004.99,279.472 1014.37,271.193 1023.75,262.982 1033.13,254.839 1042.51,246.764 1051.89,238.754 
  1061.27,230.807 1070.65,222.924 1080.03,215.104 1089.41,207.344 1098.79,199.645 1108.17,192.009 1117.55,184.433 1126.93,176.914 1136.31,169.452 1145.69,162.047 
  
  "/>
<path clip-path="url(#clip700)" d="
M810.525 327.952 L1101.54 327.952 L1101.54 206.992 L810.525 206.992  Z
  " fill="#ffffff" fill-rule="evenodd" fill-opacity="1"/>
<polyline clip-path="url(#clip700)" style="stroke:#000000; stroke-width:4; stroke-opacity:1; fill:none" points="
  810.525,327.952 1101.54,327.952 1101.54,206.992 810.525,206.992 810.525,327.952 
  "/>
<polyline clip-path="url(#clip700)" style="stroke:#009af9; stroke-width:4; stroke-opacity:1; fill:none" points="
  834.525,267.472 978.525,267.472 
  "/>
<path clip-path="url(#clip700)" d="M 0 0 M1016.37 287.16 Q1014.56 291.789 1012.85 293.201 Q1011.14 294.613 1008.27 294.613 L1004.86 294.613 L1004.86 291.048 L1007.36 291.048 Q1009.12 291.048 1010.09 290.215 Q1011.07 289.382 1012.25 286.28 L1013.01 284.335 L1002.52 258.826 L1007.04 258.826 L1015.14 279.104 L1023.24 258.826 L1027.76 258.826 L1016.37 287.16 Z" fill="#000000" fill-rule="evenodd" fill-opacity="1" /><path clip-path="url(#clip700)" d="M 0 0 M1033.64 280.817 L1041.27 280.817 L1041.27 254.451 L1032.96 256.118 L1032.96 251.859 L1041.23 250.192 L1045.9 250.192 L1045.9 280.817 L1053.54 280.817 L1053.54 284.752 L1033.64 284.752 L1033.64 280.817 Z" fill="#000000" fill-rule="evenodd" fill-opacity="1" /><path clip-path="url(#clip700)" d="
M1368.45 1486.45 L2352.76 1486.45 L2352.76 123.472 L1368.45 123.472  Z
  " fill="#ffffff" fill-rule="evenodd" fill-opacity="1"/>
<defs>
  <clipPath id="clip703">
    <rect x="1368" y="123" width="985" height="1364"/>
  </clipPath>
</defs>
<polyline clip-path="url(#clip703)" style="stroke:#000000; stroke-width:2; stroke-opacity:0.1; fill:none" points="
  1408.89,1486.45 1408.89,123.472 
  "/>
<polyline clip-path="url(#clip703)" style="stroke:#000000; stroke-width:2; stroke-opacity:0.1; fill:none" points="
  1567.85,1486.45 1567.85,123.472 
  "/>
<polyline clip-path="url(#clip703)" style="stroke:#000000; stroke-width:2; stroke-opacity:0.1; fill:none" points="
  1726.81,1486.45 1726.81,123.472 
  "/>
<polyline clip-path="url(#clip703)" style="stroke:#000000; stroke-width:2; stroke-opacity:0.1; fill:none" points="
  1885.78,1486.45 1885.78,123.472 
  "/>
<polyline clip-path="url(#clip703)" style="stroke:#000000; stroke-width:2; stroke-opacity:0.1; fill:none" points="
  2044.74,1486.45 2044.74,123.472 
  "/>
<polyline clip-path="url(#clip703)" style="stroke:#000000; stroke-width:2; stroke-opacity:0.1; fill:none" points="
  2203.7,1486.45 2203.7,123.472 
  "/>
<polyline clip-path="url(#clip703)" style="stroke:#000000; stroke-width:2; stroke-opacity:0.1; fill:none" points="
  1368.45,1377.21 2352.76,1377.21 
  "/>
<polyline clip-path="url(#clip703)" style="stroke:#000000; stroke-width:2; stroke-opacity:0.1; fill:none" points="
  1368.45,1192.45 2352.76,1192.45 
  "/>
<polyline clip-path="url(#clip703)" style="stroke:#000000; stroke-width:2; stroke-opacity:0.1; fill:none" points="
  1368.45,1007.68 2352.76,1007.68 
  "/>
<polyline clip-path="url(#clip703)" style="stroke:#000000; stroke-width:2; stroke-opacity:0.1; fill:none" points="
  1368.45,822.917 2352.76,822.917 
  "/>
<polyline clip-path="url(#clip703)" style="stroke:#000000; stroke-width:2; stroke-opacity:0.1; fill:none" points="
  1368.45,638.153 2352.76,638.153 
  "/>
<polyline clip-path="url(#clip703)" style="stroke:#000000; stroke-width:2; stroke-opacity:0.1; fill:none" points="
  1368.45,453.388 2352.76,453.388 
  "/>
<polyline clip-path="url(#clip703)" style="stroke:#000000; stroke-width:2; stroke-opacity:0.1; fill:none" points="
  1368.45,268.624 2352.76,268.624 
  "/>
<polyline clip-path="url(#clip700)" style="stroke:#000000; stroke-width:4; stroke-opacity:1; fill:none" points="
  1368.45,1486.45 2352.76,1486.45 
  "/>
<polyline clip-path="url(#clip700)" style="stroke:#000000; stroke-width:4; stroke-opacity:1; fill:none" points="
  1368.45,1486.45 1368.45,123.472 
  "/>
<polyline clip-path="url(#clip700)" style="stroke:#000000; stroke-width:4; stroke-opacity:1; fill:none" points="
  1408.89,1486.45 1408.89,1470.09 
  "/>
<polyline clip-path="url(#clip700)" style="stroke:#000000; stroke-width:4; stroke-opacity:1; fill:none" points="
  1567.85,1486.45 1567.85,1470.09 
  "/>
<polyline clip-path="url(#clip700)" style="stroke:#000000; stroke-width:4; stroke-opacity:1; fill:none" points="
  1726.81,1486.45 1726.81,1470.09 
  "/>
<polyline clip-path="url(#clip700)" style="stroke:#000000; stroke-width:4; stroke-opacity:1; fill:none" points="
  1885.78,1486.45 1885.78,1470.09 
  "/>
<polyline clip-path="url(#clip700)" style="stroke:#000000; stroke-width:4; stroke-opacity:1; fill:none" points="
  2044.74,1486.45 2044.74,1470.09 
  "/>
<polyline clip-path="url(#clip700)" style="stroke:#000000; stroke-width:4; stroke-opacity:1; fill:none" points="
  2203.7,1486.45 2203.7,1470.09 
  "/>
<polyline clip-path="url(#clip700)" style="stroke:#000000; stroke-width:4; stroke-opacity:1; fill:none" points="
  1368.45,1377.21 1380.26,1377.21 
  "/>
<polyline clip-path="url(#clip700)" style="stroke:#000000; stroke-width:4; stroke-opacity:1; fill:none" points="
  1368.45,1192.45 1380.26,1192.45 
  "/>
<polyline clip-path="url(#clip700)" style="stroke:#000000; stroke-width:4; stroke-opacity:1; fill:none" points="
  1368.45,1007.68 1380.26,1007.68 
  "/>
<polyline clip-path="url(#clip700)" style="stroke:#000000; stroke-width:4; stroke-opacity:1; fill:none" points="
  1368.45,822.917 1380.26,822.917 
  "/>
<polyline clip-path="url(#clip700)" style="stroke:#000000; stroke-width:4; stroke-opacity:1; fill:none" points="
  1368.45,638.153 1380.26,638.153 
  "/>
<polyline clip-path="url(#clip700)" style="stroke:#000000; stroke-width:4; stroke-opacity:1; fill:none" points="
  1368.45,453.388 1380.26,453.388 
  "/>
<polyline clip-path="url(#clip700)" style="stroke:#000000; stroke-width:4; stroke-opacity:1; fill:none" points="
  1368.45,268.624 1380.26,268.624 
  "/>
<path clip-path="url(#clip700)" d="M 0 0 M1381.29 1535.98 L1388.93 1535.98 L1388.93 1509.62 L1380.62 1511.29 L1380.62 1507.03 L1388.88 1505.36 L1393.56 1505.36 L1393.56 1535.98 L1401.2 1535.98 L1401.2 1539.92 L1381.29 1539.92 L1381.29 1535.98 Z" fill="#000000" fill-rule="evenodd" fill-opacity="1" /><path clip-path="url(#clip700)" d="M 0 0 M1406.27 1534.04 L1411.15 1534.04 L1411.15 1539.92 L1406.27 1539.92 L1406.27 1534.04 Z" fill="#000000" fill-rule="evenodd" fill-opacity="1" /><path clip-path="url(#clip700)" d="M 0 0 M1416.27 1505.36 L1434.62 1505.36 L1434.62 1509.3 L1420.55 1509.3 L1420.55 1517.77 Q1421.57 1517.42 1422.59 1517.26 Q1423.6 1517.07 1424.62 1517.07 Q1430.41 1517.07 1433.79 1520.24 Q1437.17 1523.42 1437.17 1528.83 Q1437.17 1534.41 1433.7 1537.51 Q1430.22 1540.59 1423.91 1540.59 Q1421.73 1540.59 1419.46 1540.22 Q1417.22 1539.85 1414.81 1539.11 L1414.81 1534.41 Q1416.89 1535.54 1419.11 1536.1 Q1421.34 1536.66 1423.81 1536.66 Q1427.82 1536.66 1430.16 1534.55 Q1432.49 1532.44 1432.49 1528.83 Q1432.49 1525.22 1430.16 1523.11 Q1427.82 1521.01 1423.81 1521.01 Q1421.94 1521.01 1420.06 1521.42 Q1418.21 1521.84 1416.27 1522.72 L1416.27 1505.36 Z" fill="#000000" fill-rule="evenodd" fill-opacity="1" /><path clip-path="url(#clip700)" d="M 0 0 M1544.02 1535.98 L1560.34 1535.98 L1560.34 1539.92 L1538.4 1539.92 L1538.4 1535.98 Q1541.06 1533.23 1545.64 1528.6 Q1550.25 1523.95 1551.43 1522.61 Q1553.68 1520.08 1554.56 1518.35 Q1555.46 1516.59 1555.46 1514.9 Q1555.46 1512.14 1553.51 1510.41 Q1551.59 1508.67 1548.49 1508.67 Q1546.29 1508.67 1543.84 1509.43 Q1541.41 1510.2 1538.63 1511.75 L1538.63 1507.03 Q1541.45 1505.89 1543.91 1505.31 Q1546.36 1504.73 1548.4 1504.73 Q1553.77 1504.73 1556.96 1507.42 Q1560.16 1510.11 1560.16 1514.6 Q1560.16 1516.73 1559.35 1518.65 Q1558.56 1520.54 1556.45 1523.14 Q1555.88 1523.81 1552.77 1527.03 Q1549.67 1530.22 1544.02 1535.98 Z" fill="#000000" fill-rule="evenodd" fill-opacity="1" /><path clip-path="url(#clip700)" d="M 0 0 M1565.41 1534.04 L1570.3 1534.04 L1570.3 1539.92 L1565.41 1539.92 L1565.41 1534.04 Z" fill="#000000" fill-rule="evenodd" fill-opacity="1" /><path clip-path="url(#clip700)" d="M 0 0 M1585.37 1508.44 Q1581.75 1508.44 1579.93 1512 Q1578.12 1515.55 1578.12 1522.67 Q1578.12 1529.78 1579.93 1533.35 Q1581.75 1536.89 1585.37 1536.89 Q1589 1536.89 1590.81 1533.35 Q1592.63 1529.78 1592.63 1522.67 Q1592.63 1515.55 1590.81 1512 Q1589 1508.44 1585.37 1508.44 M1585.37 1504.73 Q1591.18 1504.73 1594.23 1509.34 Q1597.31 1513.92 1597.31 1522.67 Q1597.31 1531.4 1594.23 1536.01 Q1591.18 1540.59 1585.37 1540.59 Q1579.56 1540.59 1576.48 1536.01 Q1573.42 1531.4 1573.42 1522.67 Q1573.42 1513.92 1576.48 1509.34 Q1579.56 1504.73 1585.37 1504.73 Z" fill="#000000" fill-rule="evenodd" fill-opacity="1" /><path clip-path="url(#clip700)" d="M 0 0 M1703.48 1535.98 L1719.8 1535.98 L1719.8 1539.92 L1697.86 1539.92 L1697.86 1535.98 Q1700.52 1533.23 1705.1 1528.6 Q1709.71 1523.95 1710.89 1522.61 Q1713.13 1520.08 1714.01 1518.35 Q1714.92 1516.59 1714.92 1514.9 Q1714.92 1512.14 1712.97 1510.41 Q1711.05 1508.67 1707.95 1508.67 Q1705.75 1508.67 1703.3 1509.43 Q1700.87 1510.2 1698.09 1511.75 L1698.09 1507.03 Q1700.91 1505.89 1703.37 1505.31 Q1705.82 1504.73 1707.86 1504.73 Q1713.23 1504.73 1716.42 1507.42 Q1719.62 1510.11 1719.62 1514.6 Q1719.62 1516.73 1718.81 1518.65 Q1718.02 1520.54 1715.91 1523.14 Q1715.33 1523.81 1712.23 1527.03 Q1709.13 1530.22 1703.48 1535.98 Z" fill="#000000" fill-rule="evenodd" fill-opacity="1" /><path clip-path="url(#clip700)" d="M 0 0 M1724.87 1534.04 L1729.75 1534.04 L1729.75 1539.92 L1724.87 1539.92 L1724.87 1534.04 Z" fill="#000000" fill-rule="evenodd" fill-opacity="1" /><path clip-path="url(#clip700)" d="M 0 0 M1734.87 1505.36 L1753.23 1505.36 L1753.23 1509.3 L1739.15 1509.3 L1739.15 1517.77 Q1740.17 1517.42 1741.19 1517.26 Q1742.21 1517.07 1743.23 1517.07 Q1749.01 1517.07 1752.39 1520.24 Q1755.77 1523.42 1755.77 1528.83 Q1755.77 1534.41 1752.3 1537.51 Q1748.83 1540.59 1742.51 1540.59 Q1740.33 1540.59 1738.06 1540.22 Q1735.82 1539.85 1733.41 1539.11 L1733.41 1534.41 Q1735.5 1535.54 1737.72 1536.1 Q1739.94 1536.66 1742.42 1536.66 Q1746.42 1536.66 1748.76 1534.55 Q1751.1 1532.44 1751.1 1528.83 Q1751.1 1525.22 1748.76 1523.11 Q1746.42 1521.01 1742.42 1521.01 Q1740.54 1521.01 1738.67 1521.42 Q1736.81 1521.84 1734.87 1522.72 L1734.87 1505.36 Z" fill="#000000" fill-rule="evenodd" fill-opacity="1" /><path clip-path="url(#clip700)" d="M 0 0 M1871.54 1521.29 Q1874.9 1522 1876.77 1524.27 Q1878.67 1526.54 1878.67 1529.87 Q1878.67 1534.99 1875.15 1537.79 Q1871.63 1540.59 1865.15 1540.59 Q1862.97 1540.59 1860.66 1540.15 Q1858.37 1539.73 1855.91 1538.88 L1855.91 1534.36 Q1857.86 1535.5 1860.17 1536.08 Q1862.49 1536.66 1865.01 1536.66 Q1869.41 1536.66 1871.7 1534.92 Q1874.02 1533.18 1874.02 1529.87 Q1874.02 1526.82 1871.86 1525.11 Q1869.73 1523.37 1865.91 1523.37 L1861.89 1523.37 L1861.89 1519.53 L1866.1 1519.53 Q1869.55 1519.53 1871.38 1518.16 Q1873.21 1516.77 1873.21 1514.18 Q1873.21 1511.52 1871.31 1510.11 Q1869.43 1508.67 1865.91 1508.67 Q1863.99 1508.67 1861.79 1509.09 Q1859.59 1509.5 1856.96 1510.38 L1856.96 1506.22 Q1859.62 1505.48 1861.93 1505.11 Q1864.27 1504.73 1866.33 1504.73 Q1871.65 1504.73 1874.76 1507.17 Q1877.86 1509.57 1877.86 1513.69 Q1877.86 1516.56 1876.22 1518.55 Q1874.57 1520.52 1871.54 1521.29 Z" fill="#000000" fill-rule="evenodd" fill-opacity="1" /><path clip-path="url(#clip700)" d="M 0 0 M1883.74 1534.04 L1888.62 1534.04 L1888.62 1539.92 L1883.74 1539.92 L1883.74 1534.04 Z" fill="#000000" fill-rule="evenodd" fill-opacity="1" /><path clip-path="url(#clip700)" d="M 0 0 M1903.69 1508.44 Q1900.08 1508.44 1898.25 1512 Q1896.45 1515.55 1896.45 1522.67 Q1896.45 1529.78 1898.25 1533.35 Q1900.08 1536.89 1903.69 1536.89 Q1907.33 1536.89 1909.13 1533.35 Q1910.96 1529.78 1910.96 1522.67 Q1910.96 1515.55 1909.13 1512 Q1907.33 1508.44 1903.69 1508.44 M1903.69 1504.73 Q1909.5 1504.73 1912.56 1509.34 Q1915.64 1513.92 1915.64 1522.67 Q1915.64 1531.4 1912.56 1536.01 Q1909.5 1540.59 1903.69 1540.59 Q1897.88 1540.59 1894.8 1536.01 Q1891.75 1531.4 1891.75 1522.67 Q1891.75 1513.92 1894.8 1509.34 Q1897.88 1504.73 1903.69 1504.73 Z" fill="#000000" fill-rule="evenodd" fill-opacity="1" /><path clip-path="url(#clip700)" d="M 0 0 M2031 1521.29 Q2034.35 1522 2036.23 1524.27 Q2038.13 1526.54 2038.13 1529.87 Q2038.13 1534.99 2034.61 1537.79 Q2031.09 1540.59 2024.61 1540.59 Q2022.43 1540.59 2020.12 1540.15 Q2017.83 1539.73 2015.37 1538.88 L2015.37 1534.36 Q2017.32 1535.5 2019.63 1536.08 Q2021.95 1536.66 2024.47 1536.66 Q2028.87 1536.66 2031.16 1534.92 Q2033.47 1533.18 2033.47 1529.87 Q2033.47 1526.82 2031.32 1525.11 Q2029.19 1523.37 2025.37 1523.37 L2021.34 1523.37 L2021.34 1519.53 L2025.56 1519.53 Q2029.01 1519.53 2030.84 1518.16 Q2032.66 1516.77 2032.66 1514.18 Q2032.66 1511.52 2030.77 1510.11 Q2028.89 1508.67 2025.37 1508.67 Q2023.45 1508.67 2021.25 1509.09 Q2019.05 1509.5 2016.41 1510.38 L2016.41 1506.22 Q2019.08 1505.48 2021.39 1505.11 Q2023.73 1504.73 2025.79 1504.73 Q2031.11 1504.73 2034.21 1507.17 Q2037.32 1509.57 2037.32 1513.69 Q2037.32 1516.56 2035.67 1518.55 Q2034.03 1520.52 2031 1521.29 Z" fill="#000000" fill-rule="evenodd" fill-opacity="1" /><path clip-path="url(#clip700)" d="M 0 0 M2043.2 1534.04 L2048.08 1534.04 L2048.08 1539.92 L2043.2 1539.92 L2043.2 1534.04 Z" fill="#000000" fill-rule="evenodd" fill-opacity="1" /><path clip-path="url(#clip700)" d="M 0 0 M2053.2 1505.36 L2071.55 1505.36 L2071.55 1509.3 L2057.48 1509.3 L2057.48 1517.77 Q2058.5 1517.42 2059.52 1517.26 Q2060.53 1517.07 2061.55 1517.07 Q2067.34 1517.07 2070.72 1520.24 Q2074.1 1523.42 2074.1 1528.83 Q2074.1 1534.41 2070.63 1537.51 Q2067.15 1540.59 2060.84 1540.59 Q2058.66 1540.59 2056.39 1540.22 Q2054.15 1539.85 2051.74 1539.11 L2051.74 1534.41 Q2053.82 1535.54 2056.04 1536.1 Q2058.27 1536.66 2060.74 1536.66 Q2064.75 1536.66 2067.09 1534.55 Q2069.42 1532.44 2069.42 1528.83 Q2069.42 1525.22 2067.09 1523.11 Q2064.75 1521.01 2060.74 1521.01 Q2058.87 1521.01 2056.99 1521.42 Q2055.14 1521.84 2053.2 1522.72 L2053.2 1505.36 Z" fill="#000000" fill-rule="evenodd" fill-opacity="1" /><path clip-path="url(#clip700)" d="M 0 0 M2188.22 1509.43 L2176.42 1527.88 L2188.22 1527.88 L2188.22 1509.43 M2186.99 1505.36 L2192.87 1505.36 L2192.87 1527.88 L2197.81 1527.88 L2197.81 1531.77 L2192.87 1531.77 L2192.87 1539.92 L2188.22 1539.92 L2188.22 1531.77 L2172.62 1531.77 L2172.62 1527.26 L2186.99 1505.36 Z" fill="#000000" fill-rule="evenodd" fill-opacity="1" /><path clip-path="url(#clip700)" d="M 0 0 M2202.87 1534.04 L2207.76 1534.04 L2207.76 1539.92 L2202.87 1539.92 L2202.87 1534.04 Z" fill="#000000" fill-rule="evenodd" fill-opacity="1" /><path clip-path="url(#clip700)" d="M 0 0 M2222.83 1508.44 Q2219.22 1508.44 2217.39 1512 Q2215.58 1515.55 2215.58 1522.67 Q2215.58 1529.78 2217.39 1533.35 Q2219.22 1536.89 2222.83 1536.89 Q2226.46 1536.89 2228.27 1533.35 Q2230.1 1529.78 2230.1 1522.67 Q2230.1 1515.55 2228.27 1512 Q2226.46 1508.44 2222.83 1508.44 M2222.83 1504.73 Q2228.64 1504.73 2231.69 1509.34 Q2234.77 1513.92 2234.77 1522.67 Q2234.77 1531.4 2231.69 1536.01 Q2228.64 1540.59 2222.83 1540.59 Q2217.02 1540.59 2213.94 1536.01 Q2210.88 1531.4 2210.88 1522.67 Q2210.88 1513.92 2213.94 1509.34 Q2217.02 1504.73 2222.83 1504.73 Z" fill="#000000" fill-rule="evenodd" fill-opacity="1" /><path clip-path="url(#clip700)" d="M 0 0 M1295.72 1363.01 Q1292.11 1363.01 1290.28 1366.57 Q1288.48 1370.12 1288.48 1377.25 Q1288.48 1384.35 1290.28 1387.92 Q1292.11 1391.46 1295.72 1391.46 Q1299.36 1391.46 1301.16 1387.92 Q1302.99 1384.35 1302.99 1377.25 Q1302.99 1370.12 1301.16 1366.57 Q1299.36 1363.01 1295.72 1363.01 M1295.72 1359.31 Q1301.53 1359.31 1304.59 1363.91 Q1307.67 1368.5 1307.67 1377.25 Q1307.67 1385.97 1304.59 1390.58 Q1301.53 1395.16 1295.72 1395.16 Q1289.91 1395.16 1286.83 1390.58 Q1283.78 1385.97 1283.78 1377.25 Q1283.78 1368.5 1286.83 1363.91 Q1289.91 1359.31 1295.72 1359.31 Z" fill="#000000" fill-rule="evenodd" fill-opacity="1" /><path clip-path="url(#clip700)" d="M 0 0 M1312.74 1388.61 L1317.62 1388.61 L1317.62 1394.49 L1312.74 1394.49 L1312.74 1388.61 Z" fill="#000000" fill-rule="evenodd" fill-opacity="1" /><path clip-path="url(#clip700)" d="M 0 0 M1322.83 1393.77 L1322.83 1389.51 Q1324.59 1390.35 1326.39 1390.79 Q1328.2 1391.23 1329.94 1391.23 Q1334.57 1391.23 1337 1388.13 Q1339.45 1385 1339.8 1378.66 Q1338.45 1380.65 1336.39 1381.71 Q1334.33 1382.78 1331.83 1382.78 Q1326.65 1382.78 1323.62 1379.65 Q1320.61 1376.51 1320.61 1371.07 Q1320.61 1365.74 1323.76 1362.52 Q1326.9 1359.31 1332.14 1359.31 Q1338.13 1359.31 1341.28 1363.91 Q1344.45 1368.5 1344.45 1377.25 Q1344.45 1385.42 1340.56 1390.3 Q1336.7 1395.16 1330.14 1395.16 Q1328.39 1395.16 1326.58 1394.82 Q1324.77 1394.47 1322.83 1393.77 M1332.14 1379.12 Q1335.28 1379.12 1337.11 1376.97 Q1338.96 1374.82 1338.96 1371.07 Q1338.96 1367.34 1337.11 1365.19 Q1335.28 1363.01 1332.14 1363.01 Q1328.99 1363.01 1327.14 1365.19 Q1325.31 1367.34 1325.31 1371.07 Q1325.31 1374.82 1327.14 1376.97 Q1328.99 1379.12 1332.14 1379.12 Z" fill="#000000" fill-rule="evenodd" fill-opacity="1" /><path clip-path="url(#clip700)" d="M 0 0 M1287.58 1205.79 L1295.21 1205.79 L1295.21 1179.43 L1286.9 1181.09 L1286.9 1176.83 L1295.17 1175.17 L1299.84 1175.17 L1299.84 1205.79 L1307.48 1205.79 L1307.48 1209.73 L1287.58 1209.73 L1287.58 1205.79 Z" fill="#000000" fill-rule="evenodd" fill-opacity="1" /><path clip-path="url(#clip700)" d="M 0 0 M1312.55 1203.85 L1317.44 1203.85 L1317.44 1209.73 L1312.55 1209.73 L1312.55 1203.85 Z" fill="#000000" fill-rule="evenodd" fill-opacity="1" /><path clip-path="url(#clip700)" d="M 0 0 M1332.51 1178.25 Q1328.89 1178.25 1327.07 1181.81 Q1325.26 1185.35 1325.26 1192.48 Q1325.26 1199.59 1327.07 1203.15 Q1328.89 1206.69 1332.51 1206.69 Q1336.14 1206.69 1337.95 1203.15 Q1339.77 1199.59 1339.77 1192.48 Q1339.77 1185.35 1337.95 1181.81 Q1336.14 1178.25 1332.51 1178.25 M1332.51 1174.54 Q1338.32 1174.54 1341.37 1179.15 Q1344.45 1183.73 1344.45 1192.48 Q1344.45 1201.21 1341.37 1205.81 Q1338.32 1210.4 1332.51 1210.4 Q1326.7 1210.4 1323.62 1205.81 Q1320.56 1201.21 1320.56 1192.48 Q1320.56 1183.73 1323.62 1179.15 Q1326.7 1174.54 1332.51 1174.54 Z" fill="#000000" fill-rule="evenodd" fill-opacity="1" /><path clip-path="url(#clip700)" d="M 0 0 M1288.8 1021.03 L1296.44 1021.03 L1296.44 994.661 L1288.13 996.328 L1288.13 992.069 L1296.39 990.402 L1301.07 990.402 L1301.07 1021.03 L1308.71 1021.03 L1308.71 1024.96 L1288.8 1024.96 L1288.8 1021.03 Z" fill="#000000" fill-rule="evenodd" fill-opacity="1" /><path clip-path="url(#clip700)" d="M 0 0 M1313.78 1019.08 L1318.66 1019.08 L1318.66 1024.96 L1313.78 1024.96 L1313.78 1019.08 Z" fill="#000000" fill-rule="evenodd" fill-opacity="1" /><path clip-path="url(#clip700)" d="M 0 0 M1324.54 1021.03 L1332.18 1021.03 L1332.18 994.661 L1323.87 996.328 L1323.87 992.069 L1332.14 990.402 L1336.81 990.402 L1336.81 1021.03 L1344.45 1021.03 L1344.45 1024.96 L1324.54 1024.96 L1324.54 1021.03 Z" fill="#000000" fill-rule="evenodd" fill-opacity="1" /><path clip-path="url(#clip700)" d="M 0 0 M1289.17 836.262 L1296.81 836.262 L1296.81 809.897 L1288.5 811.563 L1288.5 807.304 L1296.77 805.637 L1301.44 805.637 L1301.44 836.262 L1309.08 836.262 L1309.08 840.197 L1289.17 840.197 L1289.17 836.262 Z" fill="#000000" fill-rule="evenodd" fill-opacity="1" /><path clip-path="url(#clip700)" d="M 0 0 M1314.15 834.318 L1319.03 834.318 L1319.03 840.197 L1314.15 840.197 L1314.15 834.318 Z" fill="#000000" fill-rule="evenodd" fill-opacity="1" /><path clip-path="url(#clip700)" d="M 0 0 M1328.13 836.262 L1344.45 836.262 L1344.45 840.197 L1322.51 840.197 L1322.51 836.262 Q1325.17 833.508 1329.75 828.878 Q1334.36 824.225 1335.54 822.883 Q1337.78 820.36 1338.66 818.623 Q1339.57 816.864 1339.57 815.174 Q1339.57 812.42 1337.62 810.684 Q1335.7 808.948 1332.6 808.948 Q1330.4 808.948 1327.95 809.711 Q1325.51 810.475 1322.74 812.026 L1322.74 807.304 Q1325.56 806.17 1328.01 805.591 Q1330.47 805.012 1332.51 805.012 Q1337.88 805.012 1341.07 807.698 Q1344.26 810.383 1344.26 814.873 Q1344.26 817.003 1343.45 818.924 Q1342.67 820.823 1340.56 823.415 Q1339.98 824.086 1336.88 827.304 Q1333.78 830.498 1328.13 836.262 Z" fill="#000000" fill-rule="evenodd" fill-opacity="1" /><path clip-path="url(#clip700)" d="M 0 0 M1288.22 651.498 L1295.86 651.498 L1295.86 625.132 L1287.55 626.799 L1287.55 622.539 L1295.82 620.873 L1300.49 620.873 L1300.49 651.498 L1308.13 651.498 L1308.13 655.433 L1288.22 655.433 L1288.22 651.498 Z" fill="#000000" fill-rule="evenodd" fill-opacity="1" /><path clip-path="url(#clip700)" d="M 0 0 M1313.2 649.553 L1318.08 649.553 L1318.08 655.433 L1313.2 655.433 L1313.2 649.553 Z" fill="#000000" fill-rule="evenodd" fill-opacity="1" /><path clip-path="url(#clip700)" d="M 0 0 M1337.32 636.799 Q1340.68 637.516 1342.55 639.785 Q1344.45 642.053 1344.45 645.387 Q1344.45 650.502 1340.93 653.303 Q1337.41 656.104 1330.93 656.104 Q1328.76 656.104 1326.44 655.664 Q1324.15 655.248 1321.7 654.391 L1321.7 649.877 Q1323.64 651.012 1325.95 651.59 Q1328.27 652.169 1330.79 652.169 Q1335.19 652.169 1337.48 650.433 Q1339.8 648.697 1339.8 645.387 Q1339.8 642.331 1337.64 640.618 Q1335.51 638.882 1331.7 638.882 L1327.67 638.882 L1327.67 635.039 L1331.88 635.039 Q1335.33 635.039 1337.16 633.674 Q1338.99 632.285 1338.99 629.692 Q1338.99 627.03 1337.09 625.618 Q1335.21 624.183 1331.7 624.183 Q1329.77 624.183 1327.58 624.6 Q1325.38 625.016 1322.74 625.896 L1322.74 621.729 Q1325.4 620.989 1327.71 620.618 Q1330.05 620.248 1332.11 620.248 Q1337.44 620.248 1340.54 622.678 Q1343.64 625.086 1343.64 629.206 Q1343.64 632.076 1342 634.067 Q1340.35 636.035 1337.32 636.799 Z" fill="#000000" fill-rule="evenodd" fill-opacity="1" /><path clip-path="url(#clip700)" d="M 0 0 M1287.09 466.733 L1294.73 466.733 L1294.73 440.367 L1286.42 442.034 L1286.42 437.775 L1294.68 436.108 L1299.36 436.108 L1299.36 466.733 L1307 466.733 L1307 470.668 L1287.09 470.668 L1287.09 466.733 Z" fill="#000000" fill-rule="evenodd" fill-opacity="1" /><path clip-path="url(#clip700)" d="M 0 0 M1312.07 464.789 L1316.95 464.789 L1316.95 470.668 L1312.07 470.668 L1312.07 464.789 Z" fill="#000000" fill-rule="evenodd" fill-opacity="1" /><path clip-path="url(#clip700)" d="M 0 0 M1334.87 440.182 L1323.06 458.631 L1334.87 458.631 L1334.87 440.182 M1333.64 436.108 L1339.52 436.108 L1339.52 458.631 L1344.45 458.631 L1344.45 462.52 L1339.52 462.52 L1339.52 470.668 L1334.87 470.668 L1334.87 462.52 L1319.26 462.52 L1319.26 458.006 L1333.64 436.108 Z" fill="#000000" fill-rule="evenodd" fill-opacity="1" /><path clip-path="url(#clip700)" d="M 0 0 M1288.57 281.968 L1296.21 281.968 L1296.21 255.603 L1287.9 257.269 L1287.9 253.01 L1296.16 251.344 L1300.84 251.344 L1300.84 281.968 L1308.48 281.968 L1308.48 285.904 L1288.57 285.904 L1288.57 281.968 Z" fill="#000000" fill-rule="evenodd" fill-opacity="1" /><path clip-path="url(#clip700)" d="M 0 0 M1313.55 280.024 L1318.43 280.024 L1318.43 285.904 L1313.55 285.904 L1313.55 280.024 Z" fill="#000000" fill-rule="evenodd" fill-opacity="1" /><path clip-path="url(#clip700)" d="M 0 0 M1323.55 251.344 L1341.9 251.344 L1341.9 255.279 L1327.83 255.279 L1327.83 263.751 Q1328.85 263.404 1329.87 263.242 Q1330.89 263.056 1331.9 263.056 Q1337.69 263.056 1341.07 266.228 Q1344.45 269.399 1344.45 274.816 Q1344.45 280.394 1340.98 283.496 Q1337.51 286.575 1331.19 286.575 Q1329.01 286.575 1326.74 286.204 Q1324.5 285.834 1322.09 285.093 L1322.09 280.394 Q1324.17 281.529 1326.39 282.084 Q1328.62 282.64 1331.09 282.64 Q1335.1 282.64 1337.44 280.533 Q1339.77 278.427 1339.77 274.816 Q1339.77 271.205 1337.44 269.098 Q1335.1 266.992 1331.09 266.992 Q1329.22 266.992 1327.34 267.408 Q1325.49 267.825 1323.55 268.705 L1323.55 251.344 Z" fill="#000000" fill-rule="evenodd" fill-opacity="1" /><path clip-path="url(#clip700)" d="M 0 0 M1500.6 16.7545 L1500.6 25.383 Q1496.47 21.5346 1491.77 19.6307 Q1487.11 17.7268 1481.84 17.7268 Q1471.47 17.7268 1465.96 24.0867 Q1460.45 30.4061 1460.45 42.3968 Q1460.45 54.3469 1465.96 60.7069 Q1471.47 67.0263 1481.84 67.0263 Q1487.11 67.0263 1491.77 65.1223 Q1496.47 63.2184 1500.6 59.3701 L1500.6 67.9175 Q1496.31 70.8341 1491.48 72.2924 Q1486.7 73.7508 1481.36 73.7508 Q1467.62 73.7508 1459.73 65.3654 Q1451.83 56.9395 1451.83 42.3968 Q1451.83 27.8135 1459.73 19.4281 Q1467.62 11.0023 1481.36 11.0023 Q1486.79 11.0023 1491.57 12.4606 Q1496.39 13.8784 1500.6 16.7545 Z" fill="#000000" fill-rule="evenodd" fill-opacity="1" /><path clip-path="url(#clip700)" d="M 0 0 M1526 32.4315 Q1520 32.4315 1516.52 37.1306 Q1513.04 41.7891 1513.04 49.9314 Q1513.04 58.0738 1516.48 62.7728 Q1519.96 67.4314 1526 67.4314 Q1531.95 67.4314 1535.44 62.7323 Q1538.92 58.0333 1538.92 49.9314 Q1538.92 41.8701 1535.44 37.1711 Q1531.95 32.4315 1526 32.4315 M1526 26.1121 Q1535.72 26.1121 1541.27 32.4315 Q1546.82 38.7509 1546.82 49.9314 Q1546.82 61.0714 1541.27 67.4314 Q1535.72 73.7508 1526 73.7508 Q1516.24 73.7508 1510.69 67.4314 Q1505.18 61.0714 1505.18 49.9314 Q1505.18 38.7509 1510.69 32.4315 Q1516.24 26.1121 1526 26.1121 Z" fill="#000000" fill-rule="evenodd" fill-opacity="1" /><path clip-path="url(#clip700)" d="M 0 0 M1592.35 45.1919 L1592.35 72.576 L1584.9 72.576 L1584.9 45.4349 Q1584.9 38.994 1582.39 35.7938 Q1579.88 32.5936 1574.85 32.5936 Q1568.82 32.5936 1565.33 36.4419 Q1561.85 40.2903 1561.85 46.9338 L1561.85 72.576 L1554.35 72.576 L1554.35 27.2059 L1561.85 27.2059 L1561.85 34.2544 Q1564.52 30.163 1568.13 28.1376 Q1571.77 26.1121 1576.51 26.1121 Q1584.33 26.1121 1588.34 30.9732 Q1592.35 35.7938 1592.35 45.1919 Z" fill="#000000" fill-rule="evenodd" fill-opacity="1" /><path clip-path="url(#clip700)" d="M 0 0 M1629.09 28.5427 L1629.09 35.5912 Q1625.93 33.9709 1622.53 33.1607 Q1619.13 32.3505 1615.48 32.3505 Q1609.93 32.3505 1607.14 34.0519 Q1604.38 35.7533 1604.38 39.156 Q1604.38 41.7486 1606.37 43.2475 Q1608.35 44.7058 1614.35 46.0426 L1616.9 46.6097 Q1624.84 48.3111 1628.16 51.4303 Q1631.52 54.509 1631.52 60.0587 Q1631.52 66.3781 1626.5 70.0644 Q1621.52 73.7508 1612.77 73.7508 Q1609.12 73.7508 1605.15 73.0216 Q1601.22 72.3329 1596.85 70.9151 L1596.85 63.2184 Q1600.98 65.3654 1604.99 66.4591 Q1609 67.5124 1612.93 67.5124 Q1618.2 67.5124 1621.03 65.73 Q1623.87 63.9071 1623.87 60.6258 Q1623.87 57.5877 1621.8 55.9673 Q1619.78 54.3469 1612.85 52.8481 L1610.26 52.2405 Q1603.33 50.7821 1600.25 47.7845 Q1597.17 44.7463 1597.17 39.4801 Q1597.17 33.0797 1601.71 29.5959 Q1606.25 26.1121 1614.59 26.1121 Q1618.72 26.1121 1622.37 26.7198 Q1626.02 27.3274 1629.09 28.5427 Z" fill="#000000" fill-rule="evenodd" fill-opacity="1" /><path clip-path="url(#clip700)" d="M 0 0 M1638.57 54.671 L1638.57 27.2059 L1646.03 27.2059 L1646.03 54.3874 Q1646.03 60.8284 1648.54 64.0691 Q1651.05 67.2693 1656.07 67.2693 Q1662.11 67.2693 1665.59 63.421 Q1669.12 59.5726 1669.12 52.9291 L1669.12 27.2059 L1676.57 27.2059 L1676.57 72.576 L1669.12 72.576 L1669.12 65.6084 Q1666.4 69.7404 1662.8 71.7658 Q1659.23 73.7508 1654.49 73.7508 Q1646.67 73.7508 1642.62 68.8897 Q1638.57 64.0286 1638.57 54.671 M1657.33 26.1121 L1657.33 26.1121 Z" fill="#000000" fill-rule="evenodd" fill-opacity="1" /><path clip-path="url(#clip700)" d="M 0 0 M1719.71 35.9153 Q1722.51 30.8922 1726.4 28.5022 Q1730.29 26.1121 1735.55 26.1121 Q1742.64 26.1121 1746.49 31.0947 Q1750.34 36.0368 1750.34 45.1919 L1750.34 72.576 L1742.84 72.576 L1742.84 45.4349 Q1742.84 38.913 1740.53 35.7533 Q1738.23 32.5936 1733.49 32.5936 Q1727.69 32.5936 1724.33 36.4419 Q1720.97 40.2903 1720.97 46.9338 L1720.97 72.576 L1713.47 72.576 L1713.47 45.4349 Q1713.47 38.8725 1711.17 35.7533 Q1708.86 32.5936 1704.04 32.5936 Q1698.32 32.5936 1694.96 36.4824 Q1691.6 40.3308 1691.6 46.9338 L1691.6 72.576 L1684.11 72.576 L1684.11 27.2059 L1691.6 27.2059 L1691.6 34.2544 Q1694.15 30.082 1697.72 28.0971 Q1701.28 26.1121 1706.18 26.1121 Q1711.12 26.1121 1714.57 28.6237 Q1718.05 31.1352 1719.71 35.9153 Z" fill="#000000" fill-rule="evenodd" fill-opacity="1" /><path clip-path="url(#clip700)" d="M 0 0 M1765.37 65.7705 L1765.37 89.8329 L1757.87 89.8329 L1757.87 27.2059 L1765.37 27.2059 L1765.37 34.0924 Q1767.72 30.0415 1771.28 28.0971 Q1774.89 26.1121 1779.87 26.1121 Q1788.13 26.1121 1793.28 32.6746 Q1798.46 39.2371 1798.46 49.9314 Q1798.46 60.6258 1793.28 67.1883 Q1788.13 73.7508 1779.87 73.7508 Q1774.89 73.7508 1771.28 71.8063 Q1767.72 69.8214 1765.37 65.7705 M1790.72 49.9314 Q1790.72 41.7081 1787.32 37.0496 Q1783.96 32.3505 1778.05 32.3505 Q1772.13 32.3505 1768.73 37.0496 Q1765.37 41.7081 1765.37 49.9314 Q1765.37 58.1548 1768.73 62.8538 Q1772.13 67.5124 1778.05 67.5124 Q1783.96 67.5124 1787.32 62.8538 Q1790.72 58.1548 1790.72 49.9314 Z" fill="#000000" fill-rule="evenodd" fill-opacity="1" /><path clip-path="url(#clip700)" d="M 0 0 M1813.65 14.324 L1813.65 27.2059 L1829.01 27.2059 L1829.01 32.9987 L1813.65 32.9987 L1813.65 57.6282 Q1813.65 63.1779 1815.15 64.7578 Q1816.69 66.3376 1821.35 66.3376 L1829.01 66.3376 L1829.01 72.576 L1821.35 72.576 Q1812.72 72.576 1809.44 69.3758 Q1806.16 66.1351 1806.16 57.6282 L1806.16 32.9987 L1800.69 32.9987 L1800.69 27.2059 L1806.16 27.2059 L1806.16 14.324 L1813.65 14.324 Z" fill="#000000" fill-rule="evenodd" fill-opacity="1" /><path clip-path="url(#clip700)" d="M 0 0 M1836.82 27.2059 L1844.28 27.2059 L1844.28 72.576 L1836.82 72.576 L1836.82 27.2059 M1836.82 9.54393 L1844.28 9.54393 L1844.28 18.9825 L1836.82 18.9825 L1836.82 9.54393 Z" fill="#000000" fill-rule="evenodd" fill-opacity="1" /><path clip-path="url(#clip700)" d="M 0 0 M1869.68 32.4315 Q1863.68 32.4315 1860.2 37.1306 Q1856.71 41.7891 1856.71 49.9314 Q1856.71 58.0738 1860.16 62.7728 Q1863.64 67.4314 1869.68 67.4314 Q1875.63 67.4314 1879.12 62.7323 Q1882.6 58.0333 1882.6 49.9314 Q1882.6 41.8701 1879.12 37.1711 Q1875.63 32.4315 1869.68 32.4315 M1869.68 26.1121 Q1879.4 26.1121 1884.95 32.4315 Q1890.5 38.7509 1890.5 49.9314 Q1890.5 61.0714 1884.95 67.4314 Q1879.4 73.7508 1869.68 73.7508 Q1859.91 73.7508 1854.36 67.4314 Q1848.86 61.0714 1848.86 49.9314 Q1848.86 38.7509 1854.36 32.4315 Q1859.91 26.1121 1869.68 26.1121 Z" fill="#000000" fill-rule="evenodd" fill-opacity="1" /><path clip-path="url(#clip700)" d="M 0 0 M1936.03 45.1919 L1936.03 72.576 L1928.58 72.576 L1928.58 45.4349 Q1928.58 38.994 1926.07 35.7938 Q1923.55 32.5936 1918.53 32.5936 Q1912.5 32.5936 1909.01 36.4419 Q1905.53 40.2903 1905.53 46.9338 L1905.53 72.576 L1898.03 72.576 L1898.03 27.2059 L1905.53 27.2059 L1905.53 34.2544 Q1908.2 30.163 1911.81 28.1376 Q1915.45 26.1121 1920.19 26.1121 Q1928.01 26.1121 1932.02 30.9732 Q1936.03 35.7938 1936.03 45.1919 Z" fill="#000000" fill-rule="evenodd" fill-opacity="1" /><path clip-path="url(#clip700)" d="M 0 0 M1970.54 12.096 L2005.3 12.096 L2005.3 18.9825 L1978.73 18.9825 L1978.73 36.8065 L2002.71 36.8065 L2002.71 43.6931 L1978.73 43.6931 L1978.73 72.576 L1970.54 72.576 L1970.54 12.096 Z" fill="#000000" fill-rule="evenodd" fill-opacity="1" /><path clip-path="url(#clip700)" d="M 0 0 M2007.81 54.671 L2007.81 27.2059 L2015.27 27.2059 L2015.27 54.3874 Q2015.27 60.8284 2017.78 64.0691 Q2020.29 67.2693 2025.31 67.2693 Q2031.35 67.2693 2034.83 63.421 Q2038.36 59.5726 2038.36 52.9291 L2038.36 27.2059 L2045.81 27.2059 L2045.81 72.576 L2038.36 72.576 L2038.36 65.6084 Q2035.64 69.7404 2032.04 71.7658 Q2028.47 73.7508 2023.73 73.7508 Q2015.91 73.7508 2011.86 68.8897 Q2007.81 64.0286 2007.81 54.671 M2026.57 26.1121 L2026.57 26.1121 Z" fill="#000000" fill-rule="evenodd" fill-opacity="1" /><path clip-path="url(#clip700)" d="M 0 0 M2091.34 45.1919 L2091.34 72.576 L2083.89 72.576 L2083.89 45.4349 Q2083.89 38.994 2081.38 35.7938 Q2078.87 32.5936 2073.84 32.5936 Q2067.81 32.5936 2064.32 36.4419 Q2060.84 40.2903 2060.84 46.9338 L2060.84 72.576 L2053.34 72.576 L2053.34 27.2059 L2060.84 27.2059 L2060.84 34.2544 Q2063.51 30.163 2067.12 28.1376 Q2070.76 26.1121 2075.5 26.1121 Q2083.32 26.1121 2087.33 30.9732 Q2091.34 35.7938 2091.34 45.1919 Z" fill="#000000" fill-rule="evenodd" fill-opacity="1" /><path clip-path="url(#clip700)" d="M 0 0 M2131.81 28.9478 L2131.81 35.9153 Q2128.65 34.1734 2125.45 33.3227 Q2122.29 32.4315 2119.05 32.4315 Q2111.8 32.4315 2107.79 37.0496 Q2103.78 41.6271 2103.78 49.9314 Q2103.78 58.2358 2107.79 62.8538 Q2111.8 67.4314 2119.05 67.4314 Q2122.29 67.4314 2125.45 66.5807 Q2128.65 65.6895 2131.81 63.9476 L2131.81 70.8341 Q2128.69 72.2924 2125.33 73.0216 Q2122.01 73.7508 2118.24 73.7508 Q2107.99 73.7508 2101.96 67.3098 Q2095.92 60.8689 2095.92 49.9314 Q2095.92 38.832 2102 32.472 Q2108.11 26.1121 2118.73 26.1121 Q2122.17 26.1121 2125.45 26.8413 Q2128.73 27.5299 2131.81 28.9478 Z" fill="#000000" fill-rule="evenodd" fill-opacity="1" /><path clip-path="url(#clip700)" d="M 0 0 M2147 14.324 L2147 27.2059 L2162.35 27.2059 L2162.35 32.9987 L2147 32.9987 L2147 57.6282 Q2147 63.1779 2148.5 64.7578 Q2150.04 66.3376 2154.7 66.3376 L2162.35 66.3376 L2162.35 72.576 L2154.7 72.576 Q2146.07 72.576 2142.79 69.3758 Q2139.51 66.1351 2139.51 57.6282 L2139.51 32.9987 L2134.04 32.9987 L2134.04 27.2059 L2139.51 27.2059 L2139.51 14.324 L2147 14.324 Z" fill="#000000" fill-rule="evenodd" fill-opacity="1" /><path clip-path="url(#clip700)" d="M 0 0 M2170.17 27.2059 L2177.63 27.2059 L2177.63 72.576 L2170.17 72.576 L2170.17 27.2059 M2170.17 9.54393 L2177.63 9.54393 L2177.63 18.9825 L2170.17 18.9825 L2170.17 9.54393 Z" fill="#000000" fill-rule="evenodd" fill-opacity="1" /><path clip-path="url(#clip700)" d="M 0 0 M2203.03 32.4315 Q2197.03 32.4315 2193.55 37.1306 Q2190.06 41.7891 2190.06 49.9314 Q2190.06 58.0738 2193.51 62.7728 Q2196.99 67.4314 2203.03 67.4314 Q2208.98 67.4314 2212.46 62.7323 Q2215.95 58.0333 2215.95 49.9314 Q2215.95 41.8701 2212.46 37.1711 Q2208.98 32.4315 2203.03 32.4315 M2203.03 26.1121 Q2212.75 26.1121 2218.3 32.4315 Q2223.85 38.7509 2223.85 49.9314 Q2223.85 61.0714 2218.3 67.4314 Q2212.75 73.7508 2203.03 73.7508 Q2193.26 73.7508 2187.71 67.4314 Q2182.2 61.0714 2182.2 49.9314 Q2182.2 38.7509 2187.71 32.4315 Q2193.26 26.1121 2203.03 26.1121 Z" fill="#000000" fill-rule="evenodd" fill-opacity="1" /><path clip-path="url(#clip700)" d="M 0 0 M2269.38 45.1919 L2269.38 72.576 L2261.93 72.576 L2261.93 45.4349 Q2261.93 38.994 2259.41 35.7938 Q2256.9 32.5936 2251.88 32.5936 Q2245.84 32.5936 2242.36 36.4419 Q2238.88 40.2903 2238.88 46.9338 L2238.88 72.576 L2231.38 72.576 L2231.38 27.2059 L2238.88 27.2059 L2238.88 34.2544 Q2241.55 30.163 2245.16 28.1376 Q2248.8 26.1121 2253.54 26.1121 Q2261.36 26.1121 2265.37 30.9732 Q2269.38 35.7938 2269.38 45.1919 Z" fill="#000000" fill-rule="evenodd" fill-opacity="1" /><polyline clip-path="url(#clip703)" style="stroke:#009af9; stroke-width:4; stroke-opacity:1; fill:none" points="
  1396.31,1447.87 1405.69,1436.81 1415.07,1425.83 1424.45,1415 1433.83,1404.31 1443.21,1393.62 1452.59,1383.06 1461.97,1372.7 1471.35,1362.27 1480.73,1351.94 
  1490.1,1341.95 1499.48,1335.02 1508.86,1329.64 1518.24,1322.33 1527.62,1312.64 1537,1303.03 1546.38,1293.49 1555.76,1284.02 1565.14,1274.6 1574.52,1265.24 
  1583.9,1255.95 1593.28,1246.68 1602.66,1237.47 1612.04,1228.25 1621.42,1219.33 1630.8,1215.17 1640.18,1210.62 1649.56,1201.96 1658.94,1193.36 1668.32,1184.79 
  1677.7,1176.27 1687.08,1167.78 1696.46,1159.31 1705.84,1150.86 1715.22,1142.39 1724.6,1133.88 1733.98,1125.34 1743.36,1118.84 1752.74,1115.84 1762.12,1109.31 
  1771.5,1101.54 1780.88,1093.82 1790.26,1086.15 1799.63,1078.54 1809.01,1070.97 1818.39,1063.44 1827.77,1055.96 1837.15,1048.52 1846.53,1041.08 1855.91,1032.48 
  1865.29,1030.21 1874.67,1021.7 1884.05,1014.45 1893.43,1007.27 1902.81,1000.14 1912.19,993.06 1921.57,986.021 1930.95,979.023 1940.33,972.065 1949.71,965.145 
  1959.09,958.264 1968.47,954.1 1977.85,951.356 1987.23,944.085 1996.61,936.778 2005.99,929.639 2015.37,922.62 2024.75,915.696 2034.13,908.853 2043.51,902.079 
  2052.89,895.367 2062.27,888.711 2071.65,883.489 2081.03,882.106 2090.41,875.531 2099.79,868.648 2109.17,861.931 2118.54,855.226 2127.92,848.642 2137.3,842.09 
  2146.68,835.606 2156.06,829.179 2165.44,822.791 2174.82,817.558 2184.2,816.456 2193.58,810.166 2202.96,803.899 2212.34,797.321 2221.72,790.915 2231.1,784.78 
  2240.48,778.44 2249.86,772.172 2259.24,766.076 2268.62,759.996 2278,755.662 2287.38,753.855 2296.76,747.788 2306.14,741.835 2315.52,735.871 2324.9,729.462 
  
  "/>
<polyline clip-path="url(#clip703)" style="stroke:#e26f46; stroke-width:4; stroke-opacity:1; fill:none" points="
  1396.31,970.136 1405.69,957.678 1415.07,945.392 1424.45,933.272 1433.83,921.313 1443.21,909.508 1452.59,897.855 1461.97,886.348 1471.35,874.982 1480.73,863.754 
  1490.1,852.659 1499.48,841.694 1508.86,830.856 1518.24,820.14 1527.62,809.543 1537,799.063 1546.38,788.695 1555.76,778.438 1565.14,768.289 1574.52,758.244 
  1583.9,748.301 1593.28,738.457 1602.66,728.712 1612.04,719.061 1621.42,709.502 1630.8,700.035 1640.18,690.655 1649.56,681.363 1658.94,672.155 1668.32,663.03 
  1677.7,653.986 1687.08,645.021 1696.46,636.134 1705.84,627.323 1715.22,618.586 1724.6,609.922 1733.98,601.33 1743.36,592.807 1752.74,584.354 1762.12,575.968 
  1771.5,567.648 1780.88,559.392 1790.26,551.2 1799.63,543.071 1809.01,535.003 1818.39,526.995 1827.77,519.047 1837.15,511.156 1846.53,503.322 1855.91,495.545 
  1865.29,487.822 1874.67,480.154 1884.05,472.539 1893.43,464.976 1902.81,457.465 1912.19,450.004 1921.57,442.593 1930.95,435.231 1940.33,427.918 1949.71,420.651 
  1959.09,413.432 1968.47,406.258 1977.85,399.13 1987.23,392.047 1996.61,385.007 2005.99,378.011 2015.37,371.057 2024.75,364.145 2034.13,357.275 2043.51,350.446 
  2052.89,343.657 2062.27,336.907 2071.65,330.197 2081.03,323.525 2090.41,316.891 2099.79,310.294 2109.17,303.735 2118.54,297.212 2127.92,290.725 2137.3,284.274 
  2146.68,277.857 2156.06,271.475 2165.44,265.128 2174.82,258.814 2184.2,252.533 2193.58,246.285 2202.96,240.07 2212.34,233.887 2221.72,227.735 2231.1,221.614 
  2240.48,215.525 2249.86,209.466 2259.24,203.437 2268.62,197.437 2278,191.467 2287.38,185.527 2296.76,179.614 2306.14,173.731 2315.52,167.875 2324.9,162.047 
  
  "/>
<path clip-path="url(#clip700)" d="
M1989.74 388.432 L2280.76 388.432 L2280.76 206.992 L1989.74 206.992  Z
  " fill="#ffffff" fill-rule="evenodd" fill-opacity="1"/>
<polyline clip-path="url(#clip700)" style="stroke:#000000; stroke-width:4; stroke-opacity:1; fill:none" points="
  1989.74,388.432 2280.76,388.432 2280.76,206.992 1989.74,206.992 1989.74,388.432 
  "/>
<polyline clip-path="url(#clip700)" style="stroke:#009af9; stroke-width:4; stroke-opacity:1; fill:none" points="
  2013.74,267.472 2157.74,267.472 
  "/>
<path clip-path="url(#clip700)" d="M 0 0 M2195.58 287.16 Q2193.77 291.789 2192.06 293.201 Q2190.35 294.613 2187.48 294.613 L2184.08 294.613 L2184.08 291.048 L2186.58 291.048 Q2188.33 291.048 2189.31 290.215 Q2190.28 289.382 2191.46 286.28 L2192.22 284.335 L2181.74 258.826 L2186.25 258.826 L2194.35 279.104 L2202.46 258.826 L2206.97 258.826 L2195.58 287.16 Z" fill="#000000" fill-rule="evenodd" fill-opacity="1" /><path clip-path="url(#clip700)" d="M 0 0 M2212.85 280.817 L2220.49 280.817 L2220.49 254.451 L2212.18 256.118 L2212.18 251.859 L2220.44 250.192 L2225.12 250.192 L2225.12 280.817 L2232.76 280.817 L2232.76 284.752 L2212.85 284.752 L2212.85 280.817 Z" fill="#000000" fill-rule="evenodd" fill-opacity="1" /><polyline clip-path="url(#clip700)" style="stroke:#e26f46; stroke-width:4; stroke-opacity:1; fill:none" points="
  2013.74,327.952 2157.74,327.952 
  "/>
<path clip-path="url(#clip700)" d="M 0 0 M2195.58 347.64 Q2193.77 352.269 2192.06 353.681 Q2190.35 355.093 2187.48 355.093 L2184.08 355.093 L2184.08 351.528 L2186.58 351.528 Q2188.33 351.528 2189.31 350.695 Q2190.28 349.862 2191.46 346.76 L2192.22 344.815 L2181.74 319.306 L2186.25 319.306 L2194.35 339.584 L2202.46 319.306 L2206.97 319.306 L2195.58 347.64 Z" fill="#000000" fill-rule="evenodd" fill-opacity="1" /><path clip-path="url(#clip700)" d="M 0 0 M2216.07 341.297 L2232.39 341.297 L2232.39 345.232 L2210.44 345.232 L2210.44 341.297 Q2213.1 338.542 2217.69 333.913 Q2222.29 329.26 2223.47 327.917 Q2225.72 325.394 2226.6 323.658 Q2227.5 321.899 2227.5 320.209 Q2227.5 317.454 2225.56 315.718 Q2223.64 313.982 2220.53 313.982 Q2218.33 313.982 2215.88 314.746 Q2213.45 315.51 2210.67 317.061 L2210.67 312.339 Q2213.5 311.205 2215.95 310.626 Q2218.4 310.047 2220.44 310.047 Q2225.81 310.047 2229.01 312.732 Q2232.2 315.417 2232.2 319.908 Q2232.2 322.038 2231.39 323.959 Q2230.6 325.857 2228.5 328.45 Q2227.92 329.121 2224.82 332.339 Q2221.71 335.533 2216.07 341.297 Z" fill="#000000" fill-rule="evenodd" fill-opacity="1" /></svg>
