<?xml version="1.0" encoding="utf-8"?>
<svg xmlns="http://www.w3.org/2000/svg" xmlns:xlink="http://www.w3.org/1999/xlink" width="600" height="400" viewBox="0 0 2400 1600">
<defs>
  <clipPath id="clip940">
    <rect x="0" y="0" width="2400" height="1600"/>
  </clipPath>
</defs>
<path clip-path="url(#clip940)" d="
M0 1600 L2400 1600 L2400 0 L0 0  Z
  " fill="#ffffff" fill-rule="evenodd" fill-opacity="1"/>
<defs>
  <clipPath id="clip941">
    <rect x="480" y="0" width="1681" height="1600"/>
  </clipPath>
</defs>
<path clip-path="url(#clip940)" d="
M209.658 1423.18 L2352.76 1423.18 L2352.76 47.2441 L209.658 47.2441  Z
  " fill="#ffffff" fill-rule="evenodd" fill-opacity="1"/>
<defs>
  <clipPath id="clip942">
    <rect x="209" y="47" width="2144" height="1377"/>
  </clipPath>
</defs>
<polyline clip-path="url(#clip942)" style="stroke:#000000; stroke-width:2; stroke-opacity:0.1; fill:none" points="
  250.094,1423.18 250.094,47.2441 
  "/>
<polyline clip-path="url(#clip942)" style="stroke:#000000; stroke-width:2; stroke-opacity:0.1; fill:none" points="
  755.541,1423.18 755.541,47.2441 
  "/>
<polyline clip-path="url(#clip942)" style="stroke:#000000; stroke-width:2; stroke-opacity:0.1; fill:none" points="
  1260.99,1423.18 1260.99,47.2441 
  "/>
<polyline clip-path="url(#clip942)" style="stroke:#000000; stroke-width:2; stroke-opacity:0.1; fill:none" points="
  1766.44,1423.18 1766.44,47.2441 
  "/>
<polyline clip-path="url(#clip942)" style="stroke:#000000; stroke-width:2; stroke-opacity:0.1; fill:none" points="
  2271.88,1423.18 2271.88,47.2441 
  "/>
<polyline clip-path="url(#clip942)" style="stroke:#000000; stroke-width:2; stroke-opacity:0.1; fill:none" points="
  209.658,1384.24 2352.76,1384.24 
  "/>
<polyline clip-path="url(#clip942)" style="stroke:#000000; stroke-width:2; stroke-opacity:0.1; fill:none" points="
  209.658,1097.71 2352.76,1097.71 
  "/>
<polyline clip-path="url(#clip942)" style="stroke:#000000; stroke-width:2; stroke-opacity:0.1; fill:none" points="
  209.658,811.185 2352.76,811.185 
  "/>
<polyline clip-path="url(#clip942)" style="stroke:#000000; stroke-width:2; stroke-opacity:0.1; fill:none" points="
  209.658,524.659 2352.76,524.659 
  "/>
<polyline clip-path="url(#clip942)" style="stroke:#000000; stroke-width:2; stroke-opacity:0.1; fill:none" points="
  209.658,238.132 2352.76,238.132 
  "/>
<polyline clip-path="url(#clip940)" style="stroke:#000000; stroke-width:4; stroke-opacity:1; fill:none" points="
  209.658,1423.18 2352.76,1423.18 
  "/>
<polyline clip-path="url(#clip940)" style="stroke:#000000; stroke-width:4; stroke-opacity:1; fill:none" points="
  209.658,1423.18 209.658,47.2441 
  "/>
<polyline clip-path="url(#clip940)" style="stroke:#000000; stroke-width:4; stroke-opacity:1; fill:none" points="
  250.094,1423.18 250.094,1406.67 
  "/>
<polyline clip-path="url(#clip940)" style="stroke:#000000; stroke-width:4; stroke-opacity:1; fill:none" points="
  755.541,1423.18 755.541,1406.67 
  "/>
<polyline clip-path="url(#clip940)" style="stroke:#000000; stroke-width:4; stroke-opacity:1; fill:none" points="
  1260.99,1423.18 1260.99,1406.67 
  "/>
<polyline clip-path="url(#clip940)" style="stroke:#000000; stroke-width:4; stroke-opacity:1; fill:none" points="
  1766.44,1423.18 1766.44,1406.67 
  "/>
<polyline clip-path="url(#clip940)" style="stroke:#000000; stroke-width:4; stroke-opacity:1; fill:none" points="
  2271.88,1423.18 2271.88,1406.67 
  "/>
<polyline clip-path="url(#clip940)" style="stroke:#000000; stroke-width:4; stroke-opacity:1; fill:none" points="
  209.658,1384.24 235.375,1384.24 
  "/>
<polyline clip-path="url(#clip940)" style="stroke:#000000; stroke-width:4; stroke-opacity:1; fill:none" points="
  209.658,1097.71 235.375,1097.71 
  "/>
<polyline clip-path="url(#clip940)" style="stroke:#000000; stroke-width:4; stroke-opacity:1; fill:none" points="
  209.658,811.185 235.375,811.185 
  "/>
<polyline clip-path="url(#clip940)" style="stroke:#000000; stroke-width:4; stroke-opacity:1; fill:none" points="
  209.658,524.659 235.375,524.659 
  "/>
<polyline clip-path="url(#clip940)" style="stroke:#000000; stroke-width:4; stroke-opacity:1; fill:none" points="
  209.658,238.132 235.375,238.132 
  "/>
<path clip-path="url(#clip940)" d="M 0 0 M250.094 1445.17 Q246.483 1445.17 244.654 1448.74 Q242.848 1452.28 242.848 1459.41 Q242.848 1466.51 244.654 1470.08 Q246.483 1473.62 250.094 1473.62 Q253.728 1473.62 255.534 1470.08 Q257.362 1466.51 257.362 1459.41 Q257.362 1452.28 255.534 1448.74 Q253.728 1445.17 250.094 1445.17 M250.094 1441.47 Q255.904 1441.47 258.959 1446.07 Q262.038 1450.66 262.038 1459.41 Q262.038 1468.13 258.959 1472.74 Q255.904 1477.32 250.094 1477.32 Q244.284 1477.32 241.205 1472.74 Q238.149 1468.13 238.149 1459.41 Q238.149 1450.66 241.205 1446.07 Q244.284 1441.47 250.094 1441.47 Z" fill="#000000" fill-rule="evenodd" fill-opacity="1" /><path clip-path="url(#clip940)" d="M 0 0 M737.185 1472.72 L753.504 1472.72 L753.504 1476.65 L731.56 1476.65 L731.56 1472.72 Q734.222 1469.96 738.805 1465.33 Q743.412 1460.68 744.592 1459.34 Q746.838 1456.81 747.717 1455.08 Q748.62 1453.32 748.62 1451.63 Q748.62 1448.87 746.676 1447.14 Q744.754 1445.4 741.653 1445.4 Q739.454 1445.4 737 1446.17 Q734.569 1446.93 731.792 1448.48 L731.792 1443.76 Q734.616 1442.62 737.069 1442.05 Q739.523 1441.47 741.56 1441.47 Q746.93 1441.47 750.125 1444.15 Q753.319 1446.84 753.319 1451.33 Q753.319 1453.46 752.509 1455.38 Q751.722 1457.28 749.616 1459.87 Q749.037 1460.54 745.935 1463.76 Q742.833 1466.95 737.185 1472.72 Z" fill="#000000" fill-rule="evenodd" fill-opacity="1" /><path clip-path="url(#clip940)" d="M 0 0 M758.62 1442.09 L776.976 1442.09 L776.976 1446.03 L762.902 1446.03 L762.902 1454.5 Q763.921 1454.15 764.94 1453.99 Q765.958 1453.8 766.977 1453.8 Q772.764 1453.8 776.143 1456.98 Q779.523 1460.15 779.523 1465.56 Q779.523 1471.14 776.051 1474.24 Q772.578 1477.32 766.259 1477.32 Q764.083 1477.32 761.815 1476.95 Q759.569 1476.58 757.162 1475.84 L757.162 1471.14 Q759.245 1472.28 761.467 1472.83 Q763.69 1473.39 766.166 1473.39 Q770.171 1473.39 772.509 1471.28 Q774.847 1469.18 774.847 1465.56 Q774.847 1461.95 772.509 1459.85 Q770.171 1457.74 766.166 1457.74 Q764.291 1457.74 762.416 1458.16 Q760.565 1458.57 758.62 1459.45 L758.62 1442.09 Z" fill="#000000" fill-rule="evenodd" fill-opacity="1" /><path clip-path="url(#clip940)" d="M 0 0 M1237.76 1442.09 L1256.12 1442.09 L1256.12 1446.03 L1242.04 1446.03 L1242.04 1454.5 Q1243.06 1454.15 1244.08 1453.99 Q1245.1 1453.8 1246.12 1453.8 Q1251.9 1453.8 1255.28 1456.98 Q1258.66 1460.15 1258.66 1465.56 Q1258.66 1471.14 1255.19 1474.24 Q1251.72 1477.32 1245.4 1477.32 Q1243.22 1477.32 1240.95 1476.95 Q1238.71 1476.58 1236.3 1475.84 L1236.3 1471.14 Q1238.38 1472.28 1240.61 1472.83 Q1242.83 1473.39 1245.31 1473.39 Q1249.31 1473.39 1251.65 1471.28 Q1253.99 1469.18 1253.99 1465.56 Q1253.99 1461.95 1251.65 1459.85 Q1249.31 1457.74 1245.31 1457.74 Q1243.43 1457.74 1241.56 1458.16 Q1239.7 1458.57 1237.76 1459.45 L1237.76 1442.09 Z" fill="#000000" fill-rule="evenodd" fill-opacity="1" /><path clip-path="url(#clip940)" d="M 0 0 M1273.73 1445.17 Q1270.12 1445.17 1268.29 1448.74 Q1266.49 1452.28 1266.49 1459.41 Q1266.49 1466.51 1268.29 1470.08 Q1270.12 1473.62 1273.73 1473.62 Q1277.37 1473.62 1279.17 1470.08 Q1281 1466.51 1281 1459.41 Q1281 1452.28 1279.17 1448.74 Q1277.37 1445.17 1273.73 1445.17 M1273.73 1441.47 Q1279.54 1441.47 1282.6 1446.07 Q1285.68 1450.66 1285.68 1459.41 Q1285.68 1468.13 1282.6 1472.74 Q1279.54 1477.32 1273.73 1477.32 Q1267.92 1477.32 1264.84 1472.74 Q1261.79 1468.13 1261.79 1459.41 Q1261.79 1450.66 1264.84 1446.07 Q1267.92 1441.47 1273.73 1441.47 Z" fill="#000000" fill-rule="evenodd" fill-opacity="1" /><path clip-path="url(#clip940)" d="M 0 0 M1742.32 1442.09 L1764.54 1442.09 L1764.54 1444.08 L1751.99 1476.65 L1747.11 1476.65 L1758.91 1446.03 L1742.32 1446.03 L1742.32 1442.09 Z" fill="#000000" fill-rule="evenodd" fill-opacity="1" /><path clip-path="url(#clip940)" d="M 0 0 M1769.65 1442.09 L1788.01 1442.09 L1788.01 1446.03 L1773.94 1446.03 L1773.94 1454.5 Q1774.96 1454.15 1775.97 1453.99 Q1776.99 1453.8 1778.01 1453.8 Q1783.8 1453.8 1787.18 1456.98 Q1790.56 1460.15 1790.56 1465.56 Q1790.56 1471.14 1787.08 1474.24 Q1783.61 1477.32 1777.29 1477.32 Q1775.12 1477.32 1772.85 1476.95 Q1770.6 1476.58 1768.2 1475.84 L1768.2 1471.14 Q1770.28 1472.28 1772.5 1472.83 Q1774.72 1473.39 1777.2 1473.39 Q1781.21 1473.39 1783.54 1471.28 Q1785.88 1469.18 1785.88 1465.56 Q1785.88 1461.95 1783.54 1459.85 Q1781.21 1457.74 1777.2 1457.74 Q1775.33 1457.74 1773.45 1458.16 Q1771.6 1458.57 1769.65 1459.45 L1769.65 1442.09 Z" fill="#000000" fill-rule="evenodd" fill-opacity="1" /><path clip-path="url(#clip940)" d="M 0 0 M2235.25 1472.72 L2242.89 1472.72 L2242.89 1446.35 L2234.58 1448.02 L2234.58 1443.76 L2242.85 1442.09 L2247.52 1442.09 L2247.52 1472.72 L2255.16 1472.72 L2255.16 1476.65 L2235.25 1476.65 L2235.25 1472.72 Z" fill="#000000" fill-rule="evenodd" fill-opacity="1" /><path clip-path="url(#clip940)" d="M 0 0 M2270.23 1445.17 Q2266.62 1445.17 2264.79 1448.74 Q2262.98 1452.28 2262.98 1459.41 Q2262.98 1466.51 2264.79 1470.08 Q2266.62 1473.62 2270.23 1473.62 Q2273.86 1473.62 2275.67 1470.08 Q2277.5 1466.51 2277.5 1459.41 Q2277.5 1452.28 2275.67 1448.74 Q2273.86 1445.17 2270.23 1445.17 M2270.23 1441.47 Q2276.04 1441.47 2279.09 1446.07 Q2282.17 1450.66 2282.17 1459.41 Q2282.17 1468.13 2279.09 1472.74 Q2276.04 1477.32 2270.23 1477.32 Q2264.42 1477.32 2261.34 1472.74 Q2258.28 1468.13 2258.28 1459.41 Q2258.28 1450.66 2261.34 1446.07 Q2264.42 1441.47 2270.23 1441.47 Z" fill="#000000" fill-rule="evenodd" fill-opacity="1" /><path clip-path="url(#clip940)" d="M 0 0 M2297.24 1445.17 Q2293.63 1445.17 2291.8 1448.74 Q2290 1452.28 2290 1459.41 Q2290 1466.51 2291.8 1470.08 Q2293.63 1473.62 2297.24 1473.62 Q2300.88 1473.62 2302.68 1470.08 Q2304.51 1466.51 2304.51 1459.41 Q2304.51 1452.28 2302.68 1448.74 Q2300.88 1445.17 2297.24 1445.17 M2297.24 1441.47 Q2303.05 1441.47 2306.11 1446.07 Q2309.19 1450.66 2309.19 1459.41 Q2309.19 1468.13 2306.11 1472.74 Q2303.05 1477.32 2297.24 1477.32 Q2291.43 1477.32 2288.35 1472.74 Q2285.3 1468.13 2285.3 1459.41 Q2285.3 1450.66 2288.35 1446.07 Q2291.43 1441.47 2297.24 1441.47 Z" fill="#000000" fill-rule="evenodd" fill-opacity="1" /><path clip-path="url(#clip940)" d="M 0 0 M132.371 1397.58 L148.691 1397.58 L148.691 1401.52 L126.746 1401.52 L126.746 1397.58 Q129.408 1394.83 133.992 1390.2 Q138.598 1385.55 139.779 1384.2 Q142.024 1381.68 142.904 1379.94 Q143.806 1378.19 143.806 1376.5 Q143.806 1373.74 141.862 1372 Q139.941 1370.27 136.839 1370.27 Q134.64 1370.27 132.186 1371.03 Q129.756 1371.8 126.978 1373.35 L126.978 1368.62 Q129.802 1367.49 132.255 1366.91 Q134.709 1366.33 136.746 1366.33 Q142.117 1366.33 145.311 1369.02 Q148.505 1371.7 148.505 1376.19 Q148.505 1378.32 147.695 1380.25 Q146.908 1382.14 144.802 1384.74 Q144.223 1385.41 141.121 1388.62 Q138.019 1391.82 132.371 1397.58 Z" fill="#000000" fill-rule="evenodd" fill-opacity="1" /><path clip-path="url(#clip940)" d="M 0 0 M153.76 1395.64 L158.644 1395.64 L158.644 1401.52 L153.76 1401.52 L153.76 1395.64 Z" fill="#000000" fill-rule="evenodd" fill-opacity="1" /><path clip-path="url(#clip940)" d="M 0 0 M173.714 1370.04 Q170.103 1370.04 168.274 1373.6 Q166.468 1377.14 166.468 1384.27 Q166.468 1391.38 168.274 1394.94 Q170.103 1398.49 173.714 1398.49 Q177.348 1398.49 179.153 1394.94 Q180.982 1391.38 180.982 1384.27 Q180.982 1377.14 179.153 1373.6 Q177.348 1370.04 173.714 1370.04 M173.714 1366.33 Q179.524 1366.33 182.579 1370.94 Q185.658 1375.52 185.658 1384.27 Q185.658 1393 182.579 1397.61 Q179.524 1402.19 173.714 1402.19 Q167.903 1402.19 164.825 1397.61 Q161.769 1393 161.769 1384.27 Q161.769 1375.52 164.825 1370.94 Q167.903 1366.33 173.714 1366.33 Z" fill="#000000" fill-rule="evenodd" fill-opacity="1" /><path clip-path="url(#clip940)" d="M 0 0 M133.968 1111.06 L150.288 1111.06 L150.288 1114.99 L128.343 1114.99 L128.343 1111.06 Q131.006 1108.3 135.589 1103.67 Q140.195 1099.02 141.376 1097.68 Q143.621 1095.15 144.501 1093.42 Q145.404 1091.66 145.404 1089.97 Q145.404 1087.21 143.459 1085.48 Q141.538 1083.74 138.436 1083.74 Q136.237 1083.74 133.783 1084.51 Q131.353 1085.27 128.575 1086.82 L128.575 1082.1 Q131.399 1080.96 133.853 1080.39 Q136.306 1079.81 138.343 1079.81 Q143.714 1079.81 146.908 1082.49 Q150.103 1085.18 150.103 1089.67 Q150.103 1091.8 149.292 1093.72 Q148.505 1095.62 146.399 1098.21 Q145.82 1098.88 142.718 1102.1 Q139.617 1105.29 133.968 1111.06 Z" fill="#000000" fill-rule="evenodd" fill-opacity="1" /><path clip-path="url(#clip940)" d="M 0 0 M155.357 1109.11 L160.241 1109.11 L160.241 1114.99 L155.357 1114.99 L155.357 1109.11 Z" fill="#000000" fill-rule="evenodd" fill-opacity="1" /><path clip-path="url(#clip940)" d="M 0 0 M169.339 1111.06 L185.658 1111.06 L185.658 1114.99 L163.714 1114.99 L163.714 1111.06 Q166.376 1108.3 170.959 1103.67 Q175.565 1099.02 176.746 1097.68 Q178.991 1095.15 179.871 1093.42 Q180.774 1091.66 180.774 1089.97 Q180.774 1087.21 178.829 1085.48 Q176.908 1083.74 173.806 1083.74 Q171.607 1083.74 169.153 1084.51 Q166.723 1085.27 163.945 1086.82 L163.945 1082.1 Q166.769 1080.96 169.223 1080.39 Q171.677 1079.81 173.714 1079.81 Q179.084 1079.81 182.278 1082.49 Q185.473 1085.18 185.473 1089.67 Q185.473 1091.8 184.663 1093.72 Q183.876 1095.62 181.769 1098.21 Q181.19 1098.88 178.089 1102.1 Q174.987 1105.29 169.339 1111.06 Z" fill="#000000" fill-rule="evenodd" fill-opacity="1" /><path clip-path="url(#clip940)" d="M 0 0 M131.885 824.53 L148.204 824.53 L148.204 828.465 L126.26 828.465 L126.26 824.53 Q128.922 821.775 133.505 817.146 Q138.112 812.493 139.292 811.15 Q141.538 808.627 142.417 806.891 Q143.32 805.132 143.32 803.442 Q143.32 800.688 141.376 798.951 Q139.455 797.215 136.353 797.215 Q134.154 797.215 131.7 797.979 Q129.269 798.743 126.492 800.294 L126.492 795.572 Q129.316 794.438 131.769 793.859 Q134.223 793.28 136.26 793.28 Q141.63 793.28 144.825 795.965 Q148.019 798.651 148.019 803.141 Q148.019 805.271 147.209 807.192 Q146.422 809.09 144.316 811.683 Q143.737 812.354 140.635 815.572 Q137.533 818.766 131.885 824.53 Z" fill="#000000" fill-rule="evenodd" fill-opacity="1" /><path clip-path="url(#clip940)" d="M 0 0 M153.274 822.586 L158.158 822.586 L158.158 828.465 L153.274 828.465 L153.274 822.586 Z" fill="#000000" fill-rule="evenodd" fill-opacity="1" /><path clip-path="url(#clip940)" d="M 0 0 M176.075 797.979 L164.269 816.428 L176.075 816.428 L176.075 797.979 M174.848 793.905 L180.727 793.905 L180.727 816.428 L185.658 816.428 L185.658 820.317 L180.727 820.317 L180.727 828.465 L176.075 828.465 L176.075 820.317 L160.473 820.317 L160.473 815.803 L174.848 793.905 Z" fill="#000000" fill-rule="evenodd" fill-opacity="1" /><path clip-path="url(#clip940)" d="M 0 0 M132.209 538.003 L148.529 538.003 L148.529 541.939 L126.584 541.939 L126.584 538.003 Q129.246 535.249 133.83 530.619 Q138.436 525.966 139.617 524.624 Q141.862 522.101 142.742 520.365 Q143.644 518.605 143.644 516.916 Q143.644 514.161 141.7 512.425 Q139.779 510.689 136.677 510.689 Q134.478 510.689 132.024 511.453 Q129.593 512.217 126.816 513.767 L126.816 509.045 Q129.64 507.911 132.093 507.332 Q134.547 506.754 136.584 506.754 Q141.955 506.754 145.149 509.439 Q148.343 512.124 148.343 516.615 Q148.343 518.744 147.533 520.666 Q146.746 522.564 144.64 525.156 Q144.061 525.828 140.959 529.045 Q137.857 532.24 132.209 538.003 Z" fill="#000000" fill-rule="evenodd" fill-opacity="1" /><path clip-path="url(#clip940)" d="M 0 0 M153.598 536.059 L158.482 536.059 L158.482 541.939 L153.598 541.939 L153.598 536.059 Z" fill="#000000" fill-rule="evenodd" fill-opacity="1" /><path clip-path="url(#clip940)" d="M 0 0 M174.13 522.795 Q170.982 522.795 169.13 524.948 Q167.302 527.101 167.302 530.851 Q167.302 534.578 169.13 536.753 Q170.982 538.906 174.13 538.906 Q177.278 538.906 179.107 536.753 Q180.959 534.578 180.959 530.851 Q180.959 527.101 179.107 524.948 Q177.278 522.795 174.13 522.795 M183.413 508.143 L183.413 512.402 Q181.653 511.568 179.848 511.129 Q178.065 510.689 176.306 510.689 Q171.677 510.689 169.223 513.814 Q166.792 516.939 166.445 523.258 Q167.811 521.244 169.871 520.179 Q171.931 519.092 174.408 519.092 Q179.616 519.092 182.626 522.263 Q185.658 525.411 185.658 530.851 Q185.658 536.175 182.51 539.392 Q179.362 542.61 174.13 542.61 Q168.135 542.61 164.964 538.027 Q161.792 533.42 161.792 524.693 Q161.792 516.499 165.681 511.638 Q169.57 506.754 176.121 506.754 Q177.88 506.754 179.663 507.101 Q181.468 507.448 183.413 508.143 Z" fill="#000000" fill-rule="evenodd" fill-opacity="1" /><path clip-path="url(#clip940)" d="M 0 0 M132.464 251.477 L148.783 251.477 L148.783 255.412 L126.839 255.412 L126.839 251.477 Q129.501 248.722 134.084 244.093 Q138.691 239.44 139.871 238.097 Q142.117 235.574 142.996 233.838 Q143.899 232.079 143.899 230.389 Q143.899 227.634 141.955 225.898 Q140.033 224.162 136.931 224.162 Q134.732 224.162 132.279 224.926 Q129.848 225.69 127.07 227.241 L127.07 222.519 Q129.894 221.384 132.348 220.806 Q134.802 220.227 136.839 220.227 Q142.209 220.227 145.404 222.912 Q148.598 225.597 148.598 230.088 Q148.598 232.218 147.788 234.139 Q147.001 236.037 144.894 238.63 Q144.316 239.301 141.214 242.519 Q138.112 245.713 132.464 251.477 Z" fill="#000000" fill-rule="evenodd" fill-opacity="1" /><path clip-path="url(#clip940)" d="M 0 0 M153.853 249.532 L158.737 249.532 L158.737 255.412 L153.853 255.412 L153.853 249.532 Z" fill="#000000" fill-rule="evenodd" fill-opacity="1" /><path clip-path="url(#clip940)" d="M 0 0 M173.806 239 Q170.473 239 168.552 240.783 Q166.653 242.565 166.653 245.69 Q166.653 248.815 168.552 250.597 Q170.473 252.38 173.806 252.38 Q177.14 252.38 179.061 250.597 Q180.982 248.792 180.982 245.69 Q180.982 242.565 179.061 240.783 Q177.163 239 173.806 239 M169.13 237.009 Q166.121 236.269 164.431 234.208 Q162.765 232.148 162.765 229.185 Q162.765 225.042 165.704 222.634 Q168.667 220.227 173.806 220.227 Q178.968 220.227 181.908 222.634 Q184.848 225.042 184.848 229.185 Q184.848 232.148 183.158 234.208 Q181.491 236.269 178.505 237.009 Q181.885 237.796 183.76 240.088 Q185.658 242.38 185.658 245.69 Q185.658 250.713 182.579 253.398 Q179.524 256.083 173.806 256.083 Q168.089 256.083 165.01 253.398 Q161.954 250.713 161.954 245.69 Q161.954 242.38 163.853 240.088 Q165.751 237.796 169.13 237.009 M167.417 229.625 Q167.417 232.31 169.084 233.815 Q170.774 235.32 173.806 235.32 Q176.815 235.32 178.505 233.815 Q180.218 232.31 180.218 229.625 Q180.218 226.94 178.505 225.435 Q176.815 223.931 173.806 223.931 Q170.774 223.931 169.084 225.435 Q167.417 226.94 167.417 229.625 Z" fill="#000000" fill-rule="evenodd" fill-opacity="1" /><path clip-path="url(#clip940)" d="M 0 0 M1280.27 1510.27 L1280.27 1520.4 L1292.33 1520.4 L1292.33 1524.95 L1280.27 1524.95 L1280.27 1544.3 Q1280.27 1548.66 1281.45 1549.9 Q1282.66 1551.14 1286.32 1551.14 L1292.33 1551.14 L1292.33 1556.04 L1286.32 1556.04 Q1279.54 1556.04 1276.96 1553.53 Q1274.38 1550.98 1274.38 1544.3 L1274.38 1524.95 L1270.08 1524.95 L1270.08 1520.4 L1274.38 1520.4 L1274.38 1510.27 L1280.27 1510.27 Z" fill="#000000" fill-rule="evenodd" fill-opacity="1" /><path clip-path="url(#clip940)" d="M 0 0 M38.479 751.031 L38.479 745.142 L67.7294 745.142 L52.3562 727.669 L52.3562 720.189 L69.0344 739.095 L88.0042 719.393 L88.0042 727.032 L70.5939 745.142 L88.0042 745.142 L88.0042 751.031 L38.479 751.031 Z" fill="#000000" fill-rule="evenodd" fill-opacity="1" /><polyline clip-path="url(#clip942)" style="stroke:#009af9; stroke-width:4; stroke-opacity:1; fill:none" points="
  270.312,1384.24 290.53,1278.01 310.748,1181.18 330.965,1093.15 351.183,1008.69 371.401,929.024 391.619,856.479 411.837,790.519 432.055,730.654 452.273,676.438 
  472.491,627.473 492.709,583.061 512.927,540.789 533.144,499.198 553.362,460.583 573.58,425.443 593.798,393.473 614.016,364.388 634.234,337.935 654.452,313.884 
  674.67,292.014 694.888,272.136 715.106,254.067 735.324,237.649 755.541,222.728 775.759,209.171 795.977,196.858 816.195,185.672 836.413,175.513 856.631,166.29 
  876.849,157.917 897.067,150.319 917.285,143.424 937.503,137.169 957.72,131.495 977.938,126.35 998.156,121.729 1018.37,117.637 1038.59,114.014 1058.81,110.808 
  1079.03,107.97 1099.25,105.458 1119.46,103.235 1139.68,101.267 1159.9,99.5264 1180.12,97.986 1200.34,96.6231 1220.55,95.4173 1240.77,94.3504 1260.99,93.4066 
  1281.21,92.5716 1301.42,91.8329 1321.64,91.1794 1341.86,90.6013 1362.08,90.0899 1382.3,89.6376 1402.51,89.2374 1422.73,88.8834 1442.95,88.5703 1463.17,88.2934 
  1483.39,88.0484 1503.6,87.8317 1523.82,87.64 1544.04,87.4704 1564.26,87.3205 1584.48,87.1878 1604.69,87.0705 1624.91,86.9667 1645.13,86.8749 1665.35,86.7937 
  1685.57,86.7219 1705.78,86.6583 1726,86.6021 1746.22,86.5524 1766.44,86.5085 1786.65,86.4696 1806.87,86.4352 1827.09,86.4048 1847.31,86.3779 1867.53,86.3541 
  1887.74,86.333 1907.96,86.3144 1928.18,86.2979 1948.4,86.2834 1968.62,86.2705 1988.83,86.2591 2009.05,86.249 2029.27,86.2401 2049.49,86.2322 2069.71,86.2252 
  2089.92,86.2191 2110.14,86.2136 2130.36,86.2088 2150.58,86.2045 2170.79,86.2007 2191.01,86.1974 2211.23,86.1944 2231.45,86.1918 2251.67,86.1895 2271.88,86.1875 
  2292.1,86.1857 
  "/>
<path clip-path="url(#clip940)" d="
M1989.74 251.724 L2280.76 251.724 L2280.76 130.764 L1989.74 130.764  Z
  " fill="#ffffff" fill-rule="evenodd" fill-opacity="1"/>
<polyline clip-path="url(#clip940)" style="stroke:#000000; stroke-width:4; stroke-opacity:1; fill:none" points="
  1989.74,251.724 2280.76,251.724 2280.76,130.764 1989.74,130.764 1989.74,251.724 
  "/>
<polyline clip-path="url(#clip940)" style="stroke:#009af9; stroke-width:4; stroke-opacity:1; fill:none" points="
  2013.74,191.244 2157.74,191.244 
  "/>
<path clip-path="url(#clip940)" d="M 0 0 M2195.58 210.931 Q2193.77 215.561 2192.06 216.973 Q2190.35 218.385 2187.48 218.385 L2184.08 218.385 L2184.08 214.82 L2186.58 214.82 Q2188.33 214.82 2189.31 213.987 Q2190.28 213.154 2191.46 210.052 L2192.22 208.107 L2181.74 182.598 L2186.25 182.598 L2194.35 202.876 L2202.46 182.598 L2206.97 182.598 L2195.58 210.931 Z" fill="#000000" fill-rule="evenodd" fill-opacity="1" /><path clip-path="url(#clip940)" d="M 0 0 M2212.85 204.589 L2220.49 204.589 L2220.49 178.223 L2212.18 179.89 L2212.18 175.631 L2220.44 173.964 L2225.12 173.964 L2225.12 204.589 L2232.76 204.589 L2232.76 208.524 L2212.85 208.524 L2212.85 204.589 Z" fill="#000000" fill-rule="evenodd" fill-opacity="1" /></svg>
